<ttFont>
    <TTGlyph name="A" xMin="60" yMin="-124" xMax="1118" yMax="1431">
      <contour>
        <pt x="933" y="147" on="1"/>
        <pt x="933" y="112" on="0"/>
        <pt x="947" y="65" on="0"/>
        <pt x="970" y="36" on="0"/>
        <pt x="998" y="23" on="0"/>
        <pt x="1013" y="23" on="1"/>
        <pt x="1028" y="23" on="0"/>
        <pt x="1056" y="36" on="0"/>
        <pt x="1079" y="51" on="0"/>
        <pt x="1098" y="64" on="0"/>
        <pt x="1105" y="64" on="1"/>
        <pt x="1118" y="64" on="0"/>
        <pt x="1118" y="49" on="1"/>
        <pt x="1118" y="44" on="0"/>
        <pt x="1109" y="29" on="0"/>
        <pt x="1105" y="24" on="1"/>
        <pt x="1088" y="1" on="0"/>
        <pt x="1049" y="-42" on="0"/>
        <pt x="1004" y="-75" on="0"/>
        <pt x="955" y="-95" on="0"/>
        <pt x="929" y="-95" on="1"/>
        <pt x="882" y="-95" on="0"/>
        <pt x="821" y="-51" on="0"/>
        <pt x="785" y="16" on="0"/>
        <pt x="769" y="96" on="0"/>
        <pt x="768" y="133" on="1"/>
        <pt x="743" y="82" on="0"/>
        <pt x="687" y="8" on="0"/>
        <pt x="659" y="-19" on="1"/>
        <pt x="611" y="-65" on="0"/>
        <pt x="498" y="-124" on="0"/>
        <pt x="426" y="-124" on="1"/>
        <pt x="347" y="-124" on="0"/>
        <pt x="213" y="-51" on="0"/>
        <pt x="115" y="94" on="0"/>
        <pt x="60" y="312" on="0"/>
        <pt x="60" y="457" on="1"/>
        <pt x="60" y="572" on="0"/>
        <pt x="98" y="775" on="0"/>
        <pt x="160" y="950" on="0"/>
        <pt x="241" y="1095" on="0"/>
        <pt x="328" y="1212" on="0"/>
        <pt x="414" y="1297" on="0"/>
        <pt x="450" y="1325" on="1"/>
        <pt x="476" y="1345" on="0"/>
        <pt x="540" y="1383" on="0"/>
        <pt x="613" y="1413" on="0"/>
        <pt x="694" y="1431" on="0"/>
        <pt x="738" y="1431" on="1"/>
        <pt x="790" y="1431" on="0"/>
        <pt x="906" y="1395" on="0"/>
        <pt x="1004" y="1320" on="0"/>
        <pt x="1069" y="1202" on="0"/>
        <pt x="1069" y="1121" on="1"/>
        <pt x="1069" y="1076" on="0"/>
        <pt x="1042" y="982" on="0"/>
        <pt x="1011" y="934" on="1"/>
        <pt x="984" y="892" on="0"/>
        <pt x="914" y="837" on="0"/>
        <pt x="841" y="803" on="0"/>
        <pt x="769" y="789" on="0"/>
        <pt x="741" y="789" on="1"/>
        <pt x="700" y="789" on="0"/>
        <pt x="660" y="809" on="0"/>
        <pt x="660" y="821" on="1"/>
        <pt x="660" y="827" on="0"/>
        <pt x="673" y="843" on="0"/>
        <pt x="686" y="848" on="1"/>
        <pt x="702" y="855" on="0"/>
        <pt x="769" y="876" on="0"/>
        <pt x="838" y="924" on="0"/>
        <pt x="890" y="1011" on="0"/>
        <pt x="890" y="1083" on="1"/>
        <pt x="890" y="1158" on="0"/>
        <pt x="856" y="1256" on="0"/>
        <pt x="802" y="1314" on="0"/>
        <pt x="735" y="1338" on="0"/>
        <pt x="701" y="1338" on="1"/>
        <pt x="651" y="1338" on="0"/>
        <pt x="555" y="1289" on="0"/>
        <pt x="468" y="1202" on="0"/>
        <pt x="391" y="1083" on="0"/>
        <pt x="329" y="946" on="0"/>
        <pt x="283" y="795" on="0"/>
        <pt x="270" y="719" on="1"/>
        <pt x="257" y="644" on="0"/>
        <pt x="246" y="515" on="0"/>
        <pt x="246" y="458" on="1"/>
        <pt x="246" y="340" on="0"/>
        <pt x="291" y="177" on="0"/>
        <pt x="364" y="75" on="0"/>
        <pt x="458" y="29" on="0"/>
        <pt x="507" y="29" on="1"/>
        <pt x="545" y="29" on="0"/>
        <pt x="627" y="61" on="0"/>
        <pt x="700" y="118" on="0"/>
        <pt x="756" y="198" on="0"/>
        <pt x="768" y="246" on="1"/>
        <pt x="770" y="258" on="0"/>
        <pt x="778" y="326" on="0"/>
        <pt x="786" y="414" on="0"/>
        <pt x="796" y="511" on="0"/>
        <pt x="806" y="594" on="0"/>
        <pt x="816" y="652" on="0"/>
        <pt x="821" y="657" on="1"/>
        <pt x="825" y="660" on="0"/>
        <pt x="833" y="664" on="1"/>
        <pt x="839" y="667" on="0"/>
        <pt x="860" y="672" on="0"/>
        <pt x="876" y="672" on="1"/>
        <pt x="879" y="672" on="0"/>
        <pt x="887" y="671" on="0"/>
        <pt x="891" y="671" on="1"/>
        <pt x="893" y="671" on="0"/>
        <pt x="899" y="677" on="0"/>
        <pt x="901" y="681" on="1"/>
        <pt x="904" y="685" on="0"/>
        <pt x="907" y="692" on="1"/>
        <pt x="910" y="698" on="0"/>
        <pt x="923" y="710" on="0"/>
        <pt x="940" y="721" on="0"/>
        <pt x="958" y="728" on="0"/>
        <pt x="966" y="728" on="1"/>
        <pt x="974" y="728" on="0"/>
        <pt x="986" y="717" on="0"/>
        <pt x="986" y="704" on="1"/>
        <pt x="986" y="697" on="0"/>
        <pt x="985" y="692" on="1"/>
        <pt x="982" y="676" on="0"/>
        <pt x="972" y="603" on="0"/>
        <pt x="960" y="505" on="0"/>
        <pt x="948" y="393" on="0"/>
        <pt x="939" y="282" on="0"/>
        <pt x="933" y="183" on="0"/>
      </contour>
    </TTGlyph>
    <TTGlyph name="AE" xMin="60" yMin="-126" xMax="1915" yMax="1431">
      <contour>
        <pt x="1513" y="1425" on="1"/>
        <pt x="1612" y="1425" on="0"/>
        <pt x="1755" y="1376" on="0"/>
        <pt x="1851" y="1311" on="0"/>
        <pt x="1903" y="1245" on="0"/>
        <pt x="1910" y="1227" on="1"/>
        <pt x="1914" y="1218" on="0"/>
        <pt x="1915" y="1205" on="0"/>
        <pt x="1915" y="1200" on="1"/>
        <pt x="1915" y="1188" on="0"/>
        <pt x="1904" y="1178" on="0"/>
        <pt x="1896" y="1165" on="1"/>
        <pt x="1890" y="1155" on="0"/>
        <pt x="1875" y="1147" on="0"/>
        <pt x="1858" y="1141" on="0"/>
        <pt x="1843" y="1132" on="0"/>
        <pt x="1838" y="1122" on="1"/>
        <pt x="1822" y="1092" on="0"/>
        <pt x="1793" y="1092" on="1"/>
        <pt x="1776" y="1092" on="0"/>
        <pt x="1744" y="1113" on="0"/>
        <pt x="1704" y="1145" on="0"/>
        <pt x="1651" y="1183" on="0"/>
        <pt x="1574" y="1215" on="0"/>
        <pt x="1468" y="1236" on="0"/>
        <pt x="1395" y="1236" on="1"/>
        <pt x="1315" y="1236" on="0"/>
        <pt x="1194" y="1187" on="0"/>
        <pt x="1142" y="1139" on="1"/>
        <pt x="1097" y="1097" on="0"/>
        <pt x="1052" y="1003" on="0"/>
        <pt x="1052" y="959" on="1"/>
        <pt x="1052" y="908" on="0"/>
        <pt x="1085" y="866" on="1"/>
        <pt x="1109" y="836" on="0"/>
        <pt x="1204" y="778" on="0"/>
        <pt x="1313" y="726" on="0"/>
        <pt x="1418" y="683" on="0"/>
        <pt x="1451" y="668" on="1"/>
        <pt x="1480" y="655" on="0"/>
        <pt x="1499" y="629" on="0"/>
        <pt x="1499" y="615" on="1"/>
        <pt x="1499" y="600" on="0"/>
        <pt x="1488" y="567" on="0"/>
        <pt x="1488" y="550" on="1"/>
        <pt x="1488" y="542" on="0"/>
        <pt x="1492" y="528" on="0"/>
        <pt x="1492" y="521" on="1"/>
        <pt x="1492" y="505" on="0"/>
        <pt x="1473" y="482" on="0"/>
        <pt x="1442" y="464" on="0"/>
        <pt x="1402" y="450" on="0"/>
        <pt x="1382" y="444" on="1"/>
        <pt x="1353" y="435" on="0"/>
        <pt x="1263" y="401" on="0"/>
        <pt x="1179" y="344" on="0"/>
        <pt x="1119" y="260" on="0"/>
        <pt x="1119" y="200" on="1"/>
        <pt x="1119" y="160" on="0"/>
        <pt x="1153" y="90" on="0"/>
        <pt x="1216" y="37" on="0"/>
        <pt x="1304" y="7" on="0"/>
        <pt x="1357" y="7" on="1"/>
        <pt x="1478" y="7" on="0"/>
        <pt x="1674" y="113" on="0"/>
        <pt x="1737" y="205" on="1"/>
        <pt x="1751" y="225" on="0"/>
        <pt x="1790" y="300" on="0"/>
        <pt x="1812" y="354" on="1"/>
        <pt x="1817" y="366" on="0"/>
        <pt x="1833" y="379" on="0"/>
        <pt x="1841" y="379" on="1"/>
        <pt x="1847" y="379" on="0"/>
        <pt x="1856" y="370" on="0"/>
        <pt x="1856" y="362" on="1"/>
        <pt x="1856" y="354" on="0"/>
        <pt x="1838" y="303" on="0"/>
        <pt x="1806" y="234" on="0"/>
        <pt x="1761" y="154" on="0"/>
        <pt x="1735" y="117" on="1"/>
        <pt x="1699" y="66" on="0"/>
        <pt x="1604" y="-23" on="0"/>
        <pt x="1493" y="-89" on="0"/>
        <pt x="1367" y="-126" on="0"/>
        <pt x="1298" y="-126" on="1"/>
        <pt x="1259" y="-126" on="0"/>
        <pt x="1178" y="-112" on="0"/>
        <pt x="1101" y="-84" on="0"/>
        <pt x="1033" y="-40" on="0"/>
        <pt x="1007" y="-11" on="1"/>
        <pt x="976" y="-46" on="0"/>
        <pt x="901" y="-95" on="0"/>
        <pt x="859" y="-95" on="1"/>
        <pt x="820" y="-95" on="0"/>
        <pt x="762" y="-65" on="0"/>
        <pt x="724" y="-13" on="0"/>
        <pt x="704" y="55" on="0"/>
        <pt x="701" y="93" on="1"/>
        <pt x="675" y="44" on="0"/>
        <pt x="617" y="-36" on="0"/>
        <pt x="550" y="-93" on="0"/>
        <pt x="471" y="-124" on="0"/>
        <pt x="426" y="-124" on="1"/>
        <pt x="347" y="-124" on="0"/>
        <pt x="213" y="-51" on="0"/>
        <pt x="115" y="94" on="0"/>
        <pt x="60" y="312" on="0"/>
        <pt x="60" y="457" on="1"/>
        <pt x="60" y="572" on="0"/>
        <pt x="98" y="775" on="0"/>
        <pt x="160" y="950" on="0"/>
        <pt x="241" y="1095" on="0"/>
        <pt x="328" y="1212" on="0"/>
        <pt x="414" y="1297" on="0"/>
        <pt x="450" y="1325" on="1"/>
        <pt x="476" y="1345" on="0"/>
        <pt x="540" y="1383" on="0"/>
        <pt x="613" y="1413" on="0"/>
        <pt x="694" y="1431" on="0"/>
        <pt x="738" y="1431" on="1"/>
        <pt x="782" y="1431" on="0"/>
        <pt x="881" y="1405" on="0"/>
        <pt x="970" y="1350" on="0"/>
        <pt x="1041" y="1266" on="0"/>
        <pt x="1057" y="1208" on="1"/>
        <pt x="1098" y="1256" on="0"/>
        <pt x="1200" y="1336" on="0"/>
        <pt x="1317" y="1393" on="0"/>
        <pt x="1445" y="1425" on="0"/>
      </contour>
      <contour>
        <pt x="863" y="147" on="1"/>
        <pt x="863" y="112" on="0"/>
        <pt x="877" y="65" on="0"/>
        <pt x="900" y="36" on="0"/>
        <pt x="928" y="23" on="0"/>
        <pt x="943" y="23" on="1"/>
        <pt x="960" y="23" on="0"/>
        <pt x="976" y="31" on="1"/>
        <pt x="942" y="87" on="0"/>
        <pt x="942" y="160" on="1"/>
        <pt x="942" y="233" on="0"/>
        <pt x="998" y="338" on="0"/>
        <pt x="1081" y="410" on="0"/>
        <pt x="1178" y="456" on="0"/>
        <pt x="1261" y="485" on="0"/>
        <pt x="1317" y="503" on="0"/>
        <pt x="1317" y="512" on="1"/>
        <pt x="1317" y="519" on="0"/>
        <pt x="1288" y="534" on="0"/>
        <pt x="1241" y="553" on="0"/>
        <pt x="1181" y="577" on="0"/>
        <pt x="1150" y="594" on="1"/>
        <pt x="1105" y="618" on="0"/>
        <pt x="1030" y="672" on="0"/>
        <pt x="974" y="735" on="0"/>
        <pt x="940" y="809" on="0"/>
        <pt x="935" y="853" on="1"/>
        <pt x="886" y="817" on="0"/>
        <pt x="781" y="789" on="0"/>
        <pt x="741" y="789" on="1"/>
        <pt x="700" y="789" on="0"/>
        <pt x="660" y="809" on="0"/>
        <pt x="660" y="821" on="1"/>
        <pt x="660" y="827" on="0"/>
        <pt x="673" y="843" on="0"/>
        <pt x="686" y="848" on="1"/>
        <pt x="702" y="855" on="0"/>
        <pt x="769" y="876" on="0"/>
        <pt x="838" y="924" on="0"/>
        <pt x="890" y="1011" on="0"/>
        <pt x="890" y="1083" on="1"/>
        <pt x="890" y="1158" on="0"/>
        <pt x="856" y="1256" on="0"/>
        <pt x="802" y="1314" on="0"/>
        <pt x="735" y="1338" on="0"/>
        <pt x="701" y="1338" on="1"/>
        <pt x="651" y="1338" on="0"/>
        <pt x="555" y="1289" on="0"/>
        <pt x="468" y="1202" on="0"/>
        <pt x="391" y="1083" on="0"/>
        <pt x="329" y="946" on="0"/>
        <pt x="283" y="795" on="0"/>
        <pt x="270" y="719" on="1"/>
        <pt x="257" y="644" on="0"/>
        <pt x="246" y="515" on="0"/>
        <pt x="246" y="458" on="1"/>
        <pt x="246" y="340" on="0"/>
        <pt x="291" y="177" on="0"/>
        <pt x="364" y="75" on="0"/>
        <pt x="458" y="29" on="0"/>
        <pt x="507" y="29" on="1"/>
        <pt x="545" y="29" on="0"/>
        <pt x="605" y="61" on="0"/>
        <pt x="652" y="118" on="0"/>
        <pt x="686" y="198" on="0"/>
        <pt x="698" y="246" on="1"/>
        <pt x="700" y="258" on="0"/>
        <pt x="706" y="309" on="0"/>
        <pt x="711" y="371" on="0"/>
        <pt x="717" y="438" on="0"/>
        <pt x="724" y="496" on="0"/>
        <pt x="732" y="537" on="0"/>
        <pt x="737" y="542" on="1"/>
        <pt x="741" y="545" on="0"/>
        <pt x="749" y="549" on="1"/>
        <pt x="755" y="552" on="0"/>
        <pt x="776" y="557" on="0"/>
        <pt x="792" y="557" on="1"/>
        <pt x="795" y="557" on="0"/>
        <pt x="803" y="556" on="0"/>
        <pt x="807" y="556" on="1"/>
        <pt x="809" y="556" on="0"/>
        <pt x="815" y="562" on="0"/>
        <pt x="817" y="566" on="1"/>
        <pt x="820" y="570" on="0"/>
        <pt x="823" y="577" on="1"/>
        <pt x="826" y="583" on="0"/>
        <pt x="839" y="595" on="0"/>
        <pt x="856" y="606" on="0"/>
        <pt x="874" y="613" on="0"/>
        <pt x="882" y="613" on="1"/>
        <pt x="890" y="613" on="0"/>
        <pt x="902" y="602" on="0"/>
        <pt x="902" y="589" on="1"/>
        <pt x="902" y="582" on="0"/>
        <pt x="901" y="577" on="1"/>
        <pt x="896" y="553" on="0"/>
        <pt x="883" y="453" on="0"/>
        <pt x="871" y="330" on="0"/>
        <pt x="863" y="201" on="0"/>
      </contour>
    </TTGlyph>
    <TTGlyph name="AEacute" xMin="60" yMin="-126" xMax="1915" yMax="1777">
      <component glyphName="AE" x="0" y="0" flags="0x204"/>
      <component glyphName="acute" x="938" y="747" flags="0x4"/>
    </TTGlyph>
    <TTGlyph name="Aacute" xMin="60" yMin="-124" xMax="1118" yMax="1786">
      <component glyphName="A" x="0" y="0" flags="0x204"/>
      <component glyphName="acute" x="563" y="756" flags="0x4"/>
    </TTGlyph>
    <TTGlyph name="Abreve" xMin="60" yMin="-124" xMax="1118" yMax="1774">
      <component glyphName="A" x="0" y="0" flags="0x204"/>
      <component glyphName="breve" x="523" y="756" flags="0x4"/>
    </TTGlyph>
    <TTGlyph name="Acircumflex" xMin="60" yMin="-124" xMax="1118" yMax="1783">
      <component glyphName="A" x="0" y="0" flags="0x204"/>
      <component glyphName="circumflex" x="500" y="756" flags="0x4"/>
    </TTGlyph>
    <TTGlyph name="Adieresis" xMin="60" yMin="-124" xMax="1118" yMax="1761">
      <component glyphName="A" x="0" y="0" flags="0x204"/>
      <component glyphName="dieresis" x="500" y="756" flags="0x4"/>
    </TTGlyph>
    <TTGlyph name="Agrave" xMin="60" yMin="-124" xMax="1118" yMax="1786">
      <component glyphName="A" x="0" y="0" flags="0x204"/>
      <component glyphName="grave" x="440" y="756" flags="0x4"/>
    </TTGlyph>
    <TTGlyph name="Amacron" xMin="60" yMin="-124" xMax="1118" yMax="1745">
      <component glyphName="A" x="0" y="0" flags="0x204"/>
      <component glyphName="macron" x="507" y="756" flags="0x4"/>
    </TTGlyph>
    <TTGlyph name="Aogonek" xMin="60" yMin="-437" xMax="1118" yMax="1431">
      <contour>
        <pt x="963" y="-437" on="1"/>
        <pt x="932" y="-437" on="0"/>
        <pt x="879" y="-413" on="0"/>
        <pt x="839" y="-372" on="0"/>
        <pt x="816" y="-316" on="0"/>
        <pt x="816" y="-283" on="1"/>
        <pt x="816" y="-229" on="0"/>
        <pt x="867" y="-134" on="0"/>
        <pt x="911" y="-94" on="1"/>
        <pt x="865" y="-85" on="0"/>
        <pt x="810" y="-37" on="0"/>
        <pt x="780" y="28" on="0"/>
        <pt x="769" y="100" on="0"/>
        <pt x="768" y="133" on="1"/>
        <pt x="743" y="82" on="0"/>
        <pt x="687" y="8" on="0"/>
        <pt x="659" y="-19" on="1"/>
        <pt x="611" y="-65" on="0"/>
        <pt x="498" y="-124" on="0"/>
        <pt x="426" y="-124" on="1"/>
        <pt x="347" y="-124" on="0"/>
        <pt x="213" y="-51" on="0"/>
        <pt x="115" y="94" on="0"/>
        <pt x="60" y="312" on="0"/>
        <pt x="60" y="457" on="1"/>
        <pt x="60" y="572" on="0"/>
        <pt x="98" y="775" on="0"/>
        <pt x="160" y="950" on="0"/>
        <pt x="241" y="1095" on="0"/>
        <pt x="328" y="1212" on="0"/>
        <pt x="414" y="1297" on="0"/>
        <pt x="450" y="1325" on="1"/>
        <pt x="476" y="1345" on="0"/>
        <pt x="540" y="1383" on="0"/>
        <pt x="613" y="1413" on="0"/>
        <pt x="694" y="1431" on="0"/>
        <pt x="738" y="1431" on="1"/>
        <pt x="790" y="1431" on="0"/>
        <pt x="906" y="1395" on="0"/>
        <pt x="1004" y="1320" on="0"/>
        <pt x="1069" y="1202" on="0"/>
        <pt x="1069" y="1121" on="1"/>
        <pt x="1069" y="1076" on="0"/>
        <pt x="1042" y="982" on="0"/>
        <pt x="1011" y="934" on="1"/>
        <pt x="984" y="892" on="0"/>
        <pt x="914" y="837" on="0"/>
        <pt x="841" y="803" on="0"/>
        <pt x="769" y="789" on="0"/>
        <pt x="741" y="789" on="1"/>
        <pt x="700" y="789" on="0"/>
        <pt x="660" y="809" on="0"/>
        <pt x="660" y="821" on="1"/>
        <pt x="660" y="827" on="0"/>
        <pt x="673" y="843" on="0"/>
        <pt x="686" y="848" on="1"/>
        <pt x="702" y="855" on="0"/>
        <pt x="769" y="876" on="0"/>
        <pt x="838" y="924" on="0"/>
        <pt x="890" y="1011" on="0"/>
        <pt x="890" y="1083" on="1"/>
        <pt x="890" y="1158" on="0"/>
        <pt x="856" y="1256" on="0"/>
        <pt x="802" y="1314" on="0"/>
        <pt x="735" y="1338" on="0"/>
        <pt x="701" y="1338" on="1"/>
        <pt x="651" y="1338" on="0"/>
        <pt x="555" y="1289" on="0"/>
        <pt x="468" y="1202" on="0"/>
        <pt x="391" y="1083" on="0"/>
        <pt x="329" y="946" on="0"/>
        <pt x="283" y="795" on="0"/>
        <pt x="270" y="719" on="1"/>
        <pt x="257" y="644" on="0"/>
        <pt x="246" y="515" on="0"/>
        <pt x="246" y="458" on="1"/>
        <pt x="246" y="340" on="0"/>
        <pt x="291" y="177" on="0"/>
        <pt x="364" y="75" on="0"/>
        <pt x="458" y="29" on="0"/>
        <pt x="507" y="29" on="1"/>
        <pt x="545" y="29" on="0"/>
        <pt x="627" y="61" on="0"/>
        <pt x="700" y="118" on="0"/>
        <pt x="756" y="198" on="0"/>
        <pt x="768" y="246" on="1"/>
        <pt x="770" y="258" on="0"/>
        <pt x="778" y="326" on="0"/>
        <pt x="786" y="414" on="0"/>
        <pt x="796" y="511" on="0"/>
        <pt x="806" y="594" on="0"/>
        <pt x="816" y="652" on="0"/>
        <pt x="821" y="657" on="1"/>
        <pt x="825" y="660" on="0"/>
        <pt x="833" y="664" on="1"/>
        <pt x="839" y="667" on="0"/>
        <pt x="860" y="672" on="0"/>
        <pt x="876" y="672" on="1"/>
        <pt x="879" y="672" on="0"/>
        <pt x="887" y="671" on="0"/>
        <pt x="891" y="671" on="1"/>
        <pt x="893" y="671" on="0"/>
        <pt x="899" y="677" on="0"/>
        <pt x="901" y="681" on="1"/>
        <pt x="904" y="685" on="0"/>
        <pt x="907" y="692" on="1"/>
        <pt x="910" y="698" on="0"/>
        <pt x="923" y="710" on="0"/>
        <pt x="940" y="721" on="0"/>
        <pt x="958" y="728" on="0"/>
        <pt x="966" y="728" on="1"/>
        <pt x="974" y="728" on="0"/>
        <pt x="986" y="717" on="0"/>
        <pt x="986" y="704" on="1"/>
        <pt x="986" y="697" on="0"/>
        <pt x="985" y="692" on="1"/>
        <pt x="982" y="676" on="0"/>
        <pt x="972" y="603" on="0"/>
        <pt x="960" y="505" on="0"/>
        <pt x="948" y="393" on="0"/>
        <pt x="939" y="282" on="0"/>
        <pt x="933" y="183" on="0"/>
        <pt x="933" y="147" on="1"/>
        <pt x="933" y="112" on="0"/>
        <pt x="947" y="65" on="0"/>
        <pt x="970" y="36" on="0"/>
        <pt x="998" y="23" on="0"/>
        <pt x="1013" y="23" on="1"/>
        <pt x="1028" y="23" on="0"/>
        <pt x="1056" y="36" on="0"/>
        <pt x="1079" y="51" on="0"/>
        <pt x="1098" y="64" on="0"/>
        <pt x="1105" y="64" on="1"/>
        <pt x="1118" y="64" on="0"/>
        <pt x="1118" y="49" on="1"/>
        <pt x="1118" y="44" on="0"/>
        <pt x="1109" y="29" on="0"/>
        <pt x="1105" y="24" on="1"/>
        <pt x="1072" y="-17" on="0"/>
        <pt x="1004" y="-67" on="0"/>
        <pt x="947" y="-116" on="0"/>
        <pt x="911" y="-180" on="0"/>
        <pt x="911" y="-236" on="1"/>
        <pt x="911" y="-267" on="0"/>
        <pt x="928" y="-310" on="0"/>
        <pt x="955" y="-337" on="0"/>
        <pt x="988" y="-350" on="0"/>
        <pt x="1003" y="-350" on="1"/>
        <pt x="1021" y="-350" on="0"/>
        <pt x="1048" y="-338" on="0"/>
        <pt x="1071" y="-319" on="0"/>
        <pt x="1088" y="-297" on="0"/>
        <pt x="1096" y="-286" on="1"/>
        <pt x="1102" y="-279" on="0"/>
        <pt x="1108" y="-279" on="1"/>
        <pt x="1118" y="-279" on="0"/>
        <pt x="1118" y="-293" on="1"/>
        <pt x="1118" y="-299" on="0"/>
        <pt x="1105" y="-346" on="0"/>
        <pt x="1070" y="-397" on="0"/>
        <pt x="1010" y="-437" on="0"/>
      </contour>
    </TTGlyph>
    <TTGlyph name="Aring" xMin="60" yMin="-124" xMax="1118" yMax="1843">
      <component glyphName="A" x="0" y="0" flags="0x204"/>
      <component glyphName="ring" x="499" y="756" flags="0x4"/>
    </TTGlyph>
    <TTGlyph name="Atilde" xMin="60" yMin="-124" xMax="1118" yMax="1727">
      <component glyphName="A" x="0" y="0" flags="0x204"/>
      <component glyphName="tilde" x="500" y="756" flags="0x4"/>
    </TTGlyph>
    <TTGlyph name="B" xMin="30" yMin="-125" xMax="1218" yMax="1426">
      <contour>
        <pt x="1218" y="971" on="1"/>
        <pt x="1218" y="876" on="0"/>
        <pt x="1162" y="718" on="0"/>
        <pt x="1061" y="599" on="0"/>
        <pt x="921" y="525" on="0"/>
        <pt x="838" y="513" on="1"/>
        <pt x="888" y="505" on="0"/>
        <pt x="985" y="469" on="0"/>
        <pt x="1061" y="400" on="0"/>
        <pt x="1108" y="289" on="0"/>
        <pt x="1108" y="205" on="1"/>
        <pt x="1108" y="139" on="0"/>
        <pt x="1056" y="19" on="0"/>
        <pt x="964" y="-72" on="0"/>
        <pt x="836" y="-125" on="0"/>
        <pt x="760" y="-125" on="1"/>
        <pt x="719" y="-125" on="0"/>
        <pt x="640" y="-96" on="0"/>
        <pt x="579" y="-42" on="0"/>
        <pt x="542" y="36" on="0"/>
        <pt x="542" y="85" on="1"/>
        <pt x="542" y="105" on="0"/>
        <pt x="549" y="120" on="0"/>
        <pt x="557" y="120" on="1"/>
        <pt x="564" y="120" on="0"/>
        <pt x="574" y="107" on="0"/>
        <pt x="577" y="98" on="1"/>
        <pt x="594" y="48" on="0"/>
        <pt x="679" y="-13" on="0"/>
        <pt x="731" y="-13" on="1"/>
        <pt x="779" y="-13" on="0"/>
        <pt x="852" y="27" on="0"/>
        <pt x="902" y="91" on="0"/>
        <pt x="927" y="168" on="0"/>
        <pt x="927" y="206" on="1"/>
        <pt x="927" y="288" on="0"/>
        <pt x="865" y="393" on="0"/>
        <pt x="774" y="455" on="0"/>
        <pt x="672" y="482" on="0"/>
        <pt x="632" y="485" on="1"/>
        <pt x="618" y="486" on="0"/>
        <pt x="606" y="501" on="0"/>
        <pt x="606" y="512" on="1"/>
        <pt x="606" y="523" on="0"/>
        <pt x="618" y="542" on="0"/>
        <pt x="628" y="543" on="1"/>
        <pt x="726" y="551" on="0"/>
        <pt x="870" y="606" on="0"/>
        <pt x="965" y="703" on="0"/>
        <pt x="1011" y="843" on="0"/>
        <pt x="1011" y="937" on="1"/>
        <pt x="1011" y="1008" on="0"/>
        <pt x="951" y="1129" on="0"/>
        <pt x="846" y="1216" on="0"/>
        <pt x="705" y="1265" on="0"/>
        <pt x="623" y="1265" on="1"/>
        <pt x="549" y="1265" on="0"/>
        <pt x="395" y="1234" on="0"/>
        <pt x="269" y="1164" on="0"/>
        <pt x="188" y="1049" on="0"/>
        <pt x="188" y="964" on="1"/>
        <pt x="188" y="920" on="0"/>
        <pt x="210" y="840" on="0"/>
        <pt x="240" y="774" on="0"/>
        <pt x="270" y="727" on="0"/>
        <pt x="279" y="716" on="1"/>
        <pt x="284" y="710" on="0"/>
        <pt x="292" y="694" on="0"/>
        <pt x="292" y="688" on="1"/>
        <pt x="292" y="680" on="0"/>
        <pt x="279" y="668" on="0"/>
        <pt x="262" y="668" on="1"/>
        <pt x="238" y="668" on="0"/>
        <pt x="159" y="701" on="0"/>
        <pt x="84" y="769" on="0"/>
        <pt x="30" y="875" on="0"/>
        <pt x="30" y="947" on="1"/>
        <pt x="30" y="998" on="0"/>
        <pt x="70" y="1108" on="0"/>
        <pt x="147" y="1215" on="0"/>
        <pt x="260" y="1311" on="0"/>
        <pt x="405" y="1383" on="0"/>
        <pt x="580" y="1426" on="0"/>
        <pt x="682" y="1426" on="1"/>
        <pt x="824" y="1426" on="0"/>
        <pt x="1027" y="1344" on="0"/>
        <pt x="1157" y="1213" on="0"/>
        <pt x="1218" y="1051" on="0"/>
      </contour>
      <contour>
        <pt x="485" y="1106" on="1"/>
        <pt x="495" y="1128" on="0"/>
        <pt x="531" y="1155" on="0"/>
        <pt x="554" y="1155" on="1"/>
        <pt x="562" y="1155" on="0"/>
        <pt x="588" y="1145" on="0"/>
        <pt x="588" y="1134" on="1"/>
        <pt x="588" y="1126" on="0"/>
        <pt x="585" y="1113" on="0"/>
        <pt x="583" y="1102" on="1"/>
        <pt x="565" y="1017" on="0"/>
        <pt x="538" y="841" on="0"/>
        <pt x="518" y="671" on="0"/>
        <pt x="505" y="514" on="0"/>
        <pt x="498" y="380" on="0"/>
        <pt x="495" y="277" on="0"/>
        <pt x="495" y="246" on="1"/>
        <pt x="495" y="146" on="0"/>
        <pt x="493" y="29" on="0"/>
        <pt x="493" y="-2" on="1"/>
        <pt x="493" y="-6" on="0"/>
        <pt x="493" y="-20" on="0"/>
        <pt x="489" y="-33" on="0"/>
        <pt x="480" y="-43" on="0"/>
        <pt x="472" y="-43" on="1"/>
        <pt x="459" y="-43" on="0"/>
        <pt x="437" y="-33" on="0"/>
        <pt x="417" y="-20" on="0"/>
        <pt x="398" y="-10" on="0"/>
        <pt x="389" y="-10" on="1"/>
        <pt x="378" y="-10" on="0"/>
        <pt x="364" y="-24" on="0"/>
        <pt x="354" y="-24" on="1"/>
        <pt x="342" y="-24" on="0"/>
        <pt x="328" y="-12" on="0"/>
        <pt x="322" y="6" on="0"/>
        <pt x="321" y="26" on="0"/>
        <pt x="321" y="34" on="1"/>
        <pt x="321" y="72" on="0"/>
        <pt x="326" y="219" on="0"/>
        <pt x="331" y="319" on="1"/>
        <pt x="334" y="377" on="0"/>
        <pt x="343" y="510" on="0"/>
        <pt x="355" y="642" on="0"/>
        <pt x="368" y="767" on="0"/>
        <pt x="379" y="870" on="0"/>
        <pt x="388" y="942" on="0"/>
        <pt x="390" y="956" on="1"/>
        <pt x="397" y="1000" on="0"/>
        <pt x="412" y="1062" on="0"/>
        <pt x="421" y="1073" on="1"/>
        <pt x="428" y="1082" on="0"/>
        <pt x="438" y="1089" on="1"/>
        <pt x="446" y="1095" on="0"/>
        <pt x="470" y="1106" on="0"/>
      </contour>
    </TTGlyph>
    <TTGlyph name="C" xMin="65" yMin="-121" xMax="1069" yMax="1436">
      <contour>
        <pt x="1069" y="1090" on="1"/>
        <pt x="1069" y="1036" on="0"/>
        <pt x="1042" y="930" on="0"/>
        <pt x="1013" y="879" on="1"/>
        <pt x="986" y="831" on="0"/>
        <pt x="911" y="761" on="0"/>
        <pt x="831" y="714" on="0"/>
        <pt x="754" y="691" on="0"/>
        <pt x="725" y="691" on="1"/>
        <pt x="698" y="691" on="0"/>
        <pt x="669" y="707" on="0"/>
        <pt x="669" y="719" on="1"/>
        <pt x="669" y="733" on="0"/>
        <pt x="694" y="743" on="1"/>
        <pt x="710" y="750" on="0"/>
        <pt x="773" y="792" on="0"/>
        <pt x="836" y="869" on="0"/>
        <pt x="884" y="984" on="0"/>
        <pt x="884" y="1063" on="1"/>
        <pt x="884" y="1133" on="0"/>
        <pt x="842" y="1231" on="0"/>
        <pt x="774" y="1292" on="0"/>
        <pt x="689" y="1320" on="0"/>
        <pt x="646" y="1320" on="1"/>
        <pt x="554" y="1320" on="0"/>
        <pt x="408" y="1210" on="0"/>
        <pt x="306" y="1019" on="0"/>
        <pt x="252" y="762" on="0"/>
        <pt x="252" y="614" on="1"/>
        <pt x="252" y="505" on="0"/>
        <pt x="285" y="330" on="0"/>
        <pt x="341" y="197" on="0"/>
        <pt x="417" y="102" on="0"/>
        <pt x="501" y="42" on="0"/>
        <pt x="590" y="14" on="0"/>
        <pt x="632" y="14" on="1"/>
        <pt x="708" y="14" on="0"/>
        <pt x="829" y="69" on="0"/>
        <pt x="924" y="162" on="0"/>
        <pt x="996" y="285" on="0"/>
        <pt x="1023" y="354" on="1"/>
        <pt x="1028" y="367" on="0"/>
        <pt x="1045" y="379" on="0"/>
        <pt x="1053" y="379" on="1"/>
        <pt x="1067" y="379" on="0"/>
        <pt x="1067" y="363" on="1"/>
        <pt x="1067" y="356" on="0"/>
        <pt x="1050" y="304" on="0"/>
        <pt x="1019" y="232" on="0"/>
        <pt x="977" y="149" on="0"/>
        <pt x="952" y="111" on="1"/>
        <pt x="877" y="-4" on="0"/>
        <pt x="682" y="-121" on="0"/>
        <pt x="550" y="-121" on="1"/>
        <pt x="431" y="-121" on="0"/>
        <pt x="250" y="-17" on="0"/>
        <pt x="127" y="161" on="0"/>
        <pt x="65" y="397" on="0"/>
        <pt x="65" y="528" on="1"/>
        <pt x="65" y="685" on="0"/>
        <pt x="129" y="941" on="0"/>
        <pt x="226" y="1137" on="0"/>
        <pt x="339" y="1274" on="0"/>
        <pt x="389" y="1313" on="1"/>
        <pt x="415" y="1334" on="0"/>
        <pt x="487" y="1378" on="0"/>
        <pt x="573" y="1413" on="0"/>
        <pt x="670" y="1436" on="0"/>
        <pt x="721" y="1436" on="1"/>
        <pt x="801" y="1436" on="0"/>
        <pt x="930" y="1381" on="0"/>
        <pt x="1020" y="1287" on="0"/>
        <pt x="1069" y="1161" on="0"/>
      </contour>
    </TTGlyph>
    <TTGlyph name="Cacute" xMin="65" yMin="-121" xMax="1069" yMax="1787">
      <component glyphName="C" x="0" y="0" flags="0x204"/>
      <component glyphName="acute" x="530" y="757" flags="0x4"/>
    </TTGlyph>
    <TTGlyph name="Ccaron" xMin="65" yMin="-121" xMax="1069" yMax="1784">
      <component glyphName="C" x="0" y="0" flags="0x204"/>
      <component glyphName="caron" x="475" y="757" flags="0x4"/>
    </TTGlyph>
    <TTGlyph name="Ccedilla" xMin="65" yMin="-470" xMax="1069" yMax="1436">
      <contour>
        <pt x="714" y="-315" on="1"/>
        <pt x="714" y="-353" on="0"/>
        <pt x="686" y="-411" on="0"/>
        <pt x="639" y="-450" on="0"/>
        <pt x="578" y="-470" on="0"/>
        <pt x="544" y="-470" on="1"/>
        <pt x="510" y="-470" on="0"/>
        <pt x="463" y="-448" on="0"/>
        <pt x="433" y="-418" on="0"/>
        <pt x="419" y="-386" on="0"/>
        <pt x="419" y="-376" on="1"/>
        <pt x="419" y="-361" on="0"/>
        <pt x="430" y="-361" on="1"/>
        <pt x="436" y="-361" on="0"/>
        <pt x="448" y="-372" on="0"/>
        <pt x="466" y="-385" on="0"/>
        <pt x="495" y="-396" on="0"/>
        <pt x="518" y="-396" on="1"/>
        <pt x="559" y="-396" on="0"/>
        <pt x="614" y="-348" on="0"/>
        <pt x="614" y="-308" on="1"/>
        <pt x="614" y="-292" on="0"/>
        <pt x="602" y="-269" on="0"/>
        <pt x="584" y="-255" on="0"/>
        <pt x="562" y="-248" on="0"/>
        <pt x="552" y="-248" on="1"/>
        <pt x="533" y="-248" on="0"/>
        <pt x="509" y="-255" on="0"/>
        <pt x="494" y="-262" on="0"/>
        <pt x="486" y="-269" on="0"/>
        <pt x="482" y="-269" on="1"/>
        <pt x="477" y="-269" on="0"/>
        <pt x="468" y="-260" on="0"/>
        <pt x="468" y="-254" on="1"/>
        <pt x="468" y="-248" on="0"/>
        <pt x="482" y="-229" on="0"/>
        <pt x="505" y="-199" on="0"/>
        <pt x="534" y="-154" on="0"/>
        <pt x="549" y="-121" on="1"/>
        <pt x="430" y="-121" on="0"/>
        <pt x="249" y="-16" on="0"/>
        <pt x="127" y="161" on="0"/>
        <pt x="65" y="397" on="0"/>
        <pt x="65" y="528" on="1"/>
        <pt x="65" y="685" on="0"/>
        <pt x="129" y="941" on="0"/>
        <pt x="226" y="1137" on="0"/>
        <pt x="339" y="1274" on="0"/>
        <pt x="389" y="1313" on="1"/>
        <pt x="415" y="1334" on="0"/>
        <pt x="487" y="1378" on="0"/>
        <pt x="573" y="1413" on="0"/>
        <pt x="670" y="1436" on="0"/>
        <pt x="721" y="1436" on="1"/>
        <pt x="801" y="1436" on="0"/>
        <pt x="930" y="1381" on="0"/>
        <pt x="1020" y="1287" on="0"/>
        <pt x="1069" y="1161" on="0"/>
        <pt x="1069" y="1090" on="1"/>
        <pt x="1069" y="1036" on="0"/>
        <pt x="1042" y="930" on="0"/>
        <pt x="1013" y="879" on="1"/>
        <pt x="986" y="831" on="0"/>
        <pt x="911" y="761" on="0"/>
        <pt x="831" y="714" on="0"/>
        <pt x="754" y="691" on="0"/>
        <pt x="725" y="691" on="1"/>
        <pt x="698" y="691" on="0"/>
        <pt x="669" y="707" on="0"/>
        <pt x="669" y="719" on="1"/>
        <pt x="669" y="733" on="0"/>
        <pt x="694" y="743" on="1"/>
        <pt x="710" y="750" on="0"/>
        <pt x="773" y="792" on="0"/>
        <pt x="836" y="869" on="0"/>
        <pt x="884" y="984" on="0"/>
        <pt x="884" y="1063" on="1"/>
        <pt x="884" y="1133" on="0"/>
        <pt x="842" y="1231" on="0"/>
        <pt x="774" y="1292" on="0"/>
        <pt x="689" y="1320" on="0"/>
        <pt x="646" y="1320" on="1"/>
        <pt x="554" y="1320" on="0"/>
        <pt x="408" y="1210" on="0"/>
        <pt x="306" y="1019" on="0"/>
        <pt x="252" y="762" on="0"/>
        <pt x="252" y="614" on="1"/>
        <pt x="252" y="505" on="0"/>
        <pt x="285" y="330" on="0"/>
        <pt x="341" y="197" on="0"/>
        <pt x="417" y="102" on="0"/>
        <pt x="501" y="42" on="0"/>
        <pt x="590" y="14" on="0"/>
        <pt x="632" y="14" on="1"/>
        <pt x="708" y="14" on="0"/>
        <pt x="829" y="69" on="0"/>
        <pt x="924" y="162" on="0"/>
        <pt x="996" y="285" on="0"/>
        <pt x="1023" y="354" on="1"/>
        <pt x="1028" y="367" on="0"/>
        <pt x="1045" y="379" on="0"/>
        <pt x="1053" y="379" on="1"/>
        <pt x="1067" y="379" on="0"/>
        <pt x="1067" y="363" on="1"/>
        <pt x="1067" y="356" on="0"/>
        <pt x="1050" y="304" on="0"/>
        <pt x="1019" y="232" on="0"/>
        <pt x="977" y="149" on="0"/>
        <pt x="952" y="111" on="1"/>
        <pt x="882" y="4" on="0"/>
        <pt x="705" y="-111" on="0"/>
        <pt x="587" y="-119" on="1"/>
        <pt x="583" y="-133" on="0"/>
        <pt x="573" y="-169" on="0"/>
        <pt x="567" y="-193" on="1"/>
        <pt x="574" y="-191" on="0"/>
        <pt x="587" y="-191" on="0"/>
        <pt x="593" y="-191" on="1"/>
        <pt x="656" y="-191" on="0"/>
        <pt x="714" y="-261" on="0"/>
      </contour>
    </TTGlyph>
    <TTGlyph name="Ccircumflex" xMin="65" yMin="-121" xMax="1069" yMax="1784">
      <component glyphName="C" x="0" y="0" flags="0x204"/>
      <component glyphName="circumflex" x="467" y="757" flags="0x4"/>
    </TTGlyph>
    <TTGlyph name="Cdotaccent" xMin="65" yMin="-121" xMax="1069" yMax="1762">
      <component glyphName="C" x="0" y="0" flags="0x204"/>
      <component glyphName="dotaccent" x="487" y="757" flags="0x4"/>
    </TTGlyph>
    <TTGlyph name="D" xMin="30" yMin="-125" xMax="1240" yMax="1433">
      <contour>
        <pt x="1240" y="672" on="1"/>
        <pt x="1240" y="534" on="0"/>
        <pt x="1192" y="308" on="0"/>
        <pt x="1110" y="131" on="0"/>
        <pt x="1003" y="1" on="0"/>
        <pt x="886" y="-84" on="0"/>
        <pt x="766" y="-125" on="0"/>
        <pt x="712" y="-125" on="1"/>
        <pt x="671" y="-125" on="0"/>
        <pt x="596" y="-96" on="0"/>
        <pt x="540" y="-42" on="0"/>
        <pt x="507" y="35" on="0"/>
        <pt x="507" y="84" on="1"/>
        <pt x="507" y="104" on="0"/>
        <pt x="516" y="120" on="0"/>
        <pt x="524" y="120" on="1"/>
        <pt x="535" y="120" on="0"/>
        <pt x="542" y="100" on="1"/>
        <pt x="562" y="41" on="0"/>
        <pt x="641" y="-21" on="0"/>
        <pt x="699" y="-21" on="1"/>
        <pt x="775" y="-21" on="0"/>
        <pt x="898" y="80" on="0"/>
        <pt x="985" y="272" on="0"/>
        <pt x="1033" y="552" on="0"/>
        <pt x="1033" y="732" on="1"/>
        <pt x="1033" y="849" on="0"/>
        <pt x="982" y="1046" on="0"/>
        <pt x="875" y="1189" on="0"/>
        <pt x="710" y="1269" on="0"/>
        <pt x="595" y="1269" on="1"/>
        <pt x="524" y="1269" on="0"/>
        <pt x="379" y="1233" on="0"/>
        <pt x="262" y="1159" on="0"/>
        <pt x="188" y="1043" on="0"/>
        <pt x="188" y="964" on="1"/>
        <pt x="188" y="920" on="0"/>
        <pt x="212" y="838" on="0"/>
        <pt x="244" y="770" on="0"/>
        <pt x="275" y="722" on="0"/>
        <pt x="282" y="713" on="1"/>
        <pt x="292" y="700" on="0"/>
        <pt x="292" y="688" on="1"/>
        <pt x="292" y="680" on="0"/>
        <pt x="279" y="668" on="0"/>
        <pt x="262" y="668" on="1"/>
        <pt x="257" y="668" on="0"/>
        <pt x="247" y="668" on="0"/>
        <pt x="241" y="670" on="1"/>
        <pt x="221" y="673" on="0"/>
        <pt x="150" y="709" on="0"/>
        <pt x="81" y="777" on="0"/>
        <pt x="30" y="878" on="0"/>
        <pt x="30" y="947" on="1"/>
        <pt x="30" y="993" on="0"/>
        <pt x="63" y="1102" on="0"/>
        <pt x="128" y="1210" on="0"/>
        <pt x="226" y="1310" on="0"/>
        <pt x="355" y="1387" on="0"/>
        <pt x="516" y="1433" on="0"/>
        <pt x="612" y="1433" on="1"/>
        <pt x="752" y="1433" on="0"/>
        <pt x="953" y="1352" on="0"/>
        <pt x="1093" y="1221" on="0"/>
        <pt x="1178" y="1055" on="0"/>
        <pt x="1225" y="886" on="0"/>
        <pt x="1240" y="729" on="0"/>
      </contour>
      <contour>
        <pt x="485" y="1106" on="1"/>
        <pt x="495" y="1128" on="0"/>
        <pt x="531" y="1155" on="0"/>
        <pt x="554" y="1155" on="1"/>
        <pt x="562" y="1155" on="0"/>
        <pt x="588" y="1145" on="0"/>
        <pt x="588" y="1134" on="1"/>
        <pt x="588" y="1126" on="0"/>
        <pt x="585" y="1113" on="0"/>
        <pt x="583" y="1102" on="1"/>
        <pt x="565" y="1017" on="0"/>
        <pt x="538" y="841" on="0"/>
        <pt x="518" y="671" on="0"/>
        <pt x="505" y="514" on="0"/>
        <pt x="498" y="380" on="0"/>
        <pt x="495" y="277" on="0"/>
        <pt x="495" y="246" on="1"/>
        <pt x="495" y="146" on="0"/>
        <pt x="493" y="29" on="0"/>
        <pt x="493" y="-2" on="1"/>
        <pt x="493" y="-6" on="0"/>
        <pt x="493" y="-20" on="0"/>
        <pt x="489" y="-33" on="0"/>
        <pt x="480" y="-43" on="0"/>
        <pt x="472" y="-43" on="1"/>
        <pt x="459" y="-43" on="0"/>
        <pt x="437" y="-33" on="0"/>
        <pt x="417" y="-20" on="0"/>
        <pt x="398" y="-10" on="0"/>
        <pt x="389" y="-10" on="1"/>
        <pt x="378" y="-10" on="0"/>
        <pt x="364" y="-24" on="0"/>
        <pt x="354" y="-24" on="1"/>
        <pt x="342" y="-24" on="0"/>
        <pt x="328" y="-12" on="0"/>
        <pt x="322" y="6" on="0"/>
        <pt x="321" y="26" on="0"/>
        <pt x="321" y="34" on="1"/>
        <pt x="321" y="72" on="0"/>
        <pt x="326" y="219" on="0"/>
        <pt x="331" y="319" on="1"/>
        <pt x="334" y="377" on="0"/>
        <pt x="343" y="510" on="0"/>
        <pt x="355" y="642" on="0"/>
        <pt x="368" y="767" on="0"/>
        <pt x="379" y="870" on="0"/>
        <pt x="388" y="942" on="0"/>
        <pt x="390" y="956" on="1"/>
        <pt x="397" y="1000" on="0"/>
        <pt x="412" y="1062" on="0"/>
        <pt x="421" y="1073" on="1"/>
        <pt x="428" y="1082" on="0"/>
        <pt x="438" y="1089" on="1"/>
        <pt x="446" y="1095" on="0"/>
        <pt x="470" y="1106" on="0"/>
      </contour>
    </TTGlyph>
    <TTGlyph name="Dcaron" xMin="30" yMin="-125" xMax="1240" yMax="1826">
      <component glyphName="D" x="0" y="0" flags="0x204"/>
      <component glyphName="caron" x="400" y="799" flags="0x4"/>
    </TTGlyph>
    <TTGlyph name="Dcroat" xMin="30" yMin="-125" xMax="1240" yMax="1433">
      <contour>
        <pt x="1240" y="672" on="1"/>
        <pt x="1240" y="534" on="0"/>
        <pt x="1192" y="308" on="0"/>
        <pt x="1110" y="131" on="0"/>
        <pt x="1003" y="1" on="0"/>
        <pt x="886" y="-84" on="0"/>
        <pt x="766" y="-125" on="0"/>
        <pt x="712" y="-125" on="1"/>
        <pt x="671" y="-125" on="0"/>
        <pt x="596" y="-96" on="0"/>
        <pt x="540" y="-42" on="0"/>
        <pt x="507" y="35" on="0"/>
        <pt x="507" y="84" on="1"/>
        <pt x="507" y="104" on="0"/>
        <pt x="516" y="120" on="0"/>
        <pt x="524" y="120" on="1"/>
        <pt x="535" y="120" on="0"/>
        <pt x="542" y="100" on="1"/>
        <pt x="562" y="41" on="0"/>
        <pt x="641" y="-21" on="0"/>
        <pt x="699" y="-21" on="1"/>
        <pt x="775" y="-21" on="0"/>
        <pt x="898" y="80" on="0"/>
        <pt x="985" y="272" on="0"/>
        <pt x="1033" y="552" on="0"/>
        <pt x="1033" y="732" on="1"/>
        <pt x="1033" y="849" on="0"/>
        <pt x="982" y="1046" on="0"/>
        <pt x="875" y="1189" on="0"/>
        <pt x="710" y="1269" on="0"/>
        <pt x="595" y="1269" on="1"/>
        <pt x="524" y="1269" on="0"/>
        <pt x="379" y="1233" on="0"/>
        <pt x="262" y="1159" on="0"/>
        <pt x="188" y="1043" on="0"/>
        <pt x="188" y="964" on="1"/>
        <pt x="188" y="920" on="0"/>
        <pt x="212" y="838" on="0"/>
        <pt x="244" y="770" on="0"/>
        <pt x="275" y="722" on="0"/>
        <pt x="282" y="713" on="1"/>
        <pt x="292" y="700" on="0"/>
        <pt x="292" y="688" on="1"/>
        <pt x="292" y="680" on="0"/>
        <pt x="279" y="668" on="0"/>
        <pt x="262" y="668" on="1"/>
        <pt x="257" y="668" on="0"/>
        <pt x="247" y="668" on="0"/>
        <pt x="241" y="670" on="1"/>
        <pt x="221" y="673" on="0"/>
        <pt x="150" y="709" on="0"/>
        <pt x="81" y="777" on="0"/>
        <pt x="30" y="878" on="0"/>
        <pt x="30" y="947" on="1"/>
        <pt x="30" y="993" on="0"/>
        <pt x="63" y="1102" on="0"/>
        <pt x="128" y="1210" on="0"/>
        <pt x="226" y="1310" on="0"/>
        <pt x="355" y="1387" on="0"/>
        <pt x="516" y="1433" on="0"/>
        <pt x="612" y="1433" on="1"/>
        <pt x="752" y="1433" on="0"/>
        <pt x="953" y="1352" on="0"/>
        <pt x="1093" y="1221" on="0"/>
        <pt x="1178" y="1055" on="0"/>
        <pt x="1225" y="886" on="0"/>
        <pt x="1240" y="729" on="0"/>
      </contour>
      <contour>
        <pt x="733" y="561" on="1"/>
        <pt x="730" y="553" on="0"/>
        <pt x="730" y="545" on="1"/>
        <pt x="730" y="531" on="0"/>
        <pt x="727" y="518" on="0"/>
        <pt x="727" y="503" on="1"/>
        <pt x="727" y="487" on="1"/>
        <pt x="727" y="478" on="0"/>
        <pt x="708" y="461" on="0"/>
        <pt x="658" y="447" on="0"/>
        <pt x="569" y="436" on="0"/>
        <pt x="500" y="435" on="1"/>
        <pt x="497" y="372" on="0"/>
        <pt x="495" y="275" on="0"/>
        <pt x="495" y="246" on="1"/>
        <pt x="495" y="146" on="0"/>
        <pt x="493" y="29" on="0"/>
        <pt x="493" y="-2" on="1"/>
        <pt x="493" y="-6" on="0"/>
        <pt x="493" y="-20" on="0"/>
        <pt x="489" y="-33" on="0"/>
        <pt x="480" y="-43" on="0"/>
        <pt x="472" y="-43" on="1"/>
        <pt x="459" y="-43" on="0"/>
        <pt x="437" y="-33" on="0"/>
        <pt x="417" y="-20" on="0"/>
        <pt x="398" y="-10" on="0"/>
        <pt x="389" y="-10" on="1"/>
        <pt x="378" y="-10" on="0"/>
        <pt x="364" y="-24" on="0"/>
        <pt x="354" y="-24" on="1"/>
        <pt x="342" y="-24" on="0"/>
        <pt x="328" y="-12" on="0"/>
        <pt x="322" y="6" on="0"/>
        <pt x="321" y="26" on="0"/>
        <pt x="321" y="34" on="1"/>
        <pt x="321" y="72" on="0"/>
        <pt x="326" y="219" on="0"/>
        <pt x="331" y="319" on="1"/>
        <pt x="332" y="346" on="0"/>
        <pt x="336" y="405" on="0"/>
        <pt x="338" y="436" on="1"/>
        <pt x="300" y="437" on="0"/>
        <pt x="232" y="439" on="0"/>
        <pt x="179" y="441" on="0"/>
        <pt x="147" y="444" on="0"/>
        <pt x="145" y="446" on="1"/>
        <pt x="140" y="450" on="0"/>
        <pt x="137" y="465" on="0"/>
        <pt x="137" y="476" on="1"/>
        <pt x="137" y="484" on="0"/>
        <pt x="138" y="490" on="0"/>
        <pt x="141" y="495" on="0"/>
        <pt x="146" y="504" on="0"/>
        <pt x="149" y="515" on="1"/>
        <pt x="152" y="525" on="0"/>
        <pt x="165" y="536" on="0"/>
        <pt x="182" y="538" on="1"/>
        <pt x="347" y="553" on="1"/>
        <pt x="353" y="622" on="0"/>
        <pt x="366" y="755" on="0"/>
        <pt x="378" y="864" on="0"/>
        <pt x="387" y="942" on="0"/>
        <pt x="390" y="956" on="1"/>
        <pt x="397" y="1000" on="0"/>
        <pt x="412" y="1062" on="0"/>
        <pt x="421" y="1073" on="1"/>
        <pt x="428" y="1082" on="0"/>
        <pt x="438" y="1089" on="1"/>
        <pt x="446" y="1095" on="0"/>
        <pt x="470" y="1106" on="0"/>
        <pt x="485" y="1106" on="1"/>
        <pt x="495" y="1128" on="0"/>
        <pt x="531" y="1155" on="0"/>
        <pt x="554" y="1155" on="1"/>
        <pt x="562" y="1155" on="0"/>
        <pt x="588" y="1145" on="0"/>
        <pt x="588" y="1134" on="1"/>
        <pt x="588" y="1126" on="0"/>
        <pt x="585" y="1113" on="0"/>
        <pt x="583" y="1102" on="1"/>
        <pt x="568" y="1035" on="0"/>
        <pt x="545" y="897" on="0"/>
        <pt x="527" y="761" on="0"/>
        <pt x="514" y="629" on="0"/>
        <pt x="510" y="569" on="1"/>
        <pt x="585" y="577" on="0"/>
        <pt x="691" y="587" on="0"/>
        <pt x="708" y="587" on="1"/>
        <pt x="719" y="587" on="0"/>
        <pt x="734" y="575" on="0"/>
        <pt x="734" y="567" on="1"/>
        <pt x="734" y="563" on="0"/>
      </contour>
    </TTGlyph>
    <TTGlyph name="E" xMin="60" yMin="-126" xMax="1042" yMax="1425">
      <contour>
        <pt x="640" y="1425" on="1"/>
        <pt x="739" y="1425" on="0"/>
        <pt x="882" y="1376" on="0"/>
        <pt x="978" y="1311" on="0"/>
        <pt x="1030" y="1245" on="0"/>
        <pt x="1037" y="1227" on="1"/>
        <pt x="1041" y="1218" on="0"/>
        <pt x="1042" y="1205" on="0"/>
        <pt x="1042" y="1200" on="1"/>
        <pt x="1042" y="1188" on="0"/>
        <pt x="1031" y="1178" on="0"/>
        <pt x="1023" y="1165" on="1"/>
        <pt x="1017" y="1155" on="0"/>
        <pt x="1002" y="1147" on="0"/>
        <pt x="985" y="1141" on="0"/>
        <pt x="970" y="1132" on="0"/>
        <pt x="965" y="1122" on="1"/>
        <pt x="949" y="1092" on="0"/>
        <pt x="920" y="1092" on="1"/>
        <pt x="903" y="1092" on="0"/>
        <pt x="871" y="1113" on="0"/>
        <pt x="831" y="1145" on="0"/>
        <pt x="778" y="1183" on="0"/>
        <pt x="701" y="1215" on="0"/>
        <pt x="595" y="1236" on="0"/>
        <pt x="522" y="1236" on="1"/>
        <pt x="442" y="1236" on="0"/>
        <pt x="321" y="1187" on="0"/>
        <pt x="269" y="1139" on="1"/>
        <pt x="224" y="1097" on="0"/>
        <pt x="179" y="1003" on="0"/>
        <pt x="179" y="959" on="1"/>
        <pt x="179" y="908" on="0"/>
        <pt x="212" y="866" on="1"/>
        <pt x="236" y="836" on="0"/>
        <pt x="331" y="778" on="0"/>
        <pt x="440" y="726" on="0"/>
        <pt x="545" y="683" on="0"/>
        <pt x="578" y="668" on="1"/>
        <pt x="607" y="655" on="0"/>
        <pt x="626" y="629" on="0"/>
        <pt x="626" y="615" on="1"/>
        <pt x="626" y="600" on="0"/>
        <pt x="615" y="567" on="0"/>
        <pt x="615" y="550" on="1"/>
        <pt x="615" y="542" on="0"/>
        <pt x="619" y="528" on="0"/>
        <pt x="619" y="521" on="1"/>
        <pt x="619" y="505" on="0"/>
        <pt x="600" y="482" on="0"/>
        <pt x="569" y="464" on="0"/>
        <pt x="529" y="450" on="0"/>
        <pt x="509" y="444" on="1"/>
        <pt x="480" y="435" on="0"/>
        <pt x="390" y="401" on="0"/>
        <pt x="306" y="344" on="0"/>
        <pt x="246" y="260" on="0"/>
        <pt x="246" y="200" on="1"/>
        <pt x="246" y="160" on="0"/>
        <pt x="280" y="90" on="0"/>
        <pt x="343" y="37" on="0"/>
        <pt x="431" y="7" on="0"/>
        <pt x="484" y="7" on="1"/>
        <pt x="605" y="7" on="0"/>
        <pt x="801" y="113" on="0"/>
        <pt x="864" y="205" on="1"/>
        <pt x="878" y="225" on="0"/>
        <pt x="917" y="300" on="0"/>
        <pt x="939" y="354" on="1"/>
        <pt x="944" y="366" on="0"/>
        <pt x="960" y="379" on="0"/>
        <pt x="968" y="379" on="1"/>
        <pt x="974" y="379" on="0"/>
        <pt x="983" y="370" on="0"/>
        <pt x="983" y="362" on="1"/>
        <pt x="983" y="354" on="0"/>
        <pt x="965" y="303" on="0"/>
        <pt x="933" y="234" on="0"/>
        <pt x="888" y="154" on="0"/>
        <pt x="862" y="117" on="1"/>
        <pt x="826" y="66" on="0"/>
        <pt x="731" y="-23" on="0"/>
        <pt x="620" y="-89" on="0"/>
        <pt x="494" y="-126" on="0"/>
        <pt x="425" y="-126" on="1"/>
        <pt x="363" y="-126" on="0"/>
        <pt x="237" y="-91" on="0"/>
        <pt x="134" y="-21" on="0"/>
        <pt x="69" y="87" on="0"/>
        <pt x="69" y="160" on="1"/>
        <pt x="69" y="233" on="0"/>
        <pt x="125" y="338" on="0"/>
        <pt x="208" y="410" on="0"/>
        <pt x="305" y="456" on="0"/>
        <pt x="388" y="485" on="0"/>
        <pt x="444" y="503" on="0"/>
        <pt x="444" y="512" on="1"/>
        <pt x="444" y="519" on="0"/>
        <pt x="415" y="534" on="0"/>
        <pt x="368" y="553" on="0"/>
        <pt x="308" y="577" on="0"/>
        <pt x="277" y="594" on="1"/>
        <pt x="227" y="621" on="0"/>
        <pt x="147" y="681" on="0"/>
        <pt x="90" y="752" on="0"/>
        <pt x="60" y="837" on="0"/>
        <pt x="60" y="889" on="1"/>
        <pt x="60" y="958" on="0"/>
        <pt x="103" y="1092" on="0"/>
        <pt x="181" y="1211" on="0"/>
        <pt x="288" y="1311" on="0"/>
        <pt x="417" y="1384" on="0"/>
        <pt x="563" y="1425" on="0"/>
      </contour>
    </TTGlyph>
    <TTGlyph name="Eacute" xMin="60" yMin="-126" xMax="1042" yMax="1777">
      <component glyphName="E" x="0" y="0" flags="0x204"/>
      <component glyphName="acute" x="451" y="747" flags="0x4"/>
    </TTGlyph>
    <TTGlyph name="Ebreve" xMin="60" yMin="-126" xMax="1042" yMax="1765">
      <component glyphName="E" x="0" y="0" flags="0x204"/>
      <component glyphName="breve" x="411" y="747" flags="0x4"/>
    </TTGlyph>
    <TTGlyph name="Ecaron" xMin="60" yMin="-126" xMax="1042" yMax="1774">
      <component glyphName="E" x="0" y="0" flags="0x204"/>
      <component glyphName="caron" x="396" y="747" flags="0x4"/>
    </TTGlyph>
    <TTGlyph name="Ecircumflex" xMin="60" yMin="-126" xMax="1042" yMax="1774">
      <component glyphName="E" x="0" y="0" flags="0x204"/>
      <component glyphName="circumflex" x="388" y="747" flags="0x4"/>
    </TTGlyph>
    <TTGlyph name="Edieresis" xMin="60" yMin="-126" xMax="1042" yMax="1752">
      <component glyphName="E" x="0" y="0" flags="0x204"/>
      <component glyphName="dieresis" x="388" y="747" flags="0x4"/>
    </TTGlyph>
    <TTGlyph name="Edotaccent" xMin="60" yMin="-126" xMax="1042" yMax="1752">
      <component glyphName="E" x="0" y="0" flags="0x204"/>
      <component glyphName="dotaccent" x="408" y="747" flags="0x4"/>
    </TTGlyph>
    <TTGlyph name="Egrave" xMin="60" yMin="-126" xMax="1042" yMax="1777">
      <component glyphName="E" x="0" y="0" flags="0x204"/>
      <component glyphName="grave" x="328" y="747" flags="0x4"/>
    </TTGlyph>
    <TTGlyph name="Emacron" xMin="60" yMin="-126" xMax="1042" yMax="1736">
      <component glyphName="E" x="0" y="0" flags="0x204"/>
      <component glyphName="macron" x="395" y="747" flags="0x4"/>
    </TTGlyph>
    <TTGlyph name="Eng" xMin="85" yMin="-660" xMax="1100" yMax="1478">
      <contour>
        <pt x="340" y="598" on="1"/>
        <pt x="340" y="483" on="0"/>
        <pt x="328" y="268" on="0"/>
        <pt x="312" y="91" on="0"/>
        <pt x="293" y="-34" on="0"/>
        <pt x="287" y="-59" on="1"/>
        <pt x="280" y="-86" on="0"/>
        <pt x="249" y="-106" on="0"/>
        <pt x="212" y="-110" on="0"/>
        <pt x="175" y="-109" on="0"/>
        <pt x="162" y="-115" on="1"/>
        <pt x="144" y="-123" on="0"/>
        <pt x="126" y="-123" on="1"/>
        <pt x="109" y="-123" on="0"/>
        <pt x="85" y="-106" on="0"/>
        <pt x="85" y="-86" on="1"/>
        <pt x="85" y="-79" on="0"/>
        <pt x="86" y="-74" on="1"/>
        <pt x="89" y="-63" on="0"/>
        <pt x="102" y="12" on="0"/>
        <pt x="119" y="119" on="0"/>
        <pt x="138" y="249" on="0"/>
        <pt x="153" y="382" on="0"/>
        <pt x="163" y="508" on="0"/>
        <pt x="163" y="559" on="1"/>
        <pt x="163" y="586" on="0"/>
        <pt x="162" y="692" on="0"/>
        <pt x="160" y="831" on="0"/>
        <pt x="155" y="991" on="0"/>
        <pt x="145" y="1150" on="0"/>
        <pt x="131" y="1299" on="0"/>
        <pt x="121" y="1358" on="1"/>
        <pt x="119" y="1367" on="0"/>
        <pt x="145" y="1390" on="0"/>
        <pt x="156" y="1401" on="1"/>
        <pt x="163" y="1408" on="0"/>
        <pt x="172" y="1424" on="0"/>
        <pt x="178" y="1437" on="0"/>
        <pt x="185" y="1446" on="0"/>
        <pt x="190" y="1448" on="1"/>
        <pt x="213" y="1455" on="0"/>
        <pt x="243" y="1467" on="0"/>
        <pt x="262" y="1474" on="0"/>
        <pt x="273" y="1478" on="0"/>
        <pt x="279" y="1478" on="1"/>
        <pt x="307" y="1478" on="0"/>
        <pt x="307" y="1421" on="1"/>
        <pt x="308" y="1421" on="0"/>
        <pt x="312" y="1370" on="0"/>
        <pt x="317" y="1274" on="0"/>
        <pt x="323" y="1138" on="0"/>
        <pt x="326" y="1054" on="1"/>
        <pt x="361" y="1147" on="0"/>
        <pt x="451" y="1274" on="0"/>
        <pt x="544" y="1356" on="0"/>
        <pt x="632" y="1401" on="0"/>
        <pt x="702" y="1422" on="0"/>
        <pt x="744" y="1425" on="0"/>
        <pt x="745" y="1425" on="1"/>
        <pt x="826" y="1425" on="0"/>
        <pt x="942" y="1378" on="0"/>
        <pt x="1020" y="1297" on="0"/>
        <pt x="1068" y="1188" on="0"/>
        <pt x="1092" y="1066" on="0"/>
        <pt x="1100" y="936" on="0"/>
        <pt x="1100" y="874" on="1"/>
        <pt x="1100" y="696" on="0"/>
        <pt x="1094" y="349" on="0"/>
        <pt x="1063" y="31" on="0"/>
        <pt x="996" y="-248" on="0"/>
        <pt x="875" y="-467" on="0"/>
        <pt x="690" y="-616" on="0"/>
        <pt x="556" y="-646" on="1"/>
        <pt x="529" y="-652" on="0"/>
        <pt x="474" y="-660" on="0"/>
        <pt x="448" y="-660" on="1"/>
        <pt x="394" y="-660" on="0"/>
        <pt x="302" y="-614" on="0"/>
        <pt x="235" y="-542" on="0"/>
        <pt x="197" y="-453" on="0"/>
        <pt x="197" y="-409" on="1"/>
        <pt x="197" y="-345" on="0"/>
        <pt x="258" y="-241" on="0"/>
        <pt x="350" y="-169" on="0"/>
        <pt x="456" y="-130" on="0"/>
        <pt x="500" y="-130" on="1"/>
        <pt x="565" y="-130" on="0"/>
        <pt x="660" y="-149" on="0"/>
        <pt x="708" y="-166" on="1"/>
        <pt x="717" y="-169" on="0"/>
        <pt x="725" y="-179" on="0"/>
        <pt x="725" y="-184" on="1"/>
        <pt x="725" y="-193" on="0"/>
        <pt x="706" y="-200" on="0"/>
        <pt x="694" y="-201" on="1"/>
        <pt x="621" y="-206" on="0"/>
        <pt x="479" y="-256" on="0"/>
        <pt x="366" y="-330" on="0"/>
        <pt x="297" y="-419" on="0"/>
        <pt x="297" y="-462" on="1"/>
        <pt x="297" y="-497" on="0"/>
        <pt x="355" y="-540" on="0"/>
        <pt x="417" y="-540" on="1"/>
        <pt x="479" y="-540" on="0"/>
        <pt x="617" y="-481" on="0"/>
        <pt x="743" y="-351" on="0"/>
        <pt x="843" y="-144" on="0"/>
        <pt x="867" y="4" on="1"/>
        <pt x="878" y="73" on="0"/>
        <pt x="891" y="226" on="0"/>
        <pt x="899" y="385" on="0"/>
        <pt x="901" y="546" on="0"/>
        <pt x="901" y="621" on="1"/>
        <pt x="901" y="696" on="0"/>
        <pt x="904" y="849" on="0"/>
        <pt x="897" y="992" on="0"/>
        <pt x="877" y="1116" on="0"/>
        <pt x="830" y="1209" on="0"/>
        <pt x="752" y="1262" on="0"/>
        <pt x="691" y="1262" on="1"/>
        <pt x="631" y="1262" on="0"/>
        <pt x="532" y="1200" on="0"/>
        <pt x="454" y="1096" on="0"/>
        <pt x="397" y="960" on="0"/>
        <pt x="359" y="812" on="0"/>
        <pt x="340" y="663" on="0"/>
      </contour>
    </TTGlyph>
    <TTGlyph name="Eogonek" xMin="60" yMin="-327" xMax="1042" yMax="1425">
      <contour>
        <pt x="807" y="-327" on="1"/>
        <pt x="776" y="-327" on="0"/>
        <pt x="723" y="-308" on="0"/>
        <pt x="683" y="-272" on="0"/>
        <pt x="660" y="-221" on="0"/>
        <pt x="660" y="-188" on="1"/>
        <pt x="660" y="-154" on="0"/>
        <pt x="685" y="-70" on="0"/>
        <pt x="709" y="-35" on="1"/>
        <pt x="646" y="-80" on="0"/>
        <pt x="499" y="-126" on="0"/>
        <pt x="425" y="-126" on="1"/>
        <pt x="363" y="-126" on="0"/>
        <pt x="237" y="-91" on="0"/>
        <pt x="134" y="-21" on="0"/>
        <pt x="69" y="87" on="0"/>
        <pt x="69" y="160" on="1"/>
        <pt x="69" y="233" on="0"/>
        <pt x="125" y="338" on="0"/>
        <pt x="208" y="410" on="0"/>
        <pt x="305" y="456" on="0"/>
        <pt x="388" y="485" on="0"/>
        <pt x="444" y="503" on="0"/>
        <pt x="444" y="512" on="1"/>
        <pt x="444" y="519" on="0"/>
        <pt x="415" y="534" on="0"/>
        <pt x="368" y="553" on="0"/>
        <pt x="308" y="577" on="0"/>
        <pt x="277" y="594" on="1"/>
        <pt x="227" y="621" on="0"/>
        <pt x="147" y="681" on="0"/>
        <pt x="90" y="752" on="0"/>
        <pt x="60" y="837" on="0"/>
        <pt x="60" y="889" on="1"/>
        <pt x="60" y="958" on="0"/>
        <pt x="103" y="1092" on="0"/>
        <pt x="181" y="1211" on="0"/>
        <pt x="288" y="1311" on="0"/>
        <pt x="417" y="1384" on="0"/>
        <pt x="563" y="1425" on="0"/>
        <pt x="640" y="1425" on="1"/>
        <pt x="739" y="1425" on="0"/>
        <pt x="882" y="1376" on="0"/>
        <pt x="978" y="1311" on="0"/>
        <pt x="1030" y="1245" on="0"/>
        <pt x="1037" y="1227" on="1"/>
        <pt x="1041" y="1218" on="0"/>
        <pt x="1042" y="1205" on="0"/>
        <pt x="1042" y="1200" on="1"/>
        <pt x="1042" y="1188" on="0"/>
        <pt x="1031" y="1178" on="0"/>
        <pt x="1023" y="1165" on="1"/>
        <pt x="1017" y="1155" on="0"/>
        <pt x="1002" y="1147" on="0"/>
        <pt x="985" y="1141" on="0"/>
        <pt x="970" y="1132" on="0"/>
        <pt x="965" y="1122" on="1"/>
        <pt x="949" y="1092" on="0"/>
        <pt x="920" y="1092" on="1"/>
        <pt x="903" y="1092" on="0"/>
        <pt x="871" y="1113" on="0"/>
        <pt x="831" y="1145" on="0"/>
        <pt x="778" y="1183" on="0"/>
        <pt x="701" y="1215" on="0"/>
        <pt x="595" y="1236" on="0"/>
        <pt x="522" y="1236" on="1"/>
        <pt x="442" y="1236" on="0"/>
        <pt x="321" y="1187" on="0"/>
        <pt x="269" y="1139" on="1"/>
        <pt x="224" y="1097" on="0"/>
        <pt x="179" y="1003" on="0"/>
        <pt x="179" y="959" on="1"/>
        <pt x="179" y="908" on="0"/>
        <pt x="212" y="866" on="1"/>
        <pt x="236" y="836" on="0"/>
        <pt x="331" y="778" on="0"/>
        <pt x="440" y="726" on="0"/>
        <pt x="545" y="683" on="0"/>
        <pt x="578" y="668" on="1"/>
        <pt x="607" y="655" on="0"/>
        <pt x="626" y="629" on="0"/>
        <pt x="626" y="615" on="1"/>
        <pt x="626" y="600" on="0"/>
        <pt x="615" y="567" on="0"/>
        <pt x="615" y="550" on="1"/>
        <pt x="615" y="542" on="0"/>
        <pt x="619" y="528" on="0"/>
        <pt x="619" y="521" on="1"/>
        <pt x="619" y="505" on="0"/>
        <pt x="600" y="482" on="0"/>
        <pt x="569" y="464" on="0"/>
        <pt x="529" y="450" on="0"/>
        <pt x="509" y="444" on="1"/>
        <pt x="480" y="435" on="0"/>
        <pt x="390" y="401" on="0"/>
        <pt x="306" y="344" on="0"/>
        <pt x="246" y="260" on="0"/>
        <pt x="246" y="200" on="1"/>
        <pt x="246" y="160" on="0"/>
        <pt x="280" y="90" on="0"/>
        <pt x="343" y="37" on="0"/>
        <pt x="431" y="7" on="0"/>
        <pt x="484" y="7" on="1"/>
        <pt x="605" y="7" on="0"/>
        <pt x="801" y="113" on="0"/>
        <pt x="864" y="205" on="1"/>
        <pt x="878" y="225" on="0"/>
        <pt x="917" y="300" on="0"/>
        <pt x="939" y="354" on="1"/>
        <pt x="944" y="366" on="0"/>
        <pt x="960" y="379" on="0"/>
        <pt x="968" y="379" on="1"/>
        <pt x="974" y="379" on="0"/>
        <pt x="983" y="370" on="0"/>
        <pt x="983" y="362" on="1"/>
        <pt x="983" y="354" on="0"/>
        <pt x="965" y="303" on="0"/>
        <pt x="933" y="234" on="0"/>
        <pt x="888" y="154" on="0"/>
        <pt x="862" y="117" on="1"/>
        <pt x="838" y="83" on="0"/>
        <pt x="799" y="31" on="0"/>
        <pt x="770" y="-21" on="0"/>
        <pt x="755" y="-82" on="0"/>
        <pt x="755" y="-126" on="1"/>
        <pt x="755" y="-157" on="0"/>
        <pt x="772" y="-200" on="0"/>
        <pt x="799" y="-227" on="0"/>
        <pt x="832" y="-240" on="0"/>
        <pt x="847" y="-240" on="1"/>
        <pt x="865" y="-240" on="0"/>
        <pt x="892" y="-228" on="0"/>
        <pt x="915" y="-209" on="0"/>
        <pt x="932" y="-187" on="0"/>
        <pt x="940" y="-176" on="1"/>
        <pt x="946" y="-169" on="0"/>
        <pt x="952" y="-169" on="1"/>
        <pt x="962" y="-169" on="0"/>
        <pt x="962" y="-183" on="1"/>
        <pt x="962" y="-189" on="0"/>
        <pt x="949" y="-236" on="0"/>
        <pt x="914" y="-287" on="0"/>
        <pt x="854" y="-327" on="0"/>
      </contour>
    </TTGlyph>
    <TTGlyph name="Eth" xMin="30" yMin="-125" xMax="1240" yMax="1433">
      <contour>
        <pt x="1240" y="672" on="1"/>
        <pt x="1240" y="534" on="0"/>
        <pt x="1192" y="308" on="0"/>
        <pt x="1110" y="131" on="0"/>
        <pt x="1003" y="1" on="0"/>
        <pt x="886" y="-84" on="0"/>
        <pt x="766" y="-125" on="0"/>
        <pt x="712" y="-125" on="1"/>
        <pt x="671" y="-125" on="0"/>
        <pt x="596" y="-96" on="0"/>
        <pt x="540" y="-42" on="0"/>
        <pt x="507" y="35" on="0"/>
        <pt x="507" y="84" on="1"/>
        <pt x="507" y="104" on="0"/>
        <pt x="516" y="120" on="0"/>
        <pt x="524" y="120" on="1"/>
        <pt x="535" y="120" on="0"/>
        <pt x="542" y="100" on="1"/>
        <pt x="562" y="41" on="0"/>
        <pt x="641" y="-21" on="0"/>
        <pt x="699" y="-21" on="1"/>
        <pt x="775" y="-21" on="0"/>
        <pt x="898" y="80" on="0"/>
        <pt x="985" y="272" on="0"/>
        <pt x="1033" y="552" on="0"/>
        <pt x="1033" y="732" on="1"/>
        <pt x="1033" y="849" on="0"/>
        <pt x="982" y="1046" on="0"/>
        <pt x="875" y="1189" on="0"/>
        <pt x="710" y="1269" on="0"/>
        <pt x="595" y="1269" on="1"/>
        <pt x="524" y="1269" on="0"/>
        <pt x="379" y="1233" on="0"/>
        <pt x="262" y="1159" on="0"/>
        <pt x="188" y="1043" on="0"/>
        <pt x="188" y="964" on="1"/>
        <pt x="188" y="920" on="0"/>
        <pt x="212" y="838" on="0"/>
        <pt x="244" y="770" on="0"/>
        <pt x="275" y="722" on="0"/>
        <pt x="282" y="713" on="1"/>
        <pt x="292" y="700" on="0"/>
        <pt x="292" y="688" on="1"/>
        <pt x="292" y="680" on="0"/>
        <pt x="279" y="668" on="0"/>
        <pt x="262" y="668" on="1"/>
        <pt x="257" y="668" on="0"/>
        <pt x="247" y="668" on="0"/>
        <pt x="241" y="670" on="1"/>
        <pt x="221" y="673" on="0"/>
        <pt x="150" y="709" on="0"/>
        <pt x="81" y="777" on="0"/>
        <pt x="30" y="878" on="0"/>
        <pt x="30" y="947" on="1"/>
        <pt x="30" y="993" on="0"/>
        <pt x="63" y="1102" on="0"/>
        <pt x="128" y="1210" on="0"/>
        <pt x="226" y="1310" on="0"/>
        <pt x="355" y="1387" on="0"/>
        <pt x="516" y="1433" on="0"/>
        <pt x="612" y="1433" on="1"/>
        <pt x="752" y="1433" on="0"/>
        <pt x="953" y="1352" on="0"/>
        <pt x="1093" y="1221" on="0"/>
        <pt x="1178" y="1055" on="0"/>
        <pt x="1225" y="886" on="0"/>
        <pt x="1240" y="729" on="0"/>
      </contour>
      <contour>
        <pt x="733" y="561" on="1"/>
        <pt x="730" y="553" on="0"/>
        <pt x="730" y="545" on="1"/>
        <pt x="730" y="531" on="0"/>
        <pt x="727" y="518" on="0"/>
        <pt x="727" y="503" on="1"/>
        <pt x="727" y="487" on="1"/>
        <pt x="727" y="478" on="0"/>
        <pt x="708" y="461" on="0"/>
        <pt x="658" y="447" on="0"/>
        <pt x="569" y="436" on="0"/>
        <pt x="500" y="435" on="1"/>
        <pt x="497" y="372" on="0"/>
        <pt x="495" y="275" on="0"/>
        <pt x="495" y="246" on="1"/>
        <pt x="495" y="146" on="0"/>
        <pt x="493" y="29" on="0"/>
        <pt x="493" y="-2" on="1"/>
        <pt x="493" y="-6" on="0"/>
        <pt x="493" y="-20" on="0"/>
        <pt x="489" y="-33" on="0"/>
        <pt x="480" y="-43" on="0"/>
        <pt x="472" y="-43" on="1"/>
        <pt x="459" y="-43" on="0"/>
        <pt x="437" y="-33" on="0"/>
        <pt x="417" y="-20" on="0"/>
        <pt x="398" y="-10" on="0"/>
        <pt x="389" y="-10" on="1"/>
        <pt x="378" y="-10" on="0"/>
        <pt x="364" y="-24" on="0"/>
        <pt x="354" y="-24" on="1"/>
        <pt x="342" y="-24" on="0"/>
        <pt x="328" y="-12" on="0"/>
        <pt x="322" y="6" on="0"/>
        <pt x="321" y="26" on="0"/>
        <pt x="321" y="34" on="1"/>
        <pt x="321" y="72" on="0"/>
        <pt x="326" y="219" on="0"/>
        <pt x="331" y="319" on="1"/>
        <pt x="332" y="346" on="0"/>
        <pt x="336" y="405" on="0"/>
        <pt x="338" y="436" on="1"/>
        <pt x="300" y="437" on="0"/>
        <pt x="232" y="439" on="0"/>
        <pt x="179" y="441" on="0"/>
        <pt x="147" y="444" on="0"/>
        <pt x="145" y="446" on="1"/>
        <pt x="140" y="450" on="0"/>
        <pt x="137" y="465" on="0"/>
        <pt x="137" y="476" on="1"/>
        <pt x="137" y="484" on="0"/>
        <pt x="138" y="490" on="0"/>
        <pt x="141" y="495" on="0"/>
        <pt x="146" y="504" on="0"/>
        <pt x="149" y="515" on="1"/>
        <pt x="152" y="525" on="0"/>
        <pt x="165" y="536" on="0"/>
        <pt x="182" y="538" on="1"/>
        <pt x="347" y="553" on="1"/>
        <pt x="353" y="622" on="0"/>
        <pt x="366" y="755" on="0"/>
        <pt x="378" y="864" on="0"/>
        <pt x="387" y="942" on="0"/>
        <pt x="390" y="956" on="1"/>
        <pt x="397" y="1000" on="0"/>
        <pt x="412" y="1062" on="0"/>
        <pt x="421" y="1073" on="1"/>
        <pt x="428" y="1082" on="0"/>
        <pt x="438" y="1089" on="1"/>
        <pt x="446" y="1095" on="0"/>
        <pt x="470" y="1106" on="0"/>
        <pt x="485" y="1106" on="1"/>
        <pt x="495" y="1128" on="0"/>
        <pt x="531" y="1155" on="0"/>
        <pt x="554" y="1155" on="1"/>
        <pt x="562" y="1155" on="0"/>
        <pt x="588" y="1145" on="0"/>
        <pt x="588" y="1134" on="1"/>
        <pt x="588" y="1126" on="0"/>
        <pt x="585" y="1113" on="0"/>
        <pt x="583" y="1102" on="1"/>
        <pt x="568" y="1035" on="0"/>
        <pt x="545" y="897" on="0"/>
        <pt x="527" y="761" on="0"/>
        <pt x="514" y="629" on="0"/>
        <pt x="510" y="569" on="1"/>
        <pt x="585" y="577" on="0"/>
        <pt x="691" y="587" on="0"/>
        <pt x="708" y="587" on="1"/>
        <pt x="719" y="587" on="0"/>
        <pt x="734" y="575" on="0"/>
        <pt x="734" y="567" on="1"/>
        <pt x="734" y="563" on="0"/>
      </contour>
    </TTGlyph>
    <TTGlyph name="Euro" xMin="24" yMin="-2" xMax="1038" yMax="1436">
      <contour>
        <pt x="598" y="663" on="1"/>
        <pt x="611" y="663" on="0"/>
        <pt x="629" y="652" on="0"/>
        <pt x="629" y="644" on="1"/>
        <pt x="629" y="636" on="0"/>
        <pt x="624" y="627" on="0"/>
        <pt x="624" y="618" on="1"/>
        <pt x="624" y="613" on="0"/>
        <pt x="623" y="605" on="0"/>
        <pt x="621" y="597" on="1"/>
        <pt x="620" y="593" on="0"/>
        <pt x="620" y="580" on="0"/>
        <pt x="620" y="579" on="1"/>
        <pt x="620" y="570" on="0"/>
        <pt x="607" y="560" on="0"/>
        <pt x="556" y="554" on="0"/>
        <pt x="456" y="553" on="0"/>
        <pt x="369" y="553" on="1"/>
        <pt x="326" y="553" on="1"/>
        <pt x="339" y="439" on="0"/>
        <pt x="407" y="278" on="0"/>
        <pt x="498" y="176" on="0"/>
        <pt x="604" y="130" on="0"/>
        <pt x="654" y="130" on="1"/>
        <pt x="719" y="130" on="0"/>
        <pt x="824" y="186" on="0"/>
        <pt x="908" y="280" on="0"/>
        <pt x="971" y="404" on="0"/>
        <pt x="994" y="473" on="1"/>
        <pt x="999" y="486" on="0"/>
        <pt x="1016" y="498" on="0"/>
        <pt x="1024" y="498" on="1"/>
        <pt x="1038" y="498" on="0"/>
        <pt x="1038" y="482" on="1"/>
        <pt x="1038" y="475" on="0"/>
        <pt x="1022" y="423" on="0"/>
        <pt x="995" y="351" on="0"/>
        <pt x="957" y="268" on="0"/>
        <pt x="935" y="230" on="1"/>
        <pt x="868" y="115" on="0"/>
        <pt x="694" y="-2" on="0"/>
        <pt x="576" y="-2" on="1"/>
        <pt x="475" y="-2" on="0"/>
        <pt x="319" y="85" on="0"/>
        <pt x="210" y="235" on="0"/>
        <pt x="149" y="435" on="0"/>
        <pt x="144" y="548" on="1"/>
        <pt x="94" y="546" on="0"/>
        <pt x="36" y="546" on="0"/>
        <pt x="33" y="550" on="1"/>
        <pt x="30" y="552" on="0"/>
        <pt x="27" y="572" on="0"/>
        <pt x="27" y="583" on="1"/>
        <pt x="27" y="586" on="0"/>
        <pt x="25" y="599" on="0"/>
        <pt x="24" y="615" on="0"/>
        <pt x="26" y="631" on="0"/>
        <pt x="29" y="637" on="1"/>
        <pt x="33" y="643" on="0"/>
        <pt x="46" y="654" on="0"/>
        <pt x="63" y="654" on="1"/>
        <pt x="144" y="658" on="1"/>
        <pt x="146" y="686" on="0"/>
        <pt x="151" y="738" on="0"/>
        <pt x="154" y="764" on="1"/>
        <pt x="101" y="762" on="0"/>
        <pt x="40" y="762" on="0"/>
        <pt x="37" y="766" on="1"/>
        <pt x="34" y="768" on="0"/>
        <pt x="31" y="788" on="0"/>
        <pt x="31" y="799" on="1"/>
        <pt x="31" y="805" on="0"/>
        <pt x="32" y="835" on="0"/>
        <pt x="39" y="847" on="1"/>
        <pt x="43" y="853" on="0"/>
        <pt x="56" y="864" on="0"/>
        <pt x="73" y="864" on="1"/>
        <pt x="77" y="864" on="0"/>
        <pt x="130" y="871" on="0"/>
        <pt x="175" y="875" on="1"/>
        <pt x="196" y="960" on="0"/>
        <pt x="257" y="1101" on="0"/>
        <pt x="327" y="1213" on="0"/>
        <pt x="400" y="1295" on="0"/>
        <pt x="432" y="1322" on="1"/>
        <pt x="456" y="1341" on="0"/>
        <pt x="520" y="1382" on="0"/>
        <pt x="597" y="1415" on="0"/>
        <pt x="683" y="1436" on="0"/>
        <pt x="729" y="1436" on="1"/>
        <pt x="797" y="1436" on="0"/>
        <pt x="908" y="1399" on="0"/>
        <pt x="987" y="1333" on="0"/>
        <pt x="1030" y="1243" on="0"/>
        <pt x="1030" y="1191" on="1"/>
        <pt x="1030" y="1152" on="0"/>
        <pt x="1010" y="1074" on="0"/>
        <pt x="989" y="1037" on="1"/>
        <pt x="969" y="1002" on="0"/>
        <pt x="916" y="951" on="0"/>
        <pt x="859" y="917" on="0"/>
        <pt x="805" y="900" on="0"/>
        <pt x="783" y="900" on="1"/>
        <pt x="763" y="900" on="0"/>
        <pt x="742" y="916" on="0"/>
        <pt x="742" y="928" on="1"/>
        <pt x="742" y="942" on="0"/>
        <pt x="755" y="952" on="1"/>
        <pt x="763" y="956" on="0"/>
        <pt x="797" y="984" on="0"/>
        <pt x="830" y="1034" on="0"/>
        <pt x="855" y="1109" on="0"/>
        <pt x="855" y="1160" on="1"/>
        <pt x="855" y="1205" on="0"/>
        <pt x="820" y="1267" on="0"/>
        <pt x="763" y="1304" on="0"/>
        <pt x="693" y="1320" on="0"/>
        <pt x="657" y="1320" on="1"/>
        <pt x="596" y="1320" on="0"/>
        <pt x="491" y="1255" on="0"/>
        <pt x="409" y="1138" on="0"/>
        <pt x="350" y="977" on="0"/>
        <pt x="335" y="881" on="1"/>
        <pt x="421" y="881" on="0"/>
        <pt x="533" y="880" on="0"/>
        <pt x="602" y="879" on="0"/>
        <pt x="638" y="878" on="0"/>
        <pt x="648" y="878" on="1"/>
        <pt x="661" y="878" on="0"/>
        <pt x="679" y="867" on="0"/>
        <pt x="679" y="859" on="1"/>
        <pt x="679" y="855" on="0"/>
        <pt x="678" y="854" on="1"/>
        <pt x="674" y="851" on="0"/>
        <pt x="674" y="844" on="1"/>
        <pt x="674" y="839" on="0"/>
        <pt x="678" y="828" on="0"/>
        <pt x="678" y="823" on="1"/>
        <pt x="678" y="818" on="0"/>
        <pt x="673" y="815" on="0"/>
        <pt x="671" y="807" on="1"/>
        <pt x="670" y="803" on="0"/>
        <pt x="670" y="785" on="0"/>
        <pt x="670" y="784" on="1"/>
        <pt x="670" y="775" on="0"/>
        <pt x="642" y="768" on="0"/>
        <pt x="575" y="766" on="0"/>
        <pt x="461" y="768" on="0"/>
        <pt x="374" y="768" on="1"/>
        <pt x="323" y="768" on="1"/>
        <pt x="320" y="723" on="0"/>
        <pt x="320" y="678" on="1"/>
        <pt x="320" y="665" on="1"/>
        <pt x="340" y="665" on="0"/>
        <pt x="378" y="666" on="0"/>
        <pt x="397" y="666" on="1"/>
        <pt x="428" y="666" on="0"/>
        <pt x="491" y="665" on="0"/>
        <pt x="546" y="664" on="0"/>
        <pt x="588" y="663" on="0"/>
      </contour>
    </TTGlyph>
    <TTGlyph name="F" xMin="30" yMin="-342" xMax="1223" yMax="1443">
      <contour>
        <pt x="626" y="1153" on="1"/>
        <pt x="626" y="1148" on="0"/>
        <pt x="624" y="1095" on="0"/>
        <pt x="620" y="1010" on="0"/>
        <pt x="615" y="899" on="0"/>
        <pt x="608" y="772" on="0"/>
        <pt x="601" y="634" on="0"/>
        <pt x="598" y="565" on="1"/>
        <pt x="655" y="564" on="0"/>
        <pt x="752" y="553" on="0"/>
        <pt x="790" y="547" on="1"/>
        <pt x="823" y="541" on="0"/>
        <pt x="864" y="531" on="0"/>
        <pt x="889" y="522" on="0"/>
        <pt x="902" y="511" on="0"/>
        <pt x="907" y="504" on="1"/>
        <pt x="911" y="498" on="0"/>
        <pt x="926" y="489" on="0"/>
        <pt x="940" y="480" on="0"/>
        <pt x="950" y="470" on="0"/>
        <pt x="950" y="463" on="1"/>
        <pt x="950" y="455" on="0"/>
        <pt x="939" y="442" on="0"/>
        <pt x="931" y="440" on="1"/>
        <pt x="922" y="437" on="0"/>
        <pt x="856" y="433" on="0"/>
        <pt x="788" y="430" on="1"/>
        <pt x="751" y="428" on="0"/>
        <pt x="647" y="426" on="0"/>
        <pt x="591" y="424" on="1"/>
        <pt x="588" y="363" on="0"/>
        <pt x="581" y="253" on="0"/>
        <pt x="576" y="164" on="0"/>
        <pt x="572" y="102" on="0"/>
        <pt x="571" y="88" on="1"/>
        <pt x="568" y="49" on="0"/>
        <pt x="539" y="-60" on="0"/>
        <pt x="476" y="-177" on="0"/>
        <pt x="374" y="-291" on="0"/>
        <pt x="296" y="-335" on="1"/>
        <pt x="282" y="-342" on="0"/>
        <pt x="275" y="-342" on="1"/>
        <pt x="260" y="-342" on="0"/>
        <pt x="260" y="-330" on="1"/>
        <pt x="260" y="-322" on="0"/>
        <pt x="271" y="-309" on="1"/>
        <pt x="306" y="-272" on="0"/>
        <pt x="352" y="-201" on="0"/>
        <pt x="381" y="-111" on="0"/>
        <pt x="396" y="8" on="0"/>
        <pt x="401" y="92" on="1"/>
        <pt x="402" y="116" on="0"/>
        <pt x="404" y="160" on="1"/>
        <pt x="406" y="198" on="0"/>
        <pt x="412" y="323" on="0"/>
        <pt x="417" y="420" on="1"/>
        <pt x="348" y="418" on="0"/>
        <pt x="283" y="409" on="0"/>
        <pt x="276" y="406" on="1"/>
        <pt x="270" y="404" on="0"/>
        <pt x="269" y="395" on="0"/>
        <pt x="267" y="386" on="0"/>
        <pt x="261" y="379" on="0"/>
        <pt x="251" y="379" on="1"/>
        <pt x="244" y="379" on="0"/>
        <pt x="223" y="385" on="0"/>
        <pt x="204" y="396" on="0"/>
        <pt x="190" y="411" on="0"/>
        <pt x="190" y="420" on="1"/>
        <pt x="190" y="437" on="0"/>
        <pt x="211" y="460" on="1"/>
        <pt x="216" y="465" on="0"/>
        <pt x="243" y="489" on="0"/>
        <pt x="293" y="516" on="0"/>
        <pt x="369" y="543" on="0"/>
        <pt x="424" y="552" on="1"/>
        <pt x="450" y="1034" on="1"/>
        <pt x="451" y="1047" on="0"/>
        <pt x="455" y="1082" on="0"/>
        <pt x="468" y="1115" on="0"/>
        <pt x="495" y="1142" on="0"/>
        <pt x="519" y="1147" on="1"/>
        <pt x="537" y="1151" on="0"/>
        <pt x="565" y="1170" on="0"/>
        <pt x="588" y="1190" on="0"/>
        <pt x="607" y="1206" on="0"/>
        <pt x="615" y="1206" on="1"/>
        <pt x="619" y="1206" on="0"/>
        <pt x="624" y="1196" on="0"/>
        <pt x="626" y="1180" on="0"/>
        <pt x="626" y="1161" on="0"/>
      </contour>
      <contour>
        <pt x="1214" y="1362" on="1"/>
        <pt x="1212" y="1351" on="0"/>
        <pt x="1199" y="1337" on="0"/>
        <pt x="1185" y="1323" on="0"/>
        <pt x="1172" y="1309" on="0"/>
        <pt x="1171" y="1298" on="1"/>
        <pt x="1168" y="1275" on="0"/>
        <pt x="1126" y="1246" on="0"/>
        <pt x="1098" y="1246" on="1"/>
        <pt x="1074" y="1246" on="0"/>
        <pt x="962" y="1252" on="0"/>
        <pt x="890" y="1252" on="1"/>
        <pt x="810" y="1252" on="0"/>
        <pt x="641" y="1240" on="0"/>
        <pt x="481" y="1214" on="0"/>
        <pt x="340" y="1172" on="0"/>
        <pt x="234" y="1111" on="0"/>
        <pt x="172" y="1031" on="0"/>
        <pt x="172" y="980" on="1"/>
        <pt x="172" y="908" on="0"/>
        <pt x="220" y="798" on="0"/>
        <pt x="279" y="720" on="0"/>
        <pt x="327" y="674" on="0"/>
        <pt x="327" y="666" on="1"/>
        <pt x="327" y="657" on="0"/>
        <pt x="301" y="643" on="0"/>
        <pt x="276" y="643" on="1"/>
        <pt x="220" y="643" on="0"/>
        <pt x="130" y="692" on="0"/>
        <pt x="65" y="773" on="0"/>
        <pt x="30" y="877" on="0"/>
        <pt x="30" y="933" on="1"/>
        <pt x="30" y="1019" on="0"/>
        <pt x="111" y="1172" on="0"/>
        <pt x="254" y="1294" on="0"/>
        <pt x="446" y="1382" on="0"/>
        <pt x="557" y="1403" on="1"/>
        <pt x="688" y="1428" on="0"/>
        <pt x="908" y="1443" on="0"/>
        <pt x="995" y="1443" on="1"/>
        <pt x="1075" y="1443" on="0"/>
        <pt x="1167" y="1432" on="0"/>
        <pt x="1212" y="1416" on="0"/>
        <pt x="1223" y="1397" on="0"/>
        <pt x="1223" y="1389" on="1"/>
        <pt x="1223" y="1383" on="0"/>
        <pt x="1216" y="1371" on="0"/>
      </contour>
    </TTGlyph>
    <TTGlyph name="G" xMin="65" yMin="-342" xMax="1148" yMax="1415">
      <contour>
        <pt x="1148" y="1067" on="1"/>
        <pt x="1148" y="1014" on="0"/>
        <pt x="1121" y="909" on="0"/>
        <pt x="1092" y="858" on="1"/>
        <pt x="1065" y="811" on="0"/>
        <pt x="988" y="740" on="0"/>
        <pt x="908" y="693" on="0"/>
        <pt x="833" y="670" on="0"/>
        <pt x="807" y="670" on="1"/>
        <pt x="784" y="670" on="0"/>
        <pt x="747" y="681" on="0"/>
        <pt x="747" y="697" on="1"/>
        <pt x="747" y="704" on="0"/>
        <pt x="758" y="715" on="0"/>
        <pt x="773" y="723" on="1"/>
        <pt x="789" y="730" on="0"/>
        <pt x="852" y="772" on="0"/>
        <pt x="915" y="848" on="0"/>
        <pt x="963" y="960" on="0"/>
        <pt x="963" y="1038" on="1"/>
        <pt x="963" y="1109" on="0"/>
        <pt x="918" y="1210" on="0"/>
        <pt x="846" y="1273" on="0"/>
        <pt x="756" y="1302" on="0"/>
        <pt x="711" y="1302" on="1"/>
        <pt x="650" y="1302" on="0"/>
        <pt x="535" y="1245" on="0"/>
        <pt x="433" y="1140" on="0"/>
        <pt x="349" y="994" on="0"/>
        <pt x="289" y="814" on="0"/>
        <pt x="255" y="606" on="0"/>
        <pt x="255" y="493" on="1"/>
        <pt x="255" y="365" on="0"/>
        <pt x="311" y="188" on="0"/>
        <pt x="400" y="78" on="0"/>
        <pt x="511" y="29" on="0"/>
        <pt x="565" y="29" on="1"/>
        <pt x="612" y="29" on="0"/>
        <pt x="698" y="65" on="0"/>
        <pt x="767" y="125" on="0"/>
        <pt x="817" y="203" on="0"/>
        <pt x="828" y="246" on="1"/>
        <pt x="831" y="258" on="0"/>
        <pt x="837" y="300" on="0"/>
        <pt x="844" y="349" on="0"/>
        <pt x="852" y="401" on="0"/>
        <pt x="861" y="446" on="0"/>
        <pt x="869" y="478" on="0"/>
        <pt x="873" y="483" on="1"/>
        <pt x="877" y="487" on="0"/>
        <pt x="885" y="491" on="1"/>
        <pt x="892" y="494" on="0"/>
        <pt x="914" y="500" on="0"/>
        <pt x="931" y="500" on="1"/>
        <pt x="935" y="500" on="0"/>
        <pt x="942" y="499" on="0"/>
        <pt x="946" y="499" on="1"/>
        <pt x="948" y="499" on="0"/>
        <pt x="953" y="505" on="0"/>
        <pt x="955" y="509" on="1"/>
        <pt x="958" y="513" on="0"/>
        <pt x="961" y="520" on="1"/>
        <pt x="964" y="526" on="0"/>
        <pt x="977" y="538" on="0"/>
        <pt x="994" y="548" on="0"/>
        <pt x="1012" y="555" on="0"/>
        <pt x="1020" y="555" on="1"/>
        <pt x="1029" y="555" on="0"/>
        <pt x="1041" y="546" on="0"/>
        <pt x="1041" y="535" on="1"/>
        <pt x="1041" y="532" on="0"/>
        <pt x="1040" y="525" on="0"/>
        <pt x="1039" y="520" on="1"/>
        <pt x="1035" y="496" on="0"/>
        <pt x="1021" y="394" on="0"/>
        <pt x="1007" y="271" on="0"/>
        <pt x="997" y="141" on="0"/>
        <pt x="996" y="88" on="1"/>
        <pt x="995" y="49" on="0"/>
        <pt x="971" y="-60" on="0"/>
        <pt x="913" y="-178" on="0"/>
        <pt x="813" y="-292" on="0"/>
        <pt x="736" y="-336" on="1"/>
        <pt x="724" y="-342" on="0"/>
        <pt x="715" y="-342" on="1"/>
        <pt x="700" y="-342" on="0"/>
        <pt x="700" y="-329" on="1"/>
        <pt x="700" y="-324" on="0"/>
        <pt x="706" y="-315" on="0"/>
        <pt x="711" y="-309" on="1"/>
        <pt x="744" y="-270" on="0"/>
        <pt x="788" y="-199" on="0"/>
        <pt x="815" y="-110" on="0"/>
        <pt x="826" y="7" on="0"/>
        <pt x="826" y="92" on="1"/>
        <pt x="826" y="106" on="1"/>
        <pt x="799" y="53" on="0"/>
        <pt x="726" y="-32" on="0"/>
        <pt x="638" y="-92" on="0"/>
        <pt x="538" y="-124" on="0"/>
        <pt x="484" y="-124" on="1"/>
        <pt x="400" y="-124" on="0"/>
        <pt x="249" y="-54" on="0"/>
        <pt x="133" y="90" on="0"/>
        <pt x="65" y="309" on="0"/>
        <pt x="65" y="458" on="1"/>
        <pt x="65" y="575" on="0"/>
        <pt x="114" y="808" on="0"/>
        <pt x="206" y="1021" on="0"/>
        <pt x="336" y="1204" on="0"/>
        <pt x="498" y="1338" on="0"/>
        <pt x="689" y="1415" on="0"/>
        <pt x="796" y="1415" on="1"/>
        <pt x="877" y="1415" on="0"/>
        <pt x="1007" y="1361" on="0"/>
        <pt x="1099" y="1267" on="0"/>
        <pt x="1148" y="1140" on="0"/>
      </contour>
    </TTGlyph>
    <TTGlyph name="Gbreve" xMin="65" yMin="-342" xMax="1148" yMax="1754">
      <component glyphName="G" x="0" y="0" flags="0x204"/>
      <component glyphName="breve" x="567" y="736" flags="0x4"/>
    </TTGlyph>
    <TTGlyph name="Gcircumflex" xMin="65" yMin="-342" xMax="1148" yMax="1763">
      <component glyphName="G" x="0" y="0" flags="0x204"/>
      <component glyphName="circumflex" x="544" y="736" flags="0x4"/>
    </TTGlyph>
    <TTGlyph name="Gcommaaccent" xMin="65" yMin="-612" xMax="1148" yMax="1415">
      <component glyphName="G" x="0" y="0" flags="0x204"/>
      <component glyphName="commaaccent" x="284" y="-139" flags="0x4"/>
    </TTGlyph>
    <TTGlyph name="Gdotaccent" xMin="65" yMin="-342" xMax="1148" yMax="1741">
      <component glyphName="G" x="0" y="0" flags="0x204"/>
      <component glyphName="dotaccent" x="564" y="736" flags="0x4"/>
    </TTGlyph>
    <TTGlyph name="H" xMin="21" yMin="-417" xMax="1395" yMax="1498">
      <contour>
        <pt x="701" y="1370" on="1"/>
        <pt x="700" y="1365" on="0"/>
        <pt x="695" y="1292" on="0"/>
        <pt x="687" y="1173" on="0"/>
        <pt x="676" y="1015" on="0"/>
        <pt x="665" y="836" on="0"/>
        <pt x="653" y="644" on="0"/>
        <pt x="647" y="550" on="1"/>
        <pt x="708" y="506" on="1"/>
        <pt x="810" y="530" on="0"/>
        <pt x="1022" y="586" on="0"/>
        <pt x="1114" y="612" on="1"/>
        <pt x="1166" y="1362" on="1"/>
        <pt x="1167" y="1377" on="0"/>
        <pt x="1170" y="1397" on="0"/>
        <pt x="1177" y="1411" on="0"/>
        <pt x="1190" y="1419" on="0"/>
        <pt x="1201" y="1421" on="1"/>
        <pt x="1212" y="1423" on="0"/>
        <pt x="1223" y="1434" on="0"/>
        <pt x="1230" y="1446" on="0"/>
        <pt x="1239" y="1457" on="0"/>
        <pt x="1248" y="1460" on="1"/>
        <pt x="1257" y="1463" on="0"/>
        <pt x="1278" y="1475" on="0"/>
        <pt x="1298" y="1488" on="0"/>
        <pt x="1316" y="1498" on="0"/>
        <pt x="1324" y="1498" on="1"/>
        <pt x="1335" y="1498" on="0"/>
        <pt x="1352" y="1480" on="0"/>
        <pt x="1352" y="1465" on="1"/>
        <pt x="1352" y="1458" on="0"/>
        <pt x="1347" y="1387" on="0"/>
        <pt x="1339" y="1272" on="0"/>
        <pt x="1328" y="1120" on="0"/>
        <pt x="1315" y="947" on="0"/>
        <pt x="1300" y="759" on="0"/>
        <pt x="1293" y="665" on="1"/>
        <pt x="1318" y="673" on="0"/>
        <pt x="1351" y="685" on="0"/>
        <pt x="1358" y="688" on="1"/>
        <pt x="1374" y="695" on="0"/>
        <pt x="1379" y="695" on="1"/>
        <pt x="1387" y="695" on="0"/>
        <pt x="1395" y="685" on="0"/>
        <pt x="1395" y="677" on="1"/>
        <pt x="1395" y="669" on="0"/>
        <pt x="1387" y="649" on="0"/>
        <pt x="1377" y="643" on="1"/>
        <pt x="1371" y="638" on="0"/>
        <pt x="1326" y="621" on="0"/>
        <pt x="1289" y="607" on="1"/>
        <pt x="1280" y="491" on="0"/>
        <pt x="1264" y="279" on="0"/>
        <pt x="1251" y="114" on="0"/>
        <pt x="1243" y="13" on="0"/>
        <pt x="1242" y="8" on="1"/>
        <pt x="1239" y="-18" on="0"/>
        <pt x="1214" y="-38" on="0"/>
        <pt x="1192" y="-38" on="1"/>
        <pt x="1179" y="-38" on="0"/>
        <pt x="1153" y="-21" on="0"/>
        <pt x="1118" y="13" on="0"/>
        <pt x="1072" y="62" on="0"/>
        <pt x="1039" y="94" on="1"/>
        <pt x="980" y="151" on="0"/>
        <pt x="887" y="236" on="0"/>
        <pt x="804" y="308" on="0"/>
        <pt x="725" y="372" on="0"/>
        <pt x="679" y="408" on="1"/>
        <pt x="668" y="404" on="0"/>
        <pt x="647" y="398" on="0"/>
        <pt x="636" y="395" on="1"/>
        <pt x="631" y="315" on="0"/>
        <pt x="621" y="174" on="0"/>
        <pt x="614" y="63" on="0"/>
        <pt x="608" y="-12" on="0"/>
        <pt x="607" y="-25" on="1"/>
        <pt x="603" y="-63" on="0"/>
        <pt x="580" y="-162" on="0"/>
        <pt x="523" y="-267" on="0"/>
        <pt x="421" y="-369" on="0"/>
        <pt x="337" y="-411" on="1"/>
        <pt x="332" y="-413" on="0"/>
        <pt x="322" y="-417" on="0"/>
        <pt x="315" y="-417" on="1"/>
        <pt x="306" y="-417" on="0"/>
        <pt x="297" y="-405" on="0"/>
        <pt x="297" y="-397" on="1"/>
        <pt x="297" y="-389" on="0"/>
        <pt x="305" y="-373" on="0"/>
        <pt x="314" y="-367" on="1"/>
        <pt x="325" y="-359" on="0"/>
        <pt x="359" y="-331" on="0"/>
        <pt x="393" y="-281" on="0"/>
        <pt x="419" y="-206" on="0"/>
        <pt x="422" y="-152" on="1"/>
        <pt x="425" y="-126" on="0"/>
        <pt x="429" y="-64" on="1"/>
        <pt x="433" y="-11" on="0"/>
        <pt x="445" y="188" on="0"/>
        <pt x="455" y="352" on="1"/>
        <pt x="428" y="348" on="0"/>
        <pt x="377" y="345" on="0"/>
        <pt x="353" y="345" on="1"/>
        <pt x="272" y="345" on="0"/>
        <pt x="148" y="383" on="0"/>
        <pt x="64" y="447" on="0"/>
        <pt x="21" y="530" on="0"/>
        <pt x="21" y="576" on="1"/>
        <pt x="21" y="621" on="0"/>
        <pt x="49" y="686" on="0"/>
        <pt x="98" y="728" on="0"/>
        <pt x="164" y="748" on="0"/>
        <pt x="201" y="748" on="1"/>
        <pt x="261" y="748" on="0"/>
        <pt x="400" y="704" on="0"/>
        <pt x="473" y="665" on="1"/>
        <pt x="508" y="1317" on="1"/>
        <pt x="510" y="1349" on="0"/>
        <pt x="551" y="1377" on="0"/>
        <pt x="583" y="1377" on="1"/>
        <pt x="591" y="1377" on="0"/>
        <pt x="593" y="1375" on="0"/>
        <pt x="596" y="1375" on="1"/>
        <pt x="603" y="1375" on="0"/>
        <pt x="616" y="1384" on="0"/>
        <pt x="629" y="1396" on="0"/>
        <pt x="640" y="1405" on="0"/>
        <pt x="646" y="1405" on="1"/>
        <pt x="656" y="1405" on="0"/>
        <pt x="678" y="1421" on="0"/>
        <pt x="689" y="1421" on="1"/>
        <pt x="704" y="1421" on="0"/>
        <pt x="704" y="1402" on="1"/>
        <pt x="704" y="1391" on="0"/>
      </contour>
      <contour>
        <pt x="794" y="443" on="1"/>
        <pt x="869" y="386" on="0"/>
        <pt x="1012" y="268" on="0"/>
        <pt x="1085" y="195" on="1"/>
        <pt x="1109" y="545" on="1"/>
        <pt x="1040" y="522" on="0"/>
        <pt x="881" y="471" on="0"/>
      </contour>
      <contour>
        <pt x="423" y="460" on="1"/>
        <pt x="432" y="460" on="0"/>
        <pt x="451" y="460" on="0"/>
        <pt x="461" y="461" on="1"/>
        <pt x="467" y="563" on="1"/>
        <pt x="410" y="597" on="0"/>
        <pt x="322" y="627" on="0"/>
        <pt x="291" y="627" on="1"/>
        <pt x="256" y="627" on="0"/>
        <pt x="218" y="595" on="0"/>
        <pt x="218" y="567" on="1"/>
        <pt x="218" y="548" on="0"/>
        <pt x="241" y="510" on="0"/>
        <pt x="290" y="479" on="0"/>
        <pt x="368" y="460" on="0"/>
      </contour>
    </TTGlyph>
    <TTGlyph name="Hbar" xMin="21" yMin="-417" xMax="1482" yMax="1498">
      <contour>
        <pt x="701" y="1370" on="1"/>
        <pt x="700" y="1365" on="0"/>
        <pt x="696" y="1302" on="0"/>
        <pt x="688" y="1199" on="0"/>
        <pt x="679" y="1062" on="0"/>
        <pt x="674" y="983" on="1"/>
        <pt x="826" y="988" on="0"/>
        <pt x="1055" y="996" on="0"/>
        <pt x="1141" y="1000" on="1"/>
        <pt x="1166" y="1362" on="1"/>
        <pt x="1167" y="1377" on="0"/>
        <pt x="1170" y="1397" on="0"/>
        <pt x="1177" y="1411" on="0"/>
        <pt x="1190" y="1419" on="0"/>
        <pt x="1201" y="1421" on="1"/>
        <pt x="1212" y="1423" on="0"/>
        <pt x="1223" y="1434" on="0"/>
        <pt x="1230" y="1446" on="0"/>
        <pt x="1239" y="1457" on="0"/>
        <pt x="1248" y="1460" on="1"/>
        <pt x="1257" y="1463" on="0"/>
        <pt x="1278" y="1475" on="0"/>
        <pt x="1298" y="1488" on="0"/>
        <pt x="1316" y="1498" on="0"/>
        <pt x="1324" y="1498" on="1"/>
        <pt x="1335" y="1498" on="0"/>
        <pt x="1352" y="1480" on="0"/>
        <pt x="1352" y="1465" on="1"/>
        <pt x="1352" y="1458" on="0"/>
        <pt x="1347" y="1382" on="0"/>
        <pt x="1338" y="1260" on="0"/>
        <pt x="1327" y="1100" on="0"/>
        <pt x="1320" y="1009" on="1"/>
        <pt x="1370" y="1011" on="0"/>
        <pt x="1435" y="1014" on="0"/>
        <pt x="1456" y="1014" on="1"/>
        <pt x="1467" y="1014" on="0"/>
        <pt x="1482" y="1002" on="0"/>
        <pt x="1482" y="994" on="1"/>
        <pt x="1482" y="990" on="0"/>
        <pt x="1481" y="988" on="1"/>
        <pt x="1478" y="980" on="0"/>
        <pt x="1478" y="972" on="1"/>
        <pt x="1478" y="965" on="0"/>
        <pt x="1477" y="959" on="0"/>
        <pt x="1476" y="954" on="0"/>
        <pt x="1475" y="947" on="0"/>
        <pt x="1475" y="940" on="1"/>
        <pt x="1475" y="924" on="1"/>
        <pt x="1475" y="918" on="0"/>
        <pt x="1459" y="907" on="0"/>
        <pt x="1421" y="896" on="0"/>
        <pt x="1357" y="887" on="0"/>
        <pt x="1310" y="883" on="1"/>
        <pt x="1293" y="665" on="1"/>
        <pt x="1318" y="673" on="0"/>
        <pt x="1351" y="685" on="0"/>
        <pt x="1358" y="688" on="1"/>
        <pt x="1374" y="695" on="0"/>
        <pt x="1379" y="695" on="1"/>
        <pt x="1387" y="695" on="0"/>
        <pt x="1395" y="685" on="0"/>
        <pt x="1395" y="677" on="1"/>
        <pt x="1395" y="669" on="0"/>
        <pt x="1387" y="649" on="0"/>
        <pt x="1377" y="643" on="1"/>
        <pt x="1371" y="638" on="0"/>
        <pt x="1326" y="621" on="0"/>
        <pt x="1289" y="607" on="1"/>
        <pt x="1280" y="491" on="0"/>
        <pt x="1264" y="279" on="0"/>
        <pt x="1251" y="114" on="0"/>
        <pt x="1243" y="13" on="0"/>
        <pt x="1242" y="8" on="1"/>
        <pt x="1239" y="-18" on="0"/>
        <pt x="1214" y="-38" on="0"/>
        <pt x="1192" y="-38" on="1"/>
        <pt x="1179" y="-38" on="0"/>
        <pt x="1153" y="-21" on="0"/>
        <pt x="1118" y="13" on="0"/>
        <pt x="1072" y="62" on="0"/>
        <pt x="1039" y="94" on="1"/>
        <pt x="980" y="151" on="0"/>
        <pt x="887" y="236" on="0"/>
        <pt x="804" y="308" on="0"/>
        <pt x="725" y="372" on="0"/>
        <pt x="679" y="408" on="1"/>
        <pt x="668" y="404" on="0"/>
        <pt x="647" y="398" on="0"/>
        <pt x="636" y="395" on="1"/>
        <pt x="631" y="315" on="0"/>
        <pt x="621" y="174" on="0"/>
        <pt x="614" y="63" on="0"/>
        <pt x="608" y="-12" on="0"/>
        <pt x="607" y="-25" on="1"/>
        <pt x="603" y="-63" on="0"/>
        <pt x="580" y="-162" on="0"/>
        <pt x="523" y="-267" on="0"/>
        <pt x="421" y="-369" on="0"/>
        <pt x="337" y="-411" on="1"/>
        <pt x="332" y="-413" on="0"/>
        <pt x="322" y="-417" on="0"/>
        <pt x="315" y="-417" on="1"/>
        <pt x="306" y="-417" on="0"/>
        <pt x="297" y="-405" on="0"/>
        <pt x="297" y="-397" on="1"/>
        <pt x="297" y="-389" on="0"/>
        <pt x="305" y="-373" on="0"/>
        <pt x="314" y="-367" on="1"/>
        <pt x="325" y="-359" on="0"/>
        <pt x="359" y="-331" on="0"/>
        <pt x="393" y="-281" on="0"/>
        <pt x="419" y="-206" on="0"/>
        <pt x="422" y="-152" on="1"/>
        <pt x="425" y="-126" on="0"/>
        <pt x="429" y="-64" on="1"/>
        <pt x="433" y="-11" on="0"/>
        <pt x="445" y="188" on="0"/>
        <pt x="455" y="352" on="1"/>
        <pt x="428" y="348" on="0"/>
        <pt x="377" y="345" on="0"/>
        <pt x="353" y="345" on="1"/>
        <pt x="272" y="345" on="0"/>
        <pt x="148" y="383" on="0"/>
        <pt x="64" y="447" on="0"/>
        <pt x="21" y="530" on="0"/>
        <pt x="21" y="576" on="1"/>
        <pt x="21" y="621" on="0"/>
        <pt x="49" y="686" on="0"/>
        <pt x="98" y="728" on="0"/>
        <pt x="164" y="748" on="0"/>
        <pt x="201" y="748" on="1"/>
        <pt x="261" y="748" on="0"/>
        <pt x="400" y="704" on="0"/>
        <pt x="473" y="665" on="1"/>
        <pt x="484" y="876" on="1"/>
        <pt x="406" y="878" on="0"/>
        <pt x="306" y="881" on="0"/>
        <pt x="300" y="883" on="1"/>
        <pt x="295" y="887" on="0"/>
        <pt x="292" y="902" on="0"/>
        <pt x="292" y="913" on="1"/>
        <pt x="292" y="921" on="0"/>
        <pt x="293" y="927" on="0"/>
        <pt x="296" y="932" on="0"/>
        <pt x="301" y="941" on="0"/>
        <pt x="304" y="952" on="1"/>
        <pt x="307" y="962" on="0"/>
        <pt x="320" y="974" on="0"/>
        <pt x="337" y="975" on="1"/>
        <pt x="490" y="978" on="1"/>
        <pt x="508" y="1317" on="1"/>
        <pt x="510" y="1349" on="0"/>
        <pt x="551" y="1377" on="0"/>
        <pt x="583" y="1377" on="1"/>
        <pt x="591" y="1377" on="0"/>
        <pt x="593" y="1375" on="0"/>
        <pt x="596" y="1375" on="1"/>
        <pt x="603" y="1375" on="0"/>
        <pt x="616" y="1384" on="0"/>
        <pt x="629" y="1396" on="0"/>
        <pt x="640" y="1405" on="0"/>
        <pt x="646" y="1405" on="1"/>
        <pt x="656" y="1405" on="0"/>
        <pt x="678" y="1421" on="0"/>
        <pt x="689" y="1421" on="1"/>
        <pt x="704" y="1421" on="0"/>
        <pt x="704" y="1402" on="1"/>
        <pt x="704" y="1391" on="0"/>
      </contour>
      <contour>
        <pt x="940" y="872" on="1"/>
        <pt x="872" y="872" on="0"/>
        <pt x="734" y="872" on="0"/>
        <pt x="667" y="873" on="1"/>
        <pt x="647" y="550" on="1"/>
        <pt x="708" y="506" on="1"/>
        <pt x="810" y="530" on="0"/>
        <pt x="1022" y="586" on="0"/>
        <pt x="1114" y="612" on="1"/>
        <pt x="1132" y="874" on="1"/>
        <pt x="1090" y="873" on="0"/>
        <pt x="995" y="872" on="0"/>
      </contour>
      <contour>
        <pt x="794" y="443" on="1"/>
        <pt x="869" y="386" on="0"/>
        <pt x="1012" y="268" on="0"/>
        <pt x="1085" y="195" on="1"/>
        <pt x="1109" y="545" on="1"/>
        <pt x="1040" y="522" on="0"/>
        <pt x="881" y="471" on="0"/>
      </contour>
      <contour>
        <pt x="423" y="460" on="1"/>
        <pt x="432" y="460" on="0"/>
        <pt x="451" y="460" on="0"/>
        <pt x="461" y="461" on="1"/>
        <pt x="467" y="563" on="1"/>
        <pt x="410" y="597" on="0"/>
        <pt x="322" y="627" on="0"/>
        <pt x="291" y="627" on="1"/>
        <pt x="256" y="627" on="0"/>
        <pt x="218" y="595" on="0"/>
        <pt x="218" y="567" on="1"/>
        <pt x="218" y="548" on="0"/>
        <pt x="241" y="510" on="0"/>
        <pt x="290" y="479" on="0"/>
        <pt x="368" y="460" on="0"/>
      </contour>
    </TTGlyph>
    <TTGlyph name="Hcircumflex" xMin="21" yMin="-417" xMax="1395" yMax="1767">
      <component glyphName="H" x="0" y="0" flags="0x204"/>
      <component glyphName="circumflex" x="675" y="740" flags="0x4"/>
    </TTGlyph>
    <TTGlyph name="I" xMin="30" yMin="-128" xMax="636" yMax="1428">
      <contour>
        <pt x="636" y="1386" on="1"/>
        <pt x="636" y="1380" on="0"/>
        <pt x="634" y="1334" on="0"/>
        <pt x="631" y="1272" on="0"/>
        <pt x="627" y="1204" on="0"/>
        <pt x="626" y="1174" on="1"/>
        <pt x="626" y="1167" on="0"/>
        <pt x="622" y="1094" on="0"/>
        <pt x="616" y="982" on="0"/>
        <pt x="608" y="840" on="0"/>
        <pt x="600" y="690" on="0"/>
        <pt x="592" y="541" on="0"/>
        <pt x="585" y="416" on="0"/>
        <pt x="579" y="323" on="0"/>
        <pt x="577" y="303" on="1"/>
        <pt x="574" y="264" on="0"/>
        <pt x="545" y="155" on="0"/>
        <pt x="483" y="38" on="0"/>
        <pt x="381" y="-76" on="0"/>
        <pt x="303" y="-120" on="1"/>
        <pt x="298" y="-123" on="0"/>
        <pt x="285" y="-128" on="0"/>
        <pt x="280" y="-128" on="1"/>
        <pt x="267" y="-128" on="0"/>
        <pt x="267" y="-117" on="1"/>
        <pt x="267" y="-108" on="0"/>
        <pt x="278" y="-96" on="1"/>
        <pt x="313" y="-59" on="0"/>
        <pt x="359" y="17" on="0"/>
        <pt x="387" y="109" on="0"/>
        <pt x="401" y="227" on="0"/>
        <pt x="406" y="307" on="1"/>
        <pt x="412" y="378" on="0"/>
        <pt x="419" y="484" on="1"/>
        <pt x="425" y="574" on="0"/>
        <pt x="441" y="846" on="0"/>
        <pt x="450" y="1034" on="1"/>
        <pt x="451" y="1058" on="0"/>
        <pt x="454" y="1112" on="0"/>
        <pt x="456" y="1161" on="0"/>
        <pt x="458" y="1199" on="0"/>
        <pt x="458" y="1207" on="1"/>
        <pt x="458" y="1218" on="0"/>
        <pt x="447" y="1218" on="1"/>
        <pt x="431" y="1218" on="0"/>
        <pt x="378" y="1209" on="0"/>
        <pt x="317" y="1186" on="0"/>
        <pt x="256" y="1150" on="0"/>
        <pt x="206" y="1095" on="0"/>
        <pt x="175" y="1022" on="0"/>
        <pt x="175" y="974" on="1"/>
        <pt x="175" y="927" on="0"/>
        <pt x="198" y="849" on="0"/>
        <pt x="231" y="785" on="0"/>
        <pt x="271" y="734" on="0"/>
        <pt x="304" y="697" on="0"/>
        <pt x="327" y="672" on="0"/>
        <pt x="327" y="666" on="1"/>
        <pt x="327" y="657" on="0"/>
        <pt x="307" y="645" on="0"/>
        <pt x="282" y="645" on="1"/>
        <pt x="230" y="645" on="0"/>
        <pt x="138" y="691" on="0"/>
        <pt x="70" y="770" on="0"/>
        <pt x="30" y="874" on="0"/>
        <pt x="30" y="931" on="1"/>
        <pt x="30" y="1006" on="0"/>
        <pt x="85" y="1138" on="0"/>
        <pt x="176" y="1248" on="0"/>
        <pt x="294" y="1335" on="0"/>
        <pt x="418" y="1396" on="0"/>
        <pt x="539" y="1428" on="0"/>
        <pt x="589" y="1428" on="1"/>
        <pt x="615" y="1428" on="0"/>
        <pt x="636" y="1409" on="0"/>
      </contour>
    </TTGlyph>
    <TTGlyph name="IJ" xMin="30" yMin="-357" xMax="1566" yMax="1428">
      <component glyphName="I" x="0" y="0" flags="0x4"/>
      <component glyphName="J" x="738" y="0" flags="0x4"/>
    </TTGlyph>
    <TTGlyph name="Iacute" xMin="30" yMin="-128" xMax="636" yMax="1779">
      <component glyphName="I" x="0" y="0" flags="0x204"/>
      <component glyphName="acute" x="269" y="749" flags="0x4"/>
    </TTGlyph>
    <TTGlyph name="Ibreve" xMin="30" yMin="-128" xMax="674" yMax="1767">
      <component glyphName="I" x="0" y="0" flags="0x204"/>
      <component glyphName="breve" x="229" y="749" flags="0x4"/>
    </TTGlyph>
    <TTGlyph name="Icircumflex" xMin="30" yMin="-128" xMax="664" yMax="1776">
      <component glyphName="I" x="0" y="0" flags="0x204"/>
      <component glyphName="circumflex" x="206" y="749" flags="0x4"/>
    </TTGlyph>
    <TTGlyph name="Idieresis" xMin="30" yMin="-128" xMax="676" yMax="1754">
      <component glyphName="I" x="0" y="0" flags="0x204"/>
      <component glyphName="dieresis" x="206" y="749" flags="0x4"/>
    </TTGlyph>
    <TTGlyph name="Idotaccent" xMin="30" yMin="-128" xMax="636" yMax="1754">
      <component glyphName="I" x="0" y="0" flags="0x204"/>
      <component glyphName="dotaccent" x="226" y="749" flags="0x4"/>
    </TTGlyph>
    <TTGlyph name="Igrave" xMin="30" yMin="-128" xMax="636" yMax="1779">
      <component glyphName="I" x="0" y="0" flags="0x204"/>
      <component glyphName="grave" x="146" y="749" flags="0x4"/>
    </TTGlyph>
    <TTGlyph name="Imacron" xMin="30" yMin="-128" xMax="675" yMax="1738">
      <component glyphName="I" x="0" y="0" flags="0x204"/>
      <component glyphName="macron" x="213" y="749" flags="0x4"/>
    </TTGlyph>
    <TTGlyph name="Iogonek" xMin="30" yMin="-317" xMax="643" yMax="1428">
      <contour>
        <pt x="486" y="-317" on="1"/>
        <pt x="420" y="-317" on="0"/>
        <pt x="345" y="-247" on="0"/>
        <pt x="345" y="-189" on="1"/>
        <pt x="345" y="-169" on="0"/>
        <pt x="358" y="-103" on="0"/>
        <pt x="379" y="-68" on="1"/>
        <pt x="373" y="-72" on="0"/>
        <pt x="353" y="-87" on="0"/>
        <pt x="330" y="-102" on="0"/>
        <pt x="309" y="-116" on="0"/>
        <pt x="303" y="-120" on="1"/>
        <pt x="298" y="-123" on="0"/>
        <pt x="285" y="-128" on="0"/>
        <pt x="280" y="-128" on="1"/>
        <pt x="267" y="-128" on="0"/>
        <pt x="267" y="-117" on="1"/>
        <pt x="267" y="-108" on="0"/>
        <pt x="278" y="-96" on="1"/>
        <pt x="313" y="-59" on="0"/>
        <pt x="359" y="17" on="0"/>
        <pt x="387" y="109" on="0"/>
        <pt x="401" y="227" on="0"/>
        <pt x="406" y="307" on="1"/>
        <pt x="412" y="378" on="0"/>
        <pt x="419" y="484" on="1"/>
        <pt x="425" y="574" on="0"/>
        <pt x="441" y="846" on="0"/>
        <pt x="450" y="1034" on="1"/>
        <pt x="451" y="1058" on="0"/>
        <pt x="454" y="1112" on="0"/>
        <pt x="456" y="1161" on="0"/>
        <pt x="458" y="1199" on="0"/>
        <pt x="458" y="1207" on="1"/>
        <pt x="458" y="1218" on="0"/>
        <pt x="447" y="1218" on="1"/>
        <pt x="431" y="1218" on="0"/>
        <pt x="378" y="1209" on="0"/>
        <pt x="317" y="1186" on="0"/>
        <pt x="256" y="1150" on="0"/>
        <pt x="206" y="1095" on="0"/>
        <pt x="175" y="1022" on="0"/>
        <pt x="175" y="974" on="1"/>
        <pt x="175" y="927" on="0"/>
        <pt x="198" y="849" on="0"/>
        <pt x="231" y="785" on="0"/>
        <pt x="271" y="734" on="0"/>
        <pt x="304" y="697" on="0"/>
        <pt x="327" y="672" on="0"/>
        <pt x="327" y="666" on="1"/>
        <pt x="327" y="657" on="0"/>
        <pt x="307" y="645" on="0"/>
        <pt x="282" y="645" on="1"/>
        <pt x="230" y="645" on="0"/>
        <pt x="138" y="691" on="0"/>
        <pt x="70" y="770" on="0"/>
        <pt x="30" y="874" on="0"/>
        <pt x="30" y="931" on="1"/>
        <pt x="30" y="1006" on="0"/>
        <pt x="85" y="1138" on="0"/>
        <pt x="176" y="1248" on="0"/>
        <pt x="294" y="1335" on="0"/>
        <pt x="418" y="1396" on="0"/>
        <pt x="539" y="1428" on="0"/>
        <pt x="589" y="1428" on="1"/>
        <pt x="615" y="1428" on="0"/>
        <pt x="636" y="1409" on="0"/>
        <pt x="636" y="1386" on="1"/>
        <pt x="636" y="1380" on="0"/>
        <pt x="634" y="1334" on="0"/>
        <pt x="631" y="1272" on="0"/>
        <pt x="627" y="1204" on="0"/>
        <pt x="626" y="1174" on="1"/>
        <pt x="626" y="1167" on="0"/>
        <pt x="622" y="1094" on="0"/>
        <pt x="616" y="982" on="0"/>
        <pt x="608" y="840" on="0"/>
        <pt x="600" y="690" on="0"/>
        <pt x="592" y="541" on="0"/>
        <pt x="585" y="416" on="0"/>
        <pt x="579" y="323" on="0"/>
        <pt x="577" y="303" on="1"/>
        <pt x="572" y="252" on="0"/>
        <pt x="527" y="107" on="0"/>
        <pt x="476" y="29" on="1"/>
        <pt x="461" y="6" on="0"/>
        <pt x="436" y="-67" on="0"/>
        <pt x="436" y="-116" on="1"/>
        <pt x="436" y="-147" on="0"/>
        <pt x="453" y="-190" on="0"/>
        <pt x="480" y="-217" on="0"/>
        <pt x="513" y="-230" on="0"/>
        <pt x="528" y="-230" on="1"/>
        <pt x="546" y="-230" on="0"/>
        <pt x="573" y="-218" on="0"/>
        <pt x="596" y="-199" on="0"/>
        <pt x="613" y="-177" on="0"/>
        <pt x="621" y="-166" on="1"/>
        <pt x="627" y="-159" on="0"/>
        <pt x="633" y="-159" on="1"/>
        <pt x="643" y="-159" on="0"/>
        <pt x="643" y="-173" on="1"/>
        <pt x="643" y="-179" on="0"/>
        <pt x="629" y="-226" on="0"/>
        <pt x="594" y="-277" on="0"/>
        <pt x="533" y="-317" on="0"/>
      </contour>
    </TTGlyph>
    <TTGlyph name="Itilde" xMin="30" yMin="-128" xMax="684" yMax="1720">
      <component glyphName="I" x="0" y="0" flags="0x204"/>
      <component glyphName="tilde" x="206" y="749" flags="0x4"/>
    </TTGlyph>
    <TTGlyph name="J" xMin="-100" yMin="-357" xMax="828" yMax="1428">
      <contour>
        <pt x="828" y="1386" on="1"/>
        <pt x="828" y="1381" on="0"/>
        <pt x="824" y="1290" on="0"/>
        <pt x="817" y="1136" on="0"/>
        <pt x="807" y="930" on="0"/>
        <pt x="794" y="692" on="0"/>
        <pt x="779" y="433" on="0"/>
        <pt x="770" y="303" on="1"/>
        <pt x="767" y="258" on="0"/>
        <pt x="754" y="177" on="0"/>
        <pt x="744" y="139" on="1"/>
        <pt x="762" y="133" on="1"/>
        <pt x="781" y="125" on="0"/>
        <pt x="781" y="112" on="1"/>
        <pt x="781" y="105" on="0"/>
        <pt x="770" y="95" on="0"/>
        <pt x="760" y="95" on="1"/>
        <pt x="757" y="95" on="0"/>
        <pt x="744" y="97" on="0"/>
        <pt x="733" y="99" on="1"/>
        <pt x="704" y="6" on="0"/>
        <pt x="608" y="-140" on="0"/>
        <pt x="484" y="-250" on="0"/>
        <pt x="338" y="-323" on="0"/>
        <pt x="259" y="-343" on="1"/>
        <pt x="203" y="-357" on="0"/>
        <pt x="151" y="-357" on="1"/>
        <pt x="97" y="-357" on="0"/>
        <pt x="5" y="-314" on="0"/>
        <pt x="-62" y="-242" on="0"/>
        <pt x="-100" y="-149" on="0"/>
        <pt x="-100" y="-99" on="1"/>
        <pt x="-100" y="-39" on="0"/>
        <pt x="-35" y="79" on="0"/>
        <pt x="39" y="121" on="1"/>
        <pt x="130" y="172" on="0"/>
        <pt x="305" y="213" on="0"/>
        <pt x="387" y="213" on="1"/>
        <pt x="439" y="213" on="0"/>
        <pt x="538" y="200" on="0"/>
        <pt x="584" y="189" on="1"/>
        <pt x="590" y="216" on="0"/>
        <pt x="598" y="275" on="0"/>
        <pt x="600" y="307" on="1"/>
        <pt x="603" y="362" on="0"/>
        <pt x="608" y="461" on="1"/>
        <pt x="612" y="545" on="0"/>
        <pt x="628" y="824" on="0"/>
        <pt x="641" y="1034" on="1"/>
        <pt x="642" y="1056" on="0"/>
        <pt x="646" y="1110" on="0"/>
        <pt x="649" y="1159" on="0"/>
        <pt x="652" y="1197" on="0"/>
        <pt x="652" y="1204" on="1"/>
        <pt x="652" y="1212" on="0"/>
        <pt x="643" y="1218" on="0"/>
        <pt x="638" y="1218" on="1"/>
        <pt x="562" y="1218" on="0"/>
        <pt x="431" y="1159" on="0"/>
        <pt x="335" y="1054" on="0"/>
        <pt x="280" y="909" on="0"/>
        <pt x="280" y="822" on="1"/>
        <pt x="280" y="757" on="0"/>
        <pt x="310" y="657" on="0"/>
        <pt x="357" y="580" on="0"/>
        <pt x="413" y="525" on="0"/>
        <pt x="465" y="486" on="0"/>
        <pt x="506" y="461" on="0"/>
        <pt x="514" y="453" on="1"/>
        <pt x="520" y="447" on="0"/>
        <pt x="520" y="441" on="1"/>
        <pt x="520" y="432" on="0"/>
        <pt x="497" y="419" on="0"/>
        <pt x="474" y="419" on="1"/>
        <pt x="442" y="419" on="0"/>
        <pt x="361" y="431" on="0"/>
        <pt x="276" y="461" on="0"/>
        <pt x="195" y="513" on="0"/>
        <pt x="132" y="593" on="0"/>
        <pt x="93" y="705" on="0"/>
        <pt x="93" y="781" on="1"/>
        <pt x="93" y="871" on="0"/>
        <pt x="161" y="1038" on="0"/>
        <pt x="273" y="1182" on="0"/>
        <pt x="417" y="1299" on="0"/>
        <pt x="571" y="1382" on="0"/>
        <pt x="720" y="1428" on="0"/>
        <pt x="782" y="1428" on="1"/>
        <pt x="808" y="1428" on="0"/>
        <pt x="828" y="1409" on="0"/>
      </contour>
      <contour>
        <pt x="120" y="-237" on="1"/>
        <pt x="172" y="-237" on="0"/>
        <pt x="300" y="-199" on="0"/>
        <pt x="426" y="-114" on="0"/>
        <pt x="535" y="23" on="0"/>
        <pt x="567" y="122" on="1"/>
        <pt x="554" y="123" on="0"/>
        <pt x="528" y="124" on="0"/>
        <pt x="514" y="124" on="1"/>
        <pt x="472" y="124" on="0"/>
        <pt x="380" y="115" on="0"/>
        <pt x="332" y="104" on="1"/>
        <pt x="269" y="90" on="0"/>
        <pt x="149" y="31" on="0"/>
        <pt x="56" y="-43" on="0"/>
        <pt x="0" y="-124" on="0"/>
        <pt x="0" y="-159" on="1"/>
        <pt x="0" y="-194" on="0"/>
        <pt x="58" y="-237" on="0"/>
      </contour>
    </TTGlyph>
    <TTGlyph name="Jcircumflex" xMin="-100" yMin="-357" xMax="828" yMax="1776">
      <component glyphName="J" x="0" y="0" flags="0x204"/>
      <component glyphName="circumflex" x="317" y="749" flags="0x4"/>
    </TTGlyph>
    <TTGlyph name="K" xMin="30" yMin="-371" xMax="1482" yMax="1500">
      <contour>
        <pt x="636" y="1386" on="1"/>
        <pt x="636" y="1380" on="0"/>
        <pt x="634" y="1334" on="0"/>
        <pt x="631" y="1272" on="0"/>
        <pt x="627" y="1204" on="0"/>
        <pt x="626" y="1174" on="1"/>
        <pt x="625" y="1168" on="0"/>
        <pt x="622" y="1101" on="0"/>
        <pt x="616" y="997" on="0"/>
        <pt x="609" y="866" on="0"/>
        <pt x="601" y="724" on="0"/>
        <pt x="593" y="580" on="0"/>
        <pt x="590" y="517" on="1"/>
        <pt x="591" y="517" on="1"/>
        <pt x="709" y="574" on="0"/>
        <pt x="894" y="754" on="0"/>
        <pt x="1022" y="974" on="0"/>
        <pt x="1088" y="1224" on="0"/>
        <pt x="1088" y="1350" on="1"/>
        <pt x="1088" y="1362" on="0"/>
        <pt x="1086" y="1391" on="0"/>
        <pt x="1084" y="1418" on="0"/>
        <pt x="1083" y="1441" on="0"/>
        <pt x="1083" y="1448" on="1"/>
        <pt x="1084" y="1467" on="0"/>
        <pt x="1100" y="1500" on="0"/>
        <pt x="1114" y="1500" on="1"/>
        <pt x="1125" y="1500" on="0"/>
        <pt x="1140" y="1493" on="1"/>
        <pt x="1154" y="1487" on="0"/>
        <pt x="1174" y="1482" on="0"/>
        <pt x="1191" y="1480" on="0"/>
        <pt x="1205" y="1478" on="0"/>
        <pt x="1212" y="1475" on="1"/>
        <pt x="1220" y="1471" on="0"/>
        <pt x="1228" y="1460" on="0"/>
        <pt x="1235" y="1446" on="0"/>
        <pt x="1242" y="1432" on="0"/>
        <pt x="1249" y="1425" on="1"/>
        <pt x="1256" y="1418" on="0"/>
        <pt x="1274" y="1414" on="0"/>
        <pt x="1290" y="1411" on="0"/>
        <pt x="1302" y="1402" on="0"/>
        <pt x="1302" y="1391" on="1"/>
        <pt x="1302" y="1374" on="0"/>
        <pt x="1291" y="1268" on="0"/>
        <pt x="1257" y="1119" on="0"/>
        <pt x="1194" y="941" on="0"/>
        <pt x="1090" y="763" on="0"/>
        <pt x="939" y="600" on="0"/>
        <pt x="835" y="541" on="1"/>
        <pt x="806" y="524" on="0"/>
        <pt x="752" y="495" on="0"/>
        <pt x="726" y="483" on="1"/>
        <pt x="757" y="466" on="0"/>
        <pt x="828" y="407" on="0"/>
        <pt x="906" y="317" on="0"/>
        <pt x="990" y="191" on="0"/>
        <pt x="1034" y="109" on="1"/>
        <pt x="1070" y="41" on="0"/>
        <pt x="1150" y="-98" on="0"/>
        <pt x="1249" y="-219" on="0"/>
        <pt x="1373" y="-312" on="0"/>
        <pt x="1453" y="-334" on="1"/>
        <pt x="1482" y="-342" on="0"/>
        <pt x="1482" y="-354" on="1"/>
        <pt x="1482" y="-365" on="0"/>
        <pt x="1451" y="-371" on="0"/>
        <pt x="1432" y="-371" on="1"/>
        <pt x="1382" y="-371" on="0"/>
        <pt x="1269" y="-355" on="0"/>
        <pt x="1152" y="-314" on="0"/>
        <pt x="1037" y="-243" on="0"/>
        <pt x="987" y="-188" on="1"/>
        <pt x="939" y="-136" on="0"/>
        <pt x="873" y="-17" on="0"/>
        <pt x="822" y="103" on="0"/>
        <pt x="777" y="219" on="0"/>
        <pt x="720" y="320" on="0"/>
        <pt x="644" y="399" on="0"/>
        <pt x="588" y="423" on="1"/>
        <pt x="586" y="423" on="0"/>
        <pt x="585" y="422" on="1"/>
        <pt x="577" y="303" on="1"/>
        <pt x="574" y="264" on="0"/>
        <pt x="545" y="155" on="0"/>
        <pt x="483" y="38" on="0"/>
        <pt x="381" y="-76" on="0"/>
        <pt x="303" y="-120" on="1"/>
        <pt x="298" y="-123" on="0"/>
        <pt x="285" y="-128" on="0"/>
        <pt x="280" y="-128" on="1"/>
        <pt x="267" y="-128" on="0"/>
        <pt x="267" y="-117" on="1"/>
        <pt x="267" y="-108" on="0"/>
        <pt x="278" y="-96" on="1"/>
        <pt x="313" y="-59" on="0"/>
        <pt x="359" y="17" on="0"/>
        <pt x="387" y="109" on="0"/>
        <pt x="401" y="227" on="0"/>
        <pt x="406" y="307" on="1"/>
        <pt x="406" y="314" on="0"/>
        <pt x="407" y="325" on="1"/>
        <pt x="408" y="334" on="0"/>
        <pt x="410" y="362" on="0"/>
        <pt x="412" y="381" on="1"/>
        <pt x="392" y="381" on="1"/>
        <pt x="345" y="381" on="0"/>
        <pt x="303" y="406" on="0"/>
        <pt x="303" y="418" on="1"/>
        <pt x="303" y="441" on="0"/>
        <pt x="369" y="488" on="0"/>
        <pt x="421" y="503" on="1"/>
        <pt x="427" y="594" on="0"/>
        <pt x="442" y="856" on="0"/>
        <pt x="450" y="1034" on="1"/>
        <pt x="451" y="1058" on="0"/>
        <pt x="454" y="1112" on="0"/>
        <pt x="456" y="1161" on="0"/>
        <pt x="458" y="1199" on="0"/>
        <pt x="458" y="1207" on="1"/>
        <pt x="458" y="1218" on="0"/>
        <pt x="447" y="1218" on="1"/>
        <pt x="431" y="1218" on="0"/>
        <pt x="378" y="1209" on="0"/>
        <pt x="317" y="1186" on="0"/>
        <pt x="256" y="1150" on="0"/>
        <pt x="206" y="1095" on="0"/>
        <pt x="175" y="1022" on="0"/>
        <pt x="175" y="974" on="1"/>
        <pt x="175" y="927" on="0"/>
        <pt x="198" y="849" on="0"/>
        <pt x="231" y="785" on="0"/>
        <pt x="271" y="734" on="0"/>
        <pt x="304" y="697" on="0"/>
        <pt x="327" y="672" on="0"/>
        <pt x="327" y="666" on="1"/>
        <pt x="327" y="657" on="0"/>
        <pt x="307" y="645" on="0"/>
        <pt x="282" y="645" on="1"/>
        <pt x="230" y="645" on="0"/>
        <pt x="138" y="691" on="0"/>
        <pt x="70" y="770" on="0"/>
        <pt x="30" y="874" on="0"/>
        <pt x="30" y="931" on="1"/>
        <pt x="30" y="1006" on="0"/>
        <pt x="85" y="1138" on="0"/>
        <pt x="176" y="1248" on="0"/>
        <pt x="294" y="1335" on="0"/>
        <pt x="418" y="1396" on="0"/>
        <pt x="539" y="1428" on="0"/>
        <pt x="589" y="1428" on="1"/>
        <pt x="615" y="1428" on="0"/>
        <pt x="636" y="1409" on="0"/>
      </contour>
    </TTGlyph>
    <TTGlyph name="Kcommaaccent" xMin="30" yMin="-473" xMax="1482" yMax="1500">
      <component glyphName="K" x="0" y="0" flags="0x204"/>
      <component glyphName="commaaccent" x="401" y="0" flags="0x4"/>
    </TTGlyph>
    <TTGlyph name="L" xMin="-30" yMin="-133" xMax="1103" yMax="1425">
      <contour>
        <pt x="562" y="1229" on="1"/>
        <pt x="534" y="1229" on="0"/>
        <pt x="473" y="1218" on="0"/>
        <pt x="423" y="1184" on="0"/>
        <pt x="391" y="1122" on="0"/>
        <pt x="391" y="1070" on="1"/>
        <pt x="391" y="1017" on="0"/>
        <pt x="427" y="880" on="0"/>
        <pt x="469" y="713" on="0"/>
        <pt x="505" y="518" on="0"/>
        <pt x="505" y="409" on="1"/>
        <pt x="505" y="304" on="0"/>
        <pt x="460" y="139" on="0"/>
        <pt x="423" y="80" on="1"/>
        <pt x="467" y="68" on="0"/>
        <pt x="561" y="44" on="0"/>
        <pt x="616" y="35" on="1"/>
        <pt x="648" y="29" on="0"/>
        <pt x="715" y="24" on="0"/>
        <pt x="749" y="24" on="1"/>
        <pt x="807" y="24" on="0"/>
        <pt x="915" y="45" on="0"/>
        <pt x="998" y="93" on="0"/>
        <pt x="1048" y="172" on="0"/>
        <pt x="1048" y="231" on="1"/>
        <pt x="1048" y="240" on="0"/>
        <pt x="1046" y="259" on="0"/>
        <pt x="1046" y="270" on="1"/>
        <pt x="1046" y="294" on="0"/>
        <pt x="1062" y="294" on="1"/>
        <pt x="1067" y="294" on="0"/>
        <pt x="1081" y="282" on="0"/>
        <pt x="1094" y="254" on="0"/>
        <pt x="1103" y="209" on="0"/>
        <pt x="1103" y="177" on="1"/>
        <pt x="1103" y="152" on="0"/>
        <pt x="1091" y="88" on="0"/>
        <pt x="1062" y="19" on="0"/>
        <pt x="1013" y="-48" on="0"/>
        <pt x="939" y="-101" on="0"/>
        <pt x="836" y="-133" on="0"/>
        <pt x="768" y="-133" on="1"/>
        <pt x="711" y="-133" on="0"/>
        <pt x="591" y="-114" on="0"/>
        <pt x="472" y="-84" on="0"/>
        <pt x="361" y="-46" on="0"/>
        <pt x="314" y="-28" on="1"/>
        <pt x="269" y="-57" on="0"/>
        <pt x="162" y="-94" on="0"/>
        <pt x="109" y="-94" on="1"/>
        <pt x="41" y="-94" on="0"/>
        <pt x="-30" y="-37" on="0"/>
        <pt x="-30" y="8" on="1"/>
        <pt x="-30" y="56" on="0"/>
        <pt x="64" y="122" on="0"/>
        <pt x="168" y="122" on="1"/>
        <pt x="193" y="122" on="0"/>
        <pt x="240" y="118" on="0"/>
        <pt x="263" y="115" on="1"/>
        <pt x="290" y="179" on="0"/>
        <pt x="318" y="337" on="0"/>
        <pt x="318" y="422" on="1"/>
        <pt x="318" y="489" on="0"/>
        <pt x="299" y="620" on="0"/>
        <pt x="277" y="749" on="0"/>
        <pt x="258" y="879" on="0"/>
        <pt x="258" y="946" on="1"/>
        <pt x="258" y="1050" on="0"/>
        <pt x="310" y="1226" on="0"/>
        <pt x="408" y="1353" on="0"/>
        <pt x="546" y="1425" on="0"/>
        <pt x="633" y="1425" on="1"/>
        <pt x="712" y="1425" on="0"/>
        <pt x="843" y="1376" on="0"/>
        <pt x="939" y="1310" on="0"/>
        <pt x="996" y="1244" on="0"/>
        <pt x="1001" y="1227" on="1"/>
        <pt x="1003" y="1217" on="0"/>
        <pt x="1007" y="1204" on="0"/>
        <pt x="1007" y="1199" on="1"/>
        <pt x="1007" y="1188" on="0"/>
        <pt x="996" y="1176" on="0"/>
        <pt x="989" y="1165" on="1"/>
        <pt x="983" y="1155" on="0"/>
        <pt x="967" y="1146" on="0"/>
        <pt x="951" y="1140" on="0"/>
        <pt x="936" y="1132" on="0"/>
        <pt x="932" y="1122" on="1"/>
        <pt x="925" y="1107" on="0"/>
        <pt x="901" y="1092" on="0"/>
        <pt x="887" y="1092" on="1"/>
        <pt x="870" y="1092" on="0"/>
        <pt x="859" y="1099" on="1"/>
        <pt x="851" y="1104" on="0"/>
        <pt x="800" y="1146" on="0"/>
        <pt x="722" y="1192" on="0"/>
        <pt x="620" y="1229" on="0"/>
      </contour>
      <contour>
        <pt x="83" y="-43" on="1"/>
        <pt x="118" y="-43" on="0"/>
        <pt x="178" y="-11" on="0"/>
        <pt x="203" y="17" on="1"/>
        <pt x="159" y="34" on="0"/>
        <pt x="102" y="50" on="0"/>
        <pt x="81" y="50" on="1"/>
        <pt x="60" y="50" on="0"/>
        <pt x="36" y="39" on="0"/>
        <pt x="24" y="24" on="0"/>
        <pt x="21" y="7" on="0"/>
        <pt x="21" y="2" on="1"/>
        <pt x="21" y="-15" on="0"/>
        <pt x="52" y="-43" on="0"/>
      </contour>
    </TTGlyph>
    <TTGlyph name="Lacute" xMin="-30" yMin="-133" xMax="1103" yMax="1777">
      <component glyphName="L" x="0" y="0" flags="0x204"/>
      <component glyphName="acute" x="428" y="747" flags="0x4"/>
    </TTGlyph>
    <TTGlyph name="Lcaron" xMin="-30" yMin="-133" xMax="1248" yMax="1425">
      <component glyphName="L" x="0" y="0" flags="0x4"/>
      <component glyphName="commaaccent" x="905" y="1456" flags="0x4"/>
    </TTGlyph>
    <TTGlyph name="Lcommaaccent" xMin="-30" yMin="-592" xMax="1103" yMax="1425">
      <component glyphName="L" x="0" y="0" flags="0x204"/>
      <component glyphName="commaaccent" x="352" y="-119" flags="0x4"/>
    </TTGlyph>
    <TTGlyph name="Ldot" xMin="-30" yMin="-133" xMax="1103" yMax="1425">
      <component glyphName="L" x="0" y="0" flags="0x204"/>
      <component glyphName="periodcentered" x="764" y="-150" flags="0x4"/>
    </TTGlyph>
    <TTGlyph name="Lslash" xMin="-30" yMin="-133" xMax="1103" yMax="1425">
      <contour>
        <pt x="562" y="1229" on="1"/>
        <pt x="534" y="1229" on="0"/>
        <pt x="473" y="1218" on="0"/>
        <pt x="423" y="1184" on="0"/>
        <pt x="391" y="1122" on="0"/>
        <pt x="391" y="1070" on="1"/>
        <pt x="391" y="1032" on="0"/>
        <pt x="411" y="938" on="0"/>
        <pt x="439" y="828" on="0"/>
        <pt x="472" y="703" on="0"/>
        <pt x="484" y="633" on="1"/>
        <pt x="519" y="652" on="0"/>
        <pt x="573" y="686" on="0"/>
        <pt x="613" y="710" on="0"/>
        <pt x="640" y="721" on="0"/>
        <pt x="648" y="718" on="1"/>
        <pt x="655" y="713" on="0"/>
        <pt x="657" y="706" on="1"/>
        <pt x="657" y="699" on="0"/>
        <pt x="664" y="686" on="0"/>
        <pt x="673" y="673" on="0"/>
        <pt x="682" y="661" on="0"/>
        <pt x="682" y="656" on="1"/>
        <pt x="683" y="646" on="0"/>
        <pt x="687" y="633" on="0"/>
        <pt x="695" y="622" on="1"/>
        <pt x="699" y="615" on="0"/>
        <pt x="696" y="603" on="1"/>
        <pt x="693" y="595" on="0"/>
        <pt x="683" y="583" on="0"/>
        <pt x="667" y="573" on="1"/>
        <pt x="652" y="564" on="0"/>
        <pt x="564" y="528" on="0"/>
        <pt x="501" y="506" on="1"/>
        <pt x="503" y="483" on="0"/>
        <pt x="505" y="434" on="0"/>
        <pt x="505" y="409" on="1"/>
        <pt x="505" y="304" on="0"/>
        <pt x="460" y="139" on="0"/>
        <pt x="423" y="80" on="1"/>
        <pt x="467" y="68" on="0"/>
        <pt x="561" y="44" on="0"/>
        <pt x="616" y="35" on="1"/>
        <pt x="648" y="29" on="0"/>
        <pt x="715" y="24" on="0"/>
        <pt x="749" y="24" on="1"/>
        <pt x="807" y="24" on="0"/>
        <pt x="915" y="45" on="0"/>
        <pt x="998" y="93" on="0"/>
        <pt x="1048" y="172" on="0"/>
        <pt x="1048" y="231" on="1"/>
        <pt x="1048" y="240" on="0"/>
        <pt x="1046" y="259" on="0"/>
        <pt x="1046" y="270" on="1"/>
        <pt x="1046" y="294" on="0"/>
        <pt x="1062" y="294" on="1"/>
        <pt x="1067" y="294" on="0"/>
        <pt x="1081" y="282" on="0"/>
        <pt x="1094" y="254" on="0"/>
        <pt x="1103" y="209" on="0"/>
        <pt x="1103" y="177" on="1"/>
        <pt x="1103" y="152" on="0"/>
        <pt x="1091" y="88" on="0"/>
        <pt x="1062" y="19" on="0"/>
        <pt x="1013" y="-48" on="0"/>
        <pt x="939" y="-101" on="0"/>
        <pt x="836" y="-133" on="0"/>
        <pt x="768" y="-133" on="1"/>
        <pt x="711" y="-133" on="0"/>
        <pt x="591" y="-114" on="0"/>
        <pt x="472" y="-84" on="0"/>
        <pt x="361" y="-46" on="0"/>
        <pt x="314" y="-28" on="1"/>
        <pt x="269" y="-57" on="0"/>
        <pt x="162" y="-94" on="0"/>
        <pt x="109" y="-94" on="1"/>
        <pt x="41" y="-94" on="0"/>
        <pt x="-30" y="-37" on="0"/>
        <pt x="-30" y="8" on="1"/>
        <pt x="-30" y="56" on="0"/>
        <pt x="64" y="122" on="0"/>
        <pt x="168" y="122" on="1"/>
        <pt x="193" y="122" on="0"/>
        <pt x="240" y="118" on="0"/>
        <pt x="263" y="115" on="1"/>
        <pt x="290" y="179" on="0"/>
        <pt x="318" y="337" on="0"/>
        <pt x="318" y="422" on="1"/>
        <pt x="318" y="429" on="0"/>
        <pt x="318" y="443" on="0"/>
        <pt x="317" y="450" on="1"/>
        <pt x="252" y="432" on="0"/>
        <pt x="181" y="419" on="0"/>
        <pt x="168" y="418" on="1"/>
        <pt x="163" y="418" on="0"/>
        <pt x="162" y="419" on="1"/>
        <pt x="161" y="419" on="0"/>
        <pt x="160" y="420" on="1"/>
        <pt x="142" y="425" on="0"/>
        <pt x="138" y="460" on="1"/>
        <pt x="139" y="462" on="0"/>
        <pt x="138" y="468" on="0"/>
        <pt x="139" y="470" on="1"/>
        <pt x="141" y="476" on="0"/>
        <pt x="158" y="487" on="0"/>
        <pt x="184" y="497" on="1"/>
        <pt x="309" y="549" on="1"/>
        <pt x="303" y="599" on="0"/>
        <pt x="286" y="697" on="0"/>
        <pt x="269" y="796" on="0"/>
        <pt x="258" y="895" on="0"/>
        <pt x="258" y="946" on="1"/>
        <pt x="258" y="1050" on="0"/>
        <pt x="310" y="1226" on="0"/>
        <pt x="408" y="1353" on="0"/>
        <pt x="546" y="1425" on="0"/>
        <pt x="633" y="1425" on="1"/>
        <pt x="712" y="1425" on="0"/>
        <pt x="840" y="1378" on="0"/>
        <pt x="935" y="1314" on="0"/>
        <pt x="992" y="1248" on="0"/>
        <pt x="1000" y="1229" on="1"/>
        <pt x="1003" y="1221" on="0"/>
        <pt x="1007" y="1207" on="0"/>
        <pt x="1007" y="1199" on="1"/>
        <pt x="1007" y="1188" on="0"/>
        <pt x="996" y="1176" on="0"/>
        <pt x="989" y="1165" on="1"/>
        <pt x="983" y="1155" on="0"/>
        <pt x="967" y="1146" on="0"/>
        <pt x="951" y="1140" on="0"/>
        <pt x="936" y="1132" on="0"/>
        <pt x="932" y="1122" on="1"/>
        <pt x="925" y="1107" on="0"/>
        <pt x="901" y="1092" on="0"/>
        <pt x="887" y="1092" on="1"/>
        <pt x="870" y="1092" on="0"/>
        <pt x="859" y="1099" on="1"/>
        <pt x="851" y="1104" on="0"/>
        <pt x="800" y="1146" on="0"/>
        <pt x="722" y="1192" on="0"/>
        <pt x="620" y="1229" on="0"/>
      </contour>
      <contour>
        <pt x="83" y="-43" on="1"/>
        <pt x="118" y="-43" on="0"/>
        <pt x="178" y="-11" on="0"/>
        <pt x="203" y="17" on="1"/>
        <pt x="159" y="34" on="0"/>
        <pt x="102" y="50" on="0"/>
        <pt x="81" y="50" on="1"/>
        <pt x="60" y="50" on="0"/>
        <pt x="36" y="39" on="0"/>
        <pt x="24" y="24" on="0"/>
        <pt x="21" y="7" on="0"/>
        <pt x="21" y="2" on="1"/>
        <pt x="21" y="-15" on="0"/>
        <pt x="52" y="-43" on="0"/>
      </contour>
    </TTGlyph>
    <TTGlyph name="M" xMin="40" yMin="-498" xMax="1591" yMax="1599">
      <contour>
        <pt x="1183" y="1157" on="1"/>
        <pt x="1238" y="1157" on="0"/>
        <pt x="1309" y="1122" on="0"/>
        <pt x="1351" y="1057" on="0"/>
        <pt x="1367" y="967" on="0"/>
        <pt x="1367" y="913" on="1"/>
        <pt x="1367" y="868" on="0"/>
        <pt x="1358" y="767" on="0"/>
        <pt x="1353" y="713" on="1"/>
        <pt x="1340" y="589" on="0"/>
        <pt x="1323" y="349" on="0"/>
        <pt x="1323" y="234" on="1"/>
        <pt x="1323" y="105" on="0"/>
        <pt x="1348" y="-102" on="0"/>
        <pt x="1405" y="-270" on="0"/>
        <pt x="1499" y="-403" on="0"/>
        <pt x="1568" y="-457" on="1"/>
        <pt x="1579" y="-466" on="0"/>
        <pt x="1591" y="-477" on="0"/>
        <pt x="1591" y="-485" on="1"/>
        <pt x="1591" y="-498" on="0"/>
        <pt x="1573" y="-498" on="1"/>
        <pt x="1563" y="-498" on="0"/>
        <pt x="1551" y="-494" on="1"/>
        <pt x="1482" y="-468" on="0"/>
        <pt x="1334" y="-368" on="0"/>
        <pt x="1212" y="-208" on="0"/>
        <pt x="1133" y="21" on="0"/>
        <pt x="1133" y="177" on="1"/>
        <pt x="1133" y="283" on="0"/>
        <pt x="1147" y="491" on="0"/>
        <pt x="1164" y="676" on="0"/>
        <pt x="1178" y="831" on="0"/>
        <pt x="1178" y="886" on="1"/>
        <pt x="1178" y="916" on="0"/>
        <pt x="1168" y="950" on="0"/>
        <pt x="1153" y="967" on="0"/>
        <pt x="1133" y="971" on="0"/>
        <pt x="1124" y="971" on="1"/>
        <pt x="1112" y="971" on="0"/>
        <pt x="1088" y="955" on="0"/>
        <pt x="1064" y="911" on="0"/>
        <pt x="1041" y="836" on="0"/>
        <pt x="1031" y="776" on="1"/>
        <pt x="1024" y="739" on="0"/>
        <pt x="1007" y="635" on="0"/>
        <pt x="986" y="517" on="0"/>
        <pt x="965" y="394" on="0"/>
        <pt x="946" y="284" on="0"/>
        <pt x="929" y="195" on="0"/>
        <pt x="923" y="170" on="1"/>
        <pt x="898" y="64" on="0"/>
        <pt x="819" y="-34" on="0"/>
        <pt x="759" y="-34" on="1"/>
        <pt x="715" y="-34" on="0"/>
        <pt x="664" y="6" on="0"/>
        <pt x="638" y="66" on="0"/>
        <pt x="632" y="137" on="0"/>
        <pt x="632" y="168" on="1"/>
        <pt x="632" y="369" on="0"/>
        <pt x="642" y="755" on="0"/>
        <pt x="642" y="949" on="1"/>
        <pt x="642" y="1021" on="0"/>
        <pt x="634" y="1135" on="0"/>
        <pt x="608" y="1214" on="0"/>
        <pt x="562" y="1257" on="0"/>
        <pt x="525" y="1257" on="1"/>
        <pt x="490" y="1257" on="0"/>
        <pt x="439" y="1176" on="0"/>
        <pt x="405" y="1036" on="0"/>
        <pt x="387" y="846" on="0"/>
        <pt x="384" y="737" on="1"/>
        <pt x="382" y="662" on="0"/>
        <pt x="379" y="506" on="0"/>
        <pt x="373" y="359" on="0"/>
        <pt x="363" y="228" on="0"/>
        <pt x="356" y="176" on="1"/>
        <pt x="349" y="86" on="0"/>
        <pt x="330" y="-31" on="0"/>
        <pt x="323" y="-61" on="1"/>
        <pt x="317" y="-87" on="0"/>
        <pt x="287" y="-107" on="0"/>
        <pt x="250" y="-113" on="0"/>
        <pt x="212" y="-113" on="0"/>
        <pt x="198" y="-119" on="1"/>
        <pt x="181" y="-126" on="0"/>
        <pt x="163" y="-126" on="1"/>
        <pt x="146" y="-126" on="0"/>
        <pt x="123" y="-110" on="0"/>
        <pt x="123" y="-90" on="1"/>
        <pt x="123" y="-83" on="0"/>
        <pt x="124" y="-78" on="1"/>
        <pt x="126" y="-66" on="0"/>
        <pt x="139" y="14" on="0"/>
        <pt x="156" y="127" on="0"/>
        <pt x="174" y="263" on="0"/>
        <pt x="188" y="401" on="0"/>
        <pt x="198" y="531" on="0"/>
        <pt x="198" y="581" on="1"/>
        <pt x="198" y="664" on="0"/>
        <pt x="187" y="791" on="0"/>
        <pt x="169" y="890" on="0"/>
        <pt x="144" y="969" on="0"/>
        <pt x="116" y="1040" on="0"/>
        <pt x="87" y="1111" on="0"/>
        <pt x="73" y="1153" on="1"/>
        <pt x="55" y="1207" on="0"/>
        <pt x="40" y="1312" on="0"/>
        <pt x="40" y="1361" on="1"/>
        <pt x="40" y="1411" on="0"/>
        <pt x="53" y="1498" on="0"/>
        <pt x="74" y="1562" on="0"/>
        <pt x="98" y="1599" on="0"/>
        <pt x="109" y="1599" on="1"/>
        <pt x="122" y="1599" on="0"/>
        <pt x="136" y="1567" on="0"/>
        <pt x="136" y="1544" on="1"/>
        <pt x="136" y="1536" on="0"/>
        <pt x="135" y="1514" on="0"/>
        <pt x="135" y="1499" on="1"/>
        <pt x="135" y="1474" on="0"/>
        <pt x="141" y="1403" on="0"/>
        <pt x="163" y="1310" on="0"/>
        <pt x="205" y="1196" on="0"/>
        <pt x="241" y="1128" on="1"/>
        <pt x="257" y="1098" on="0"/>
        <pt x="283" y="1039" on="0"/>
        <pt x="294" y="1010" on="1"/>
        <pt x="312" y="1101" on="0"/>
        <pt x="371" y="1233" on="0"/>
        <pt x="439" y="1325" on="0"/>
        <pt x="511" y="1383" on="0"/>
        <pt x="577" y="1414" on="0"/>
        <pt x="629" y="1425" on="0"/>
        <pt x="644" y="1425" on="1"/>
        <pt x="686" y="1425" on="0"/>
        <pt x="746" y="1379" on="0"/>
        <pt x="789" y="1298" on="0"/>
        <pt x="816" y="1189" on="0"/>
        <pt x="831" y="1064" on="0"/>
        <pt x="836" y="929" on="0"/>
        <pt x="836" y="863" on="1"/>
        <pt x="836" y="726" on="0"/>
        <pt x="827" y="527" on="0"/>
        <pt x="816" y="380" on="0"/>
        <pt x="807" y="275" on="0"/>
        <pt x="807" y="232" on="1"/>
        <pt x="807" y="221" on="0"/>
        <pt x="816" y="209" on="0"/>
        <pt x="822" y="209" on="1"/>
        <pt x="832" y="209" on="0"/>
        <pt x="846" y="227" on="0"/>
        <pt x="861" y="288" on="0"/>
        <pt x="880" y="406" on="0"/>
        <pt x="896" y="506" on="1"/>
        <pt x="909" y="589" on="0"/>
        <pt x="931" y="749" on="0"/>
        <pt x="958" y="894" on="0"/>
        <pt x="994" y="1017" on="0"/>
        <pt x="1049" y="1106" on="0"/>
        <pt x="1127" y="1157" on="0"/>
      </contour>
    </TTGlyph>
    <TTGlyph name="N" xMin="85" yMin="-497" xMax="1318" yMax="1478">
      <contour>
        <pt x="860" y="182" on="1"/>
        <pt x="860" y="284" on="0"/>
        <pt x="872" y="467" on="0"/>
        <pt x="887" y="640" on="0"/>
        <pt x="900" y="805" on="0"/>
        <pt x="900" y="889" on="1"/>
        <pt x="900" y="964" on="0"/>
        <pt x="882" y="1099" on="0"/>
        <pt x="836" y="1201" on="0"/>
        <pt x="754" y="1262" on="0"/>
        <pt x="691" y="1262" on="1"/>
        <pt x="631" y="1262" on="0"/>
        <pt x="533" y="1200" on="0"/>
        <pt x="456" y="1096" on="0"/>
        <pt x="399" y="960" on="0"/>
        <pt x="361" y="812" on="0"/>
        <pt x="341" y="663" on="0"/>
        <pt x="340" y="598" on="1"/>
        <pt x="339" y="548" on="0"/>
        <pt x="337" y="458" on="0"/>
        <pt x="335" y="416" on="1"/>
        <pt x="331" y="220" on="0"/>
        <pt x="299" y="-12" on="0"/>
        <pt x="287" y="-59" on="1"/>
        <pt x="280" y="-86" on="0"/>
        <pt x="249" y="-106" on="0"/>
        <pt x="212" y="-110" on="0"/>
        <pt x="175" y="-109" on="0"/>
        <pt x="162" y="-115" on="1"/>
        <pt x="144" y="-123" on="0"/>
        <pt x="126" y="-123" on="1"/>
        <pt x="109" y="-123" on="0"/>
        <pt x="85" y="-106" on="0"/>
        <pt x="85" y="-86" on="1"/>
        <pt x="85" y="-79" on="0"/>
        <pt x="86" y="-74" on="1"/>
        <pt x="89" y="-63" on="0"/>
        <pt x="102" y="12" on="0"/>
        <pt x="119" y="119" on="0"/>
        <pt x="138" y="249" on="0"/>
        <pt x="153" y="382" on="0"/>
        <pt x="163" y="508" on="0"/>
        <pt x="163" y="559" on="1"/>
        <pt x="163" y="586" on="0"/>
        <pt x="162" y="692" on="0"/>
        <pt x="160" y="831" on="0"/>
        <pt x="155" y="991" on="0"/>
        <pt x="145" y="1150" on="0"/>
        <pt x="131" y="1299" on="0"/>
        <pt x="121" y="1358" on="1"/>
        <pt x="119" y="1368" on="0"/>
        <pt x="145" y="1390" on="0"/>
        <pt x="156" y="1401" on="1"/>
        <pt x="163" y="1408" on="0"/>
        <pt x="172" y="1424" on="0"/>
        <pt x="178" y="1437" on="0"/>
        <pt x="185" y="1446" on="0"/>
        <pt x="190" y="1448" on="1"/>
        <pt x="208" y="1454" on="0"/>
        <pt x="225" y="1458" on="0"/>
        <pt x="235" y="1461" on="0"/>
        <pt x="243" y="1464" on="0"/>
        <pt x="252" y="1468" on="1"/>
        <pt x="260" y="1472" on="0"/>
        <pt x="274" y="1478" on="0"/>
        <pt x="279" y="1478" on="1"/>
        <pt x="307" y="1478" on="0"/>
        <pt x="307" y="1421" on="1"/>
        <pt x="309" y="1377" on="0"/>
        <pt x="313" y="1322" on="1"/>
        <pt x="316" y="1274" on="0"/>
        <pt x="323" y="1141" on="0"/>
        <pt x="326" y="1056" on="1"/>
        <pt x="362" y="1148" on="0"/>
        <pt x="451" y="1275" on="0"/>
        <pt x="544" y="1357" on="0"/>
        <pt x="633" y="1401" on="0"/>
        <pt x="702" y="1422" on="0"/>
        <pt x="744" y="1425" on="0"/>
        <pt x="745" y="1425" on="1"/>
        <pt x="819" y="1425" on="0"/>
        <pt x="929" y="1384" on="0"/>
        <pt x="1008" y="1313" on="0"/>
        <pt x="1059" y="1217" on="0"/>
        <pt x="1088" y="1107" on="0"/>
        <pt x="1100" y="987" on="0"/>
        <pt x="1100" y="928" on="1"/>
        <pt x="1100" y="869" on="0"/>
        <pt x="1092" y="760" on="0"/>
        <pt x="1087" y="713" on="1"/>
        <pt x="1080" y="647" on="0"/>
        <pt x="1068" y="527" on="0"/>
        <pt x="1059" y="411" on="0"/>
        <pt x="1053" y="296" on="0"/>
        <pt x="1053" y="235" on="1"/>
        <pt x="1053" y="106" on="0"/>
        <pt x="1077" y="-101" on="0"/>
        <pt x="1133" y="-269" on="0"/>
        <pt x="1226" y="-402" on="0"/>
        <pt x="1295" y="-456" on="1"/>
        <pt x="1306" y="-465" on="0"/>
        <pt x="1318" y="-476" on="0"/>
        <pt x="1318" y="-484" on="1"/>
        <pt x="1318" y="-497" on="0"/>
        <pt x="1300" y="-497" on="1"/>
        <pt x="1290" y="-497" on="0"/>
        <pt x="1278" y="-493" on="1"/>
        <pt x="1209" y="-467" on="0"/>
        <pt x="1061" y="-366" on="0"/>
        <pt x="939" y="-204" on="0"/>
        <pt x="860" y="26" on="0"/>
      </contour>
    </TTGlyph>
    <TTGlyph name="Nacute" xMin="85" yMin="-497" xMax="1318" yMax="1777">
      <component glyphName="N" x="0" y="0" flags="0x204"/>
      <component glyphName="acute" x="460" y="747" flags="0x4"/>
    </TTGlyph>
    <TTGlyph name="Ncaron" xMin="85" yMin="-497" xMax="1318" yMax="1774">
      <component glyphName="N" x="0" y="0" flags="0x204"/>
      <component glyphName="caron" x="405" y="747" flags="0x4"/>
    </TTGlyph>
    <TTGlyph name="Ncommaaccent" xMin="85" yMin="-502" xMax="1318" yMax="1478">
      <component glyphName="N" x="0" y="0" flags="0x204"/>
      <component glyphName="commaaccent" x="357" y="-29" flags="0x4"/>
    </TTGlyph>
    <TTGlyph name="Ntilde" xMin="85" yMin="-497" xMax="1318" yMax="1718">
      <component glyphName="N" x="0" y="0" flags="0x204"/>
      <component glyphName="tilde" x="397" y="747" flags="0x4"/>
    </TTGlyph>
    <TTGlyph name="O" xMin="65" yMin="-126" xMax="1174" yMax="1429">
      <contour>
        <pt x="1174" y="655" on="1"/>
        <pt x="1174" y="534" on="0"/>
        <pt x="1127" y="325" on="0"/>
        <pt x="1046" y="151" on="0"/>
        <pt x="934" y="16" on="0"/>
        <pt x="805" y="-77" on="0"/>
        <pt x="662" y="-126" on="0"/>
        <pt x="590" y="-126" on="1"/>
        <pt x="537" y="-126" on="0"/>
        <pt x="418" y="-92" on="0"/>
        <pt x="301" y="-21" on="0"/>
        <pt x="195" y="90" on="0"/>
        <pt x="113" y="244" on="0"/>
        <pt x="65" y="444" on="0"/>
        <pt x="65" y="569" on="1"/>
        <pt x="65" y="693" on="0"/>
        <pt x="110" y="939" on="0"/>
        <pt x="206" y="1163" on="0"/>
        <pt x="357" y="1354" on="0"/>
        <pt x="463" y="1423" on="1"/>
        <pt x="473" y="1429" on="0"/>
        <pt x="483" y="1429" on="1"/>
        <pt x="499" y="1429" on="0"/>
        <pt x="499" y="1415" on="1"/>
        <pt x="499" y="1406" on="0"/>
        <pt x="492" y="1399" on="1"/>
        <pt x="486" y="1393" on="0"/>
        <pt x="447" y="1352" on="0"/>
        <pt x="395" y="1275" on="0"/>
        <pt x="337" y="1160" on="0"/>
        <pt x="288" y="997" on="0"/>
        <pt x="256" y="785" on="0"/>
        <pt x="256" y="651" on="1"/>
        <pt x="256" y="486" on="0"/>
        <pt x="311" y="247" on="0"/>
        <pt x="407" y="91" on="0"/>
        <pt x="536" y="16" on="0"/>
        <pt x="610" y="16" on="1"/>
        <pt x="643" y="16" on="0"/>
        <pt x="722" y="44" on="0"/>
        <pt x="801" y="108" on="0"/>
        <pt x="875" y="213" on="0"/>
        <pt x="932" y="368" on="0"/>
        <pt x="967" y="576" on="0"/>
        <pt x="967" y="712" on="1"/>
        <pt x="967" y="825" on="0"/>
        <pt x="942" y="1000" on="0"/>
        <pt x="902" y="1129" on="0"/>
        <pt x="851" y="1217" on="0"/>
        <pt x="798" y="1271" on="0"/>
        <pt x="747" y="1294" on="0"/>
        <pt x="728" y="1294" on="1"/>
        <pt x="677" y="1294" on="0"/>
        <pt x="616" y="1189" on="0"/>
        <pt x="616" y="1080" on="1"/>
        <pt x="616" y="1003" on="0"/>
        <pt x="645" y="815" on="0"/>
        <pt x="699" y="626" on="0"/>
        <pt x="778" y="455" on="0"/>
        <pt x="828" y="397" on="1"/>
        <pt x="836" y="387" on="0"/>
        <pt x="836" y="381" on="1"/>
        <pt x="836" y="365" on="0"/>
        <pt x="803" y="365" on="1"/>
        <pt x="776" y="365" on="0"/>
        <pt x="699" y="402" on="0"/>
        <pt x="616" y="472" on="0"/>
        <pt x="535" y="575" on="0"/>
        <pt x="470" y="707" on="0"/>
        <pt x="430" y="867" on="0"/>
        <pt x="430" y="960" on="1"/>
        <pt x="430" y="1063" on="0"/>
        <pt x="487" y="1226" on="0"/>
        <pt x="579" y="1339" on="0"/>
        <pt x="696" y="1398" on="0"/>
        <pt x="755" y="1398" on="1"/>
        <pt x="797" y="1398" on="0"/>
        <pt x="893" y="1363" on="0"/>
        <pt x="986" y="1289" on="0"/>
        <pt x="1071" y="1172" on="0"/>
        <pt x="1136" y="1007" on="0"/>
        <pt x="1174" y="791" on="0"/>
      </contour>
    </TTGlyph>
    <TTGlyph name="OE" xMin="65" yMin="-126" xMax="1975" yMax="1429">
      <contour>
        <pt x="1573" y="1425" on="1"/>
        <pt x="1672" y="1425" on="0"/>
        <pt x="1815" y="1376" on="0"/>
        <pt x="1911" y="1311" on="0"/>
        <pt x="1963" y="1245" on="0"/>
        <pt x="1970" y="1227" on="1"/>
        <pt x="1974" y="1218" on="0"/>
        <pt x="1975" y="1205" on="0"/>
        <pt x="1975" y="1200" on="1"/>
        <pt x="1975" y="1188" on="0"/>
        <pt x="1964" y="1178" on="0"/>
        <pt x="1956" y="1165" on="1"/>
        <pt x="1950" y="1155" on="0"/>
        <pt x="1935" y="1147" on="0"/>
        <pt x="1918" y="1141" on="0"/>
        <pt x="1903" y="1132" on="0"/>
        <pt x="1898" y="1122" on="1"/>
        <pt x="1882" y="1092" on="0"/>
        <pt x="1853" y="1092" on="1"/>
        <pt x="1836" y="1092" on="0"/>
        <pt x="1804" y="1113" on="0"/>
        <pt x="1764" y="1145" on="0"/>
        <pt x="1711" y="1183" on="0"/>
        <pt x="1634" y="1215" on="0"/>
        <pt x="1528" y="1236" on="0"/>
        <pt x="1455" y="1236" on="1"/>
        <pt x="1375" y="1236" on="0"/>
        <pt x="1254" y="1187" on="0"/>
        <pt x="1202" y="1139" on="1"/>
        <pt x="1157" y="1097" on="0"/>
        <pt x="1112" y="1003" on="0"/>
        <pt x="1112" y="959" on="1"/>
        <pt x="1112" y="908" on="0"/>
        <pt x="1145" y="866" on="1"/>
        <pt x="1169" y="836" on="0"/>
        <pt x="1264" y="778" on="0"/>
        <pt x="1373" y="726" on="0"/>
        <pt x="1478" y="683" on="0"/>
        <pt x="1511" y="668" on="1"/>
        <pt x="1540" y="655" on="0"/>
        <pt x="1559" y="629" on="0"/>
        <pt x="1559" y="615" on="1"/>
        <pt x="1559" y="600" on="0"/>
        <pt x="1548" y="567" on="0"/>
        <pt x="1548" y="550" on="1"/>
        <pt x="1548" y="542" on="0"/>
        <pt x="1552" y="528" on="0"/>
        <pt x="1552" y="521" on="1"/>
        <pt x="1552" y="505" on="0"/>
        <pt x="1533" y="482" on="0"/>
        <pt x="1502" y="464" on="0"/>
        <pt x="1462" y="450" on="0"/>
        <pt x="1442" y="444" on="1"/>
        <pt x="1413" y="435" on="0"/>
        <pt x="1323" y="401" on="0"/>
        <pt x="1239" y="344" on="0"/>
        <pt x="1179" y="260" on="0"/>
        <pt x="1179" y="200" on="1"/>
        <pt x="1179" y="160" on="0"/>
        <pt x="1213" y="90" on="0"/>
        <pt x="1276" y="37" on="0"/>
        <pt x="1364" y="7" on="0"/>
        <pt x="1417" y="7" on="1"/>
        <pt x="1538" y="7" on="0"/>
        <pt x="1734" y="113" on="0"/>
        <pt x="1797" y="205" on="1"/>
        <pt x="1811" y="225" on="0"/>
        <pt x="1850" y="300" on="0"/>
        <pt x="1872" y="354" on="1"/>
        <pt x="1877" y="366" on="0"/>
        <pt x="1893" y="379" on="0"/>
        <pt x="1901" y="379" on="1"/>
        <pt x="1907" y="379" on="0"/>
        <pt x="1916" y="370" on="0"/>
        <pt x="1916" y="362" on="1"/>
        <pt x="1916" y="354" on="0"/>
        <pt x="1898" y="303" on="0"/>
        <pt x="1866" y="234" on="0"/>
        <pt x="1821" y="154" on="0"/>
        <pt x="1795" y="117" on="1"/>
        <pt x="1759" y="66" on="0"/>
        <pt x="1664" y="-23" on="0"/>
        <pt x="1553" y="-89" on="0"/>
        <pt x="1427" y="-126" on="0"/>
        <pt x="1358" y="-126" on="1"/>
        <pt x="1299" y="-126" on="0"/>
        <pt x="1179" y="-95" on="0"/>
        <pt x="1078" y="-30" on="0"/>
        <pt x="1009" y="67" on="0"/>
        <pt x="1003" y="133" on="1"/>
        <pt x="926" y="8" on="0"/>
        <pt x="711" y="-126" on="0"/>
        <pt x="590" y="-126" on="1"/>
        <pt x="537" y="-126" on="0"/>
        <pt x="418" y="-92" on="0"/>
        <pt x="301" y="-21" on="0"/>
        <pt x="195" y="90" on="0"/>
        <pt x="113" y="244" on="0"/>
        <pt x="65" y="444" on="0"/>
        <pt x="65" y="569" on="1"/>
        <pt x="65" y="693" on="0"/>
        <pt x="110" y="939" on="0"/>
        <pt x="206" y="1163" on="0"/>
        <pt x="357" y="1354" on="0"/>
        <pt x="463" y="1423" on="1"/>
        <pt x="473" y="1429" on="0"/>
        <pt x="483" y="1429" on="1"/>
        <pt x="499" y="1429" on="0"/>
        <pt x="499" y="1415" on="1"/>
        <pt x="499" y="1406" on="0"/>
        <pt x="492" y="1399" on="1"/>
        <pt x="486" y="1393" on="0"/>
        <pt x="447" y="1352" on="0"/>
        <pt x="395" y="1275" on="0"/>
        <pt x="337" y="1160" on="0"/>
        <pt x="288" y="997" on="0"/>
        <pt x="256" y="785" on="0"/>
        <pt x="256" y="651" on="1"/>
        <pt x="256" y="486" on="0"/>
        <pt x="311" y="247" on="0"/>
        <pt x="407" y="91" on="0"/>
        <pt x="536" y="16" on="0"/>
        <pt x="610" y="16" on="1"/>
        <pt x="643" y="16" on="0"/>
        <pt x="722" y="44" on="0"/>
        <pt x="801" y="108" on="0"/>
        <pt x="875" y="213" on="0"/>
        <pt x="932" y="368" on="0"/>
        <pt x="967" y="576" on="0"/>
        <pt x="967" y="712" on="1"/>
        <pt x="967" y="825" on="0"/>
        <pt x="942" y="1000" on="0"/>
        <pt x="902" y="1129" on="0"/>
        <pt x="851" y="1217" on="0"/>
        <pt x="798" y="1271" on="0"/>
        <pt x="747" y="1294" on="0"/>
        <pt x="728" y="1294" on="1"/>
        <pt x="677" y="1294" on="0"/>
        <pt x="616" y="1189" on="0"/>
        <pt x="616" y="1080" on="1"/>
        <pt x="616" y="1003" on="0"/>
        <pt x="645" y="815" on="0"/>
        <pt x="699" y="626" on="0"/>
        <pt x="778" y="455" on="0"/>
        <pt x="828" y="397" on="1"/>
        <pt x="836" y="387" on="0"/>
        <pt x="836" y="381" on="1"/>
        <pt x="836" y="365" on="0"/>
        <pt x="803" y="365" on="1"/>
        <pt x="776" y="365" on="0"/>
        <pt x="699" y="402" on="0"/>
        <pt x="616" y="472" on="0"/>
        <pt x="535" y="575" on="0"/>
        <pt x="470" y="707" on="0"/>
        <pt x="430" y="867" on="0"/>
        <pt x="430" y="960" on="1"/>
        <pt x="430" y="1063" on="0"/>
        <pt x="487" y="1226" on="0"/>
        <pt x="579" y="1339" on="0"/>
        <pt x="696" y="1398" on="0"/>
        <pt x="755" y="1398" on="1"/>
        <pt x="795" y="1398" on="0"/>
        <pt x="879" y="1367" on="0"/>
        <pt x="959" y="1302" on="0"/>
        <pt x="1031" y="1199" on="0"/>
        <pt x="1060" y="1127" on="1"/>
        <pt x="1097" y="1191" on="0"/>
        <pt x="1206" y="1300" on="0"/>
        <pt x="1339" y="1380" on="0"/>
        <pt x="1492" y="1425" on="0"/>
      </contour>
      <contour>
        <pt x="1210" y="594" on="1"/>
        <pt x="1189" y="605" on="0"/>
        <pt x="1151" y="628" on="0"/>
        <pt x="1134" y="641" on="1"/>
        <pt x="1133" y="569" on="0"/>
        <pt x="1116" y="436" on="0"/>
        <pt x="1102" y="376" on="1"/>
        <pt x="1144" y="412" on="0"/>
        <pt x="1240" y="457" on="0"/>
        <pt x="1322" y="485" on="0"/>
        <pt x="1377" y="503" on="0"/>
        <pt x="1377" y="512" on="1"/>
        <pt x="1377" y="519" on="0"/>
        <pt x="1348" y="534" on="0"/>
        <pt x="1301" y="553" on="0"/>
        <pt x="1241" y="577" on="0"/>
      </contour>
    </TTGlyph>
    <TTGlyph name="Oacute" xMin="65" yMin="-126" xMax="1174" yMax="1779">
      <component glyphName="O" x="0" y="0" flags="0x204"/>
      <component glyphName="acute" x="501" y="749" flags="0x4"/>
    </TTGlyph>
    <TTGlyph name="Obreve" xMin="65" yMin="-126" xMax="1174" yMax="1767">
      <component glyphName="O" x="0" y="0" flags="0x204"/>
      <component glyphName="breve" x="461" y="749" flags="0x4"/>
    </TTGlyph>
    <TTGlyph name="Ocircumflex" xMin="65" yMin="-126" xMax="1174" yMax="1776">
      <component glyphName="O" x="0" y="0" flags="0x204"/>
      <component glyphName="circumflex" x="438" y="749" flags="0x4"/>
    </TTGlyph>
    <TTGlyph name="Odieresis" xMin="65" yMin="-126" xMax="1174" yMax="1754">
      <component glyphName="O" x="0" y="0" flags="0x204"/>
      <component glyphName="dieresis" x="438" y="749" flags="0x4"/>
    </TTGlyph>
    <TTGlyph name="Ograve" xMin="65" yMin="-126" xMax="1174" yMax="1779">
      <component glyphName="O" x="0" y="0" flags="0x204"/>
      <component glyphName="grave" x="378" y="749" flags="0x4"/>
    </TTGlyph>
    <TTGlyph name="Ohungarumlaut" xMin="65" yMin="-126" xMax="1174" yMax="1779">
      <component glyphName="O" x="0" y="0" flags="0x204"/>
      <component glyphName="hungarumlaut" x="511" y="749" flags="0x4"/>
    </TTGlyph>
    <TTGlyph name="Omacron" xMin="65" yMin="-126" xMax="1174" yMax="1738">
      <component glyphName="O" x="0" y="0" flags="0x204"/>
      <component glyphName="macron" x="445" y="749" flags="0x4"/>
    </TTGlyph>
    <TTGlyph name="Oslash" xMin="65" yMin="-265" xMax="1174" yMax="1593">
      <contour>
        <pt x="1164" y="1515" on="1"/>
        <pt x="1162" y="1507" on="0"/>
        <pt x="1141" y="1459" on="0"/>
        <pt x="1104" y="1385" on="0"/>
        <pt x="1053" y="1286" on="0"/>
        <pt x="1023" y="1228" on="1"/>
        <pt x="1055" y="1184" on="0"/>
        <pt x="1110" y="1070" on="0"/>
        <pt x="1151" y="927" on="0"/>
        <pt x="1174" y="756" on="0"/>
        <pt x="1174" y="655" on="1"/>
        <pt x="1174" y="534" on="0"/>
        <pt x="1127" y="325" on="0"/>
        <pt x="1046" y="151" on="0"/>
        <pt x="934" y="16" on="0"/>
        <pt x="805" y="-77" on="0"/>
        <pt x="662" y="-126" on="0"/>
        <pt x="590" y="-126" on="1"/>
        <pt x="530" y="-126" on="0"/>
        <pt x="396" y="-83" on="0"/>
        <pt x="331" y="-38" on="1"/>
        <pt x="283" y="-121" on="0"/>
        <pt x="221" y="-227" on="0"/>
        <pt x="210" y="-240" on="1"/>
        <pt x="203" y="-248" on="0"/>
        <pt x="183" y="-258" on="0"/>
        <pt x="162" y="-263" on="0"/>
        <pt x="141" y="-265" on="0"/>
        <pt x="133" y="-265" on="1"/>
        <pt x="116" y="-265" on="0"/>
        <pt x="95" y="-254" on="0"/>
        <pt x="95" y="-241" on="1"/>
        <pt x="95" y="-230" on="0"/>
        <pt x="111" y="-208" on="0"/>
        <pt x="117" y="-198" on="1"/>
        <pt x="134" y="-169" on="0"/>
        <pt x="202" y="-49" on="0"/>
        <pt x="248" y="34" on="1"/>
        <pt x="209" y="76" on="0"/>
        <pt x="142" y="183" on="0"/>
        <pt x="93" y="316" on="0"/>
        <pt x="65" y="475" on="0"/>
        <pt x="65" y="569" on="1"/>
        <pt x="65" y="693" on="0"/>
        <pt x="110" y="939" on="0"/>
        <pt x="206" y="1163" on="0"/>
        <pt x="357" y="1354" on="0"/>
        <pt x="463" y="1423" on="1"/>
        <pt x="473" y="1429" on="0"/>
        <pt x="483" y="1429" on="1"/>
        <pt x="499" y="1429" on="0"/>
        <pt x="499" y="1415" on="1"/>
        <pt x="499" y="1406" on="0"/>
        <pt x="492" y="1399" on="1"/>
        <pt x="486" y="1393" on="0"/>
        <pt x="447" y="1352" on="0"/>
        <pt x="395" y="1275" on="0"/>
        <pt x="337" y="1160" on="0"/>
        <pt x="288" y="997" on="0"/>
        <pt x="256" y="785" on="0"/>
        <pt x="256" y="651" on="1"/>
        <pt x="256" y="502" on="0"/>
        <pt x="300" y="280" on="0"/>
        <pt x="340" y="202" on="1"/>
        <pt x="414" y="338" on="0"/>
        <pt x="581" y="647" on="0"/>
        <pt x="664" y="802" on="1"/>
        <pt x="612" y="803" on="0"/>
        <pt x="521" y="831" on="0"/>
        <pt x="454" y="890" on="0"/>
        <pt x="416" y="982" on="0"/>
        <pt x="416" y="1046" on="1"/>
        <pt x="416" y="1083" on="0"/>
        <pt x="434" y="1164" on="0"/>
        <pt x="471" y="1242" on="0"/>
        <pt x="525" y="1313" on="0"/>
        <pt x="597" y="1366" on="0"/>
        <pt x="686" y="1398" on="0"/>
        <pt x="739" y="1398" on="1"/>
        <pt x="784" y="1398" on="0"/>
        <pt x="886" y="1361" on="0"/>
        <pt x="937" y="1320" on="1"/>
        <pt x="973" y="1391" on="0"/>
        <pt x="1025" y="1495" on="0"/>
        <pt x="1037" y="1522" on="1"/>
        <pt x="1054" y="1560" on="0"/>
        <pt x="1083" y="1593" on="0"/>
        <pt x="1097" y="1593" on="1"/>
        <pt x="1105" y="1593" on="0"/>
        <pt x="1114" y="1586" on="0"/>
        <pt x="1118" y="1586" on="1"/>
        <pt x="1126" y="1586" on="0"/>
        <pt x="1131" y="1582" on="0"/>
        <pt x="1133" y="1577" on="0"/>
        <pt x="1135" y="1573" on="0"/>
        <pt x="1140" y="1573" on="1"/>
        <pt x="1157" y="1573" on="0"/>
        <pt x="1167" y="1553" on="0"/>
        <pt x="1167" y="1542" on="1"/>
        <pt x="1167" y="1532" on="0"/>
        <pt x="1165" y="1520" on="0"/>
      </contour>
      <contour>
        <pt x="967" y="712" on="1"/>
        <pt x="967" y="818" on="0"/>
        <pt x="945" y="982" on="0"/>
        <pt x="927" y="1045" on="1"/>
        <pt x="867" y="934" on="0"/>
        <pt x="734" y="687" on="0"/>
        <pt x="598" y="439" on="0"/>
        <pt x="468" y="202" on="0"/>
        <pt x="411" y="101" on="1"/>
        <pt x="453" y="57" on="0"/>
        <pt x="554" y="16" on="0"/>
        <pt x="610" y="16" on="1"/>
        <pt x="643" y="16" on="0"/>
        <pt x="722" y="44" on="0"/>
        <pt x="801" y="108" on="0"/>
        <pt x="875" y="213" on="0"/>
        <pt x="932" y="368" on="0"/>
        <pt x="967" y="576" on="0"/>
      </contour>
      <contour>
        <pt x="664" y="858" on="1"/>
        <pt x="679" y="850" on="0"/>
        <pt x="681" y="834" on="1"/>
        <pt x="732" y="928" on="0"/>
        <pt x="824" y="1105" on="0"/>
        <pt x="866" y="1183" on="1"/>
        <pt x="827" y="1244" on="0"/>
        <pt x="739" y="1294" on="0"/>
        <pt x="702" y="1294" on="1"/>
        <pt x="644" y="1294" on="0"/>
        <pt x="569" y="1203" on="0"/>
        <pt x="569" y="1118" on="1"/>
        <pt x="569" y="1080" on="0"/>
        <pt x="586" y="994" on="0"/>
        <pt x="613" y="919" on="0"/>
        <pt x="647" y="865" on="0"/>
      </contour>
    </TTGlyph>
    <TTGlyph name="Oslashacute" xMin="65" yMin="-265" xMax="1174" yMax="1779">
      <component glyphName="Oslash" x="0" y="0" flags="0x204"/>
      <component glyphName="acute" x="501" y="749" flags="0x4"/>
    </TTGlyph>
    <TTGlyph name="Otilde" xMin="65" yMin="-126" xMax="1174" yMax="1720">
      <component glyphName="O" x="0" y="0" flags="0x204"/>
      <component glyphName="tilde" x="438" y="749" flags="0x4"/>
    </TTGlyph>
    <TTGlyph name="P" xMin="20" yMin="-125" xMax="1217" yMax="1426">
      <contour>
        <pt x="475" y="1106" on="1"/>
        <pt x="485" y="1128" on="0"/>
        <pt x="521" y="1155" on="0"/>
        <pt x="544" y="1155" on="1"/>
        <pt x="552" y="1155" on="0"/>
        <pt x="578" y="1145" on="0"/>
        <pt x="578" y="1134" on="1"/>
        <pt x="578" y="1126" on="0"/>
        <pt x="575" y="1113" on="0"/>
        <pt x="573" y="1102" on="1"/>
        <pt x="555" y="1017" on="0"/>
        <pt x="528" y="841" on="0"/>
        <pt x="508" y="671" on="0"/>
        <pt x="495" y="514" on="0"/>
        <pt x="488" y="380" on="0"/>
        <pt x="485" y="277" on="0"/>
        <pt x="485" y="246" on="1"/>
        <pt x="485" y="196" on="0"/>
        <pt x="484" y="92" on="0"/>
        <pt x="484" y="1" on="0"/>
        <pt x="483" y="-69" on="0"/>
        <pt x="483" y="-84" on="1"/>
        <pt x="483" y="-88" on="0"/>
        <pt x="483" y="-102" on="0"/>
        <pt x="479" y="-115" on="0"/>
        <pt x="470" y="-125" on="0"/>
        <pt x="462" y="-125" on="1"/>
        <pt x="449" y="-125" on="0"/>
        <pt x="427" y="-115" on="0"/>
        <pt x="407" y="-102" on="0"/>
        <pt x="388" y="-92" on="0"/>
        <pt x="379" y="-92" on="1"/>
        <pt x="368" y="-92" on="0"/>
        <pt x="354" y="-106" on="0"/>
        <pt x="344" y="-106" on="1"/>
        <pt x="332" y="-106" on="0"/>
        <pt x="318" y="-94" on="0"/>
        <pt x="312" y="-76" on="0"/>
        <pt x="311" y="-56" on="0"/>
        <pt x="311" y="-48" on="1"/>
        <pt x="311" y="-29" on="0"/>
        <pt x="312" y="53" on="0"/>
        <pt x="315" y="156" on="0"/>
        <pt x="319" y="269" on="0"/>
        <pt x="321" y="319" on="1"/>
        <pt x="324" y="377" on="0"/>
        <pt x="333" y="510" on="0"/>
        <pt x="345" y="642" on="0"/>
        <pt x="358" y="767" on="0"/>
        <pt x="369" y="870" on="0"/>
        <pt x="378" y="942" on="0"/>
        <pt x="380" y="956" on="1"/>
        <pt x="387" y="1000" on="0"/>
        <pt x="402" y="1062" on="0"/>
        <pt x="411" y="1073" on="1"/>
        <pt x="418" y="1082" on="0"/>
        <pt x="428" y="1089" on="1"/>
        <pt x="436" y="1095" on="0"/>
        <pt x="460" y="1106" on="0"/>
      </contour>
      <contour>
        <pt x="613" y="1265" on="1"/>
        <pt x="539" y="1265" on="0"/>
        <pt x="385" y="1234" on="0"/>
        <pt x="259" y="1164" on="0"/>
        <pt x="178" y="1049" on="0"/>
        <pt x="178" y="964" on="1"/>
        <pt x="178" y="920" on="0"/>
        <pt x="200" y="840" on="0"/>
        <pt x="230" y="774" on="0"/>
        <pt x="260" y="727" on="0"/>
        <pt x="269" y="716" on="1"/>
        <pt x="274" y="710" on="0"/>
        <pt x="282" y="694" on="0"/>
        <pt x="282" y="688" on="1"/>
        <pt x="282" y="680" on="0"/>
        <pt x="269" y="668" on="0"/>
        <pt x="252" y="668" on="1"/>
        <pt x="228" y="668" on="0"/>
        <pt x="149" y="701" on="0"/>
        <pt x="74" y="769" on="0"/>
        <pt x="20" y="875" on="0"/>
        <pt x="20" y="947" on="1"/>
        <pt x="20" y="998" on="0"/>
        <pt x="60" y="1108" on="0"/>
        <pt x="137" y="1215" on="0"/>
        <pt x="250" y="1311" on="0"/>
        <pt x="395" y="1383" on="0"/>
        <pt x="570" y="1426" on="0"/>
        <pt x="672" y="1426" on="1"/>
        <pt x="808" y="1426" on="0"/>
        <pt x="1012" y="1339" on="0"/>
        <pt x="1148" y="1195" on="0"/>
        <pt x="1217" y="1007" on="0"/>
        <pt x="1217" y="905" on="1"/>
        <pt x="1217" y="780" on="0"/>
        <pt x="1132" y="578" on="0"/>
        <pt x="972" y="436" on="0"/>
        <pt x="742" y="359" on="0"/>
        <pt x="597" y="359" on="1"/>
        <pt x="586" y="359" on="0"/>
        <pt x="561" y="358" on="0"/>
        <pt x="540" y="363" on="0"/>
        <pt x="527" y="374" on="0"/>
        <pt x="527" y="386" on="1"/>
        <pt x="527" y="397" on="0"/>
        <pt x="539" y="417" on="0"/>
        <pt x="550" y="418" on="1"/>
        <pt x="679" y="428" on="0"/>
        <pt x="855" y="502" on="0"/>
        <pt x="962" y="617" on="0"/>
        <pt x="1009" y="768" on="0"/>
        <pt x="1009" y="855" on="1"/>
        <pt x="1009" y="965" on="0"/>
        <pt x="947" y="1121" on="0"/>
        <pt x="839" y="1220" on="0"/>
        <pt x="695" y="1265" on="0"/>
      </contour>
    </TTGlyph>
    <TTGlyph name="Q" xMin="65" yMin="-385" xMax="1174" yMax="1429">
      <contour>
        <pt x="256" y="651" on="1"/>
        <pt x="256" y="491" on="0"/>
        <pt x="308" y="255" on="0"/>
        <pt x="399" y="99" on="0"/>
        <pt x="522" y="20" on="0"/>
        <pt x="593" y="16" on="1"/>
        <pt x="544" y="81" on="0"/>
        <pt x="460" y="237" on="0"/>
        <pt x="397" y="424" on="0"/>
        <pt x="361" y="643" on="0"/>
        <pt x="361" y="771" on="1"/>
        <pt x="361" y="879" on="0"/>
        <pt x="398" y="1052" on="0"/>
        <pt x="461" y="1184" on="0"/>
        <pt x="542" y="1280" on="0"/>
        <pt x="630" y="1340" on="0"/>
        <pt x="719" y="1369" on="0"/>
        <pt x="758" y="1369" on="1"/>
        <pt x="800" y="1369" on="0"/>
        <pt x="895" y="1336" on="0"/>
        <pt x="988" y="1265" on="0"/>
        <pt x="1072" y="1152" on="0"/>
        <pt x="1136" y="994" on="0"/>
        <pt x="1174" y="786" on="0"/>
        <pt x="1174" y="655" on="1"/>
        <pt x="1174" y="527" on="0"/>
        <pt x="1122" y="308" on="0"/>
        <pt x="1032" y="130" on="0"/>
        <pt x="910" y="-6" on="0"/>
        <pt x="840" y="-50" on="1"/>
        <pt x="915" y="-147" on="0"/>
        <pt x="1070" y="-285" on="0"/>
        <pt x="1141" y="-333" on="1"/>
        <pt x="1158" y="-345" on="0"/>
        <pt x="1158" y="-362" on="1"/>
        <pt x="1158" y="-371" on="0"/>
        <pt x="1144" y="-385" on="0"/>
        <pt x="1133" y="-385" on="1"/>
        <pt x="1121" y="-385" on="0"/>
        <pt x="1106" y="-379" on="0"/>
        <pt x="1102" y="-377" on="1"/>
        <pt x="1075" y="-363" on="0"/>
        <pt x="989" y="-320" on="0"/>
        <pt x="883" y="-256" on="0"/>
        <pt x="764" y="-168" on="0"/>
        <pt x="705" y="-110" on="1"/>
        <pt x="676" y="-118" on="0"/>
        <pt x="619" y="-126" on="0"/>
        <pt x="590" y="-126" on="1"/>
        <pt x="537" y="-126" on="0"/>
        <pt x="418" y="-92" on="0"/>
        <pt x="301" y="-21" on="0"/>
        <pt x="195" y="90" on="0"/>
        <pt x="113" y="244" on="0"/>
        <pt x="65" y="444" on="0"/>
        <pt x="65" y="569" on="1"/>
        <pt x="65" y="693" on="0"/>
        <pt x="110" y="939" on="0"/>
        <pt x="206" y="1163" on="0"/>
        <pt x="357" y="1354" on="0"/>
        <pt x="463" y="1423" on="1"/>
        <pt x="473" y="1429" on="0"/>
        <pt x="483" y="1429" on="1"/>
        <pt x="499" y="1429" on="0"/>
        <pt x="499" y="1415" on="1"/>
        <pt x="499" y="1406" on="0"/>
        <pt x="492" y="1399" on="1"/>
        <pt x="486" y="1393" on="0"/>
        <pt x="447" y="1352" on="0"/>
        <pt x="395" y="1275" on="0"/>
        <pt x="337" y="1160" on="0"/>
        <pt x="288" y="997" on="0"/>
        <pt x="256" y="785" on="0"/>
      </contour>
      <contour>
        <pt x="730" y="1267" on="1"/>
        <pt x="701" y="1267" on="0"/>
        <pt x="632" y="1232" on="0"/>
        <pt x="573" y="1148" on="0"/>
        <pt x="534" y="1006" on="0"/>
        <pt x="534" y="900" on="1"/>
        <pt x="534" y="831" on="0"/>
        <pt x="550" y="678" on="0"/>
        <pt x="580" y="520" on="0"/>
        <pt x="624" y="363" on="0"/>
        <pt x="651" y="292" on="1"/>
        <pt x="674" y="230" on="0"/>
        <pt x="728" y="122" on="0"/>
        <pt x="757" y="72" on="1"/>
        <pt x="797" y="103" on="0"/>
        <pt x="873" y="208" on="0"/>
        <pt x="931" y="364" on="0"/>
        <pt x="967" y="574" on="0"/>
        <pt x="967" y="712" on="1"/>
        <pt x="967" y="874" on="0"/>
        <pt x="915" y="1088" on="0"/>
        <pt x="840" y="1215" on="0"/>
        <pt x="759" y="1267" on="0"/>
      </contour>
    </TTGlyph>
    <TTGlyph name="R" xMin="30" yMin="-366" xMax="1430" yMax="1425">
      <contour>
        <pt x="485" y="1106" on="1"/>
        <pt x="495" y="1128" on="0"/>
        <pt x="531" y="1155" on="0"/>
        <pt x="554" y="1155" on="1"/>
        <pt x="562" y="1155" on="0"/>
        <pt x="588" y="1145" on="0"/>
        <pt x="588" y="1134" on="1"/>
        <pt x="588" y="1126" on="0"/>
        <pt x="585" y="1113" on="0"/>
        <pt x="583" y="1102" on="1"/>
        <pt x="567" y="1028" on="0"/>
        <pt x="543" y="877" on="0"/>
        <pt x="524" y="728" on="0"/>
        <pt x="510" y="586" on="0"/>
        <pt x="506" y="523" on="1"/>
        <pt x="541" y="523" on="0"/>
        <pt x="624" y="511" on="0"/>
        <pt x="673" y="486" on="1"/>
        <pt x="770" y="505" on="0"/>
        <pt x="903" y="578" on="0"/>
        <pt x="985" y="681" on="0"/>
        <pt x="1021" y="812" on="0"/>
        <pt x="1021" y="889" on="1"/>
        <pt x="1021" y="987" on="0"/>
        <pt x="964" y="1130" on="0"/>
        <pt x="863" y="1224" on="0"/>
        <pt x="725" y="1269" on="0"/>
        <pt x="644" y="1269" on="1"/>
        <pt x="560" y="1269" on="0"/>
        <pt x="396" y="1237" on="0"/>
        <pt x="267" y="1165" on="0"/>
        <pt x="188" y="1049" on="0"/>
        <pt x="188" y="964" on="1"/>
        <pt x="188" y="920" on="0"/>
        <pt x="210" y="840" on="0"/>
        <pt x="240" y="774" on="0"/>
        <pt x="270" y="727" on="0"/>
        <pt x="279" y="716" on="1"/>
        <pt x="284" y="710" on="0"/>
        <pt x="292" y="698" on="0"/>
        <pt x="292" y="688" on="1"/>
        <pt x="292" y="680" on="0"/>
        <pt x="279" y="668" on="0"/>
        <pt x="262" y="668" on="1"/>
        <pt x="238" y="668" on="0"/>
        <pt x="159" y="701" on="0"/>
        <pt x="84" y="769" on="0"/>
        <pt x="30" y="875" on="0"/>
        <pt x="30" y="947" on="1"/>
        <pt x="30" y="998" on="0"/>
        <pt x="68" y="1108" on="0"/>
        <pt x="144" y="1214" on="0"/>
        <pt x="257" y="1310" on="0"/>
        <pt x="407" y="1382" on="0"/>
        <pt x="592" y="1425" on="0"/>
        <pt x="703" y="1425" on="1"/>
        <pt x="834" y="1425" on="0"/>
        <pt x="1031" y="1345" on="0"/>
        <pt x="1163" y="1212" on="0"/>
        <pt x="1229" y="1037" on="0"/>
        <pt x="1229" y="942" on="1"/>
        <pt x="1229" y="825" on="0"/>
        <pt x="1148" y="650" on="0"/>
        <pt x="1018" y="524" on="0"/>
        <pt x="854" y="440" on="0"/>
        <pt x="771" y="415" on="1"/>
        <pt x="819" y="370" on="0"/>
        <pt x="926" y="224" on="0"/>
        <pt x="986" y="113" on="1"/>
        <pt x="1022" y="46" on="0"/>
        <pt x="1100" y="-94" on="0"/>
        <pt x="1198" y="-216" on="0"/>
        <pt x="1320" y="-309" on="0"/>
        <pt x="1400" y="-330" on="1"/>
        <pt x="1417" y="-335" on="0"/>
        <pt x="1430" y="-345" on="0"/>
        <pt x="1430" y="-350" on="1"/>
        <pt x="1430" y="-361" on="0"/>
        <pt x="1399" y="-366" on="0"/>
        <pt x="1378" y="-366" on="1"/>
        <pt x="1347" y="-366" on="0"/>
        <pt x="1250" y="-358" on="0"/>
        <pt x="1133" y="-324" on="0"/>
        <pt x="1005" y="-252" on="0"/>
        <pt x="943" y="-189" on="1"/>
        <pt x="898" y="-143" on="0"/>
        <pt x="834" y="-40" on="0"/>
        <pt x="785" y="65" on="0"/>
        <pt x="743" y="169" on="0"/>
        <pt x="699" y="265" on="0"/>
        <pt x="646" y="348" on="0"/>
        <pt x="609" y="379" on="1"/>
        <pt x="578" y="374" on="0"/>
        <pt x="522" y="370" on="0"/>
        <pt x="498" y="369" on="1"/>
        <pt x="496" y="330" on="0"/>
        <pt x="495" y="267" on="0"/>
        <pt x="495" y="246" on="1"/>
        <pt x="495" y="196" on="0"/>
        <pt x="494" y="92" on="0"/>
        <pt x="494" y="1" on="0"/>
        <pt x="493" y="-69" on="0"/>
        <pt x="493" y="-84" on="1"/>
        <pt x="493" y="-88" on="0"/>
        <pt x="493" y="-102" on="0"/>
        <pt x="489" y="-115" on="0"/>
        <pt x="480" y="-125" on="0"/>
        <pt x="472" y="-125" on="1"/>
        <pt x="459" y="-125" on="0"/>
        <pt x="437" y="-115" on="0"/>
        <pt x="417" y="-102" on="0"/>
        <pt x="398" y="-92" on="0"/>
        <pt x="389" y="-92" on="1"/>
        <pt x="378" y="-92" on="0"/>
        <pt x="364" y="-106" on="0"/>
        <pt x="354" y="-106" on="1"/>
        <pt x="342" y="-106" on="0"/>
        <pt x="328" y="-94" on="0"/>
        <pt x="322" y="-76" on="0"/>
        <pt x="321" y="-56" on="0"/>
        <pt x="321" y="-48" on="1"/>
        <pt x="321" y="-29" on="0"/>
        <pt x="322" y="53" on="0"/>
        <pt x="325" y="156" on="0"/>
        <pt x="329" y="269" on="0"/>
        <pt x="331" y="319" on="1"/>
        <pt x="334" y="380" on="1"/>
        <pt x="295" y="388" on="0"/>
        <pt x="252" y="412" on="0"/>
        <pt x="252" y="426" on="1"/>
        <pt x="252" y="443" on="0"/>
        <pt x="300" y="482" on="0"/>
        <pt x="342" y="497" on="1"/>
        <pt x="348" y="573" on="0"/>
        <pt x="363" y="724" on="0"/>
        <pt x="376" y="850" on="0"/>
        <pt x="387" y="940" on="0"/>
        <pt x="390" y="956" on="1"/>
        <pt x="397" y="1000" on="0"/>
        <pt x="412" y="1062" on="0"/>
        <pt x="421" y="1073" on="1"/>
        <pt x="428" y="1082" on="0"/>
        <pt x="438" y="1089" on="1"/>
        <pt x="446" y="1095" on="0"/>
        <pt x="470" y="1106" on="0"/>
      </contour>
    </TTGlyph>
    <TTGlyph name="Racute" xMin="30" yMin="-366" xMax="1430" yMax="1777">
      <component glyphName="R" x="0" y="0" flags="0x204"/>
      <component glyphName="acute" x="518" y="747" flags="0x4"/>
    </TTGlyph>
    <TTGlyph name="Rcaron" xMin="30" yMin="-366" xMax="1430" yMax="1774">
      <component glyphName="R" x="0" y="0" flags="0x204"/>
      <component glyphName="caron" x="463" y="747" flags="0x4"/>
    </TTGlyph>
    <TTGlyph name="Rcommaaccent" xMin="30" yMin="-502" xMax="1430" yMax="1425">
      <component glyphName="R" x="0" y="0" flags="0x204"/>
      <component glyphName="commaaccent" x="422" y="-29" flags="0x4"/>
    </TTGlyph>
    <TTGlyph name="S" xMin="85" yMin="-137" xMax="1044" yMax="1429">
      <contour>
        <pt x="1037" y="1257" on="1"/>
        <pt x="1044" y="1237" on="0"/>
        <pt x="1044" y="1228" on="1"/>
        <pt x="1044" y="1217" on="0"/>
        <pt x="1033" y="1207" on="0"/>
        <pt x="1027" y="1194" on="1"/>
        <pt x="1022" y="1183" on="0"/>
        <pt x="1007" y="1174" on="0"/>
        <pt x="992" y="1166" on="0"/>
        <pt x="978" y="1157" on="0"/>
        <pt x="974" y="1147" on="1"/>
        <pt x="967" y="1130" on="0"/>
        <pt x="940" y="1114" on="0"/>
        <pt x="924" y="1114" on="1"/>
        <pt x="908" y="1114" on="0"/>
        <pt x="877" y="1131" on="0"/>
        <pt x="840" y="1157" on="0"/>
        <pt x="793" y="1188" on="0"/>
        <pt x="725" y="1214" on="0"/>
        <pt x="633" y="1231" on="0"/>
        <pt x="571" y="1231" on="1"/>
        <pt x="481" y="1231" on="0"/>
        <pt x="338" y="1180" on="0"/>
        <pt x="278" y="1116" on="1"/>
        <pt x="238" y="1073" on="0"/>
        <pt x="200" y="982" on="0"/>
        <pt x="200" y="940" on="1"/>
        <pt x="200" y="902" on="0"/>
        <pt x="235" y="842" on="0"/>
        <pt x="295" y="793" on="0"/>
        <pt x="376" y="752" on="0"/>
        <pt x="469" y="713" on="0"/>
        <pt x="570" y="675" on="0"/>
        <pt x="620" y="653" on="1"/>
        <pt x="694" y="620" on="0"/>
        <pt x="812" y="541" on="0"/>
        <pt x="894" y="445" on="0"/>
        <pt x="938" y="333" on="0"/>
        <pt x="938" y="268" on="1"/>
        <pt x="938" y="185" on="0"/>
        <pt x="880" y="38" on="0"/>
        <pt x="760" y="-72" on="0"/>
        <pt x="579" y="-137" on="0"/>
        <pt x="456" y="-137" on="1"/>
        <pt x="370" y="-137" on="0"/>
        <pt x="240" y="-95" on="0"/>
        <pt x="151" y="-38" on="0"/>
        <pt x="100" y="19" on="0"/>
        <pt x="93" y="35" on="1"/>
        <pt x="88" y="46" on="0"/>
        <pt x="85" y="61" on="0"/>
        <pt x="85" y="66" on="1"/>
        <pt x="85" y="77" on="0"/>
        <pt x="94" y="87" on="0"/>
        <pt x="105" y="104" on="1"/>
        <pt x="109" y="111" on="0"/>
        <pt x="123" y="118" on="0"/>
        <pt x="138" y="125" on="0"/>
        <pt x="152" y="135" on="0"/>
        <pt x="157" y="145" on="1"/>
        <pt x="173" y="178" on="0"/>
        <pt x="204" y="178" on="1"/>
        <pt x="221" y="178" on="0"/>
        <pt x="254" y="155" on="0"/>
        <pt x="294" y="121" on="0"/>
        <pt x="345" y="80" on="0"/>
        <pt x="415" y="46" on="0"/>
        <pt x="506" y="23" on="0"/>
        <pt x="567" y="23" on="1"/>
        <pt x="643" y="23" on="0"/>
        <pt x="747" y="53" on="0"/>
        <pt x="810" y="106" on="0"/>
        <pt x="838" y="178" on="0"/>
        <pt x="838" y="220" on="1"/>
        <pt x="838" y="272" on="0"/>
        <pt x="799" y="348" on="0"/>
        <pt x="730" y="406" on="0"/>
        <pt x="634" y="451" on="0"/>
        <pt x="519" y="495" on="0"/>
        <pt x="390" y="542" on="0"/>
        <pt x="323" y="573" on="1"/>
        <pt x="270" y="597" on="0"/>
        <pt x="182" y="656" on="0"/>
        <pt x="119" y="730" on="0"/>
        <pt x="85" y="823" on="0"/>
        <pt x="85" y="882" on="1"/>
        <pt x="85" y="953" on="0"/>
        <pt x="128" y="1090" on="0"/>
        <pt x="206" y="1211" on="0"/>
        <pt x="315" y="1313" on="0"/>
        <pt x="445" y="1388" on="0"/>
        <pt x="593" y="1429" on="0"/>
        <pt x="672" y="1429" on="1"/>
        <pt x="759" y="1429" on="0"/>
        <pt x="891" y="1386" on="0"/>
        <pt x="981" y="1329" on="0"/>
        <pt x="1031" y="1272" on="0"/>
      </contour>
    </TTGlyph>
    <TTGlyph name="Sacute" xMin="85" yMin="-137" xMax="1044" yMax="1782">
      <component glyphName="S" x="0" y="0" flags="0x204"/>
      <component glyphName="acute" x="456" y="752" flags="0x4"/>
    </TTGlyph>
    <TTGlyph name="Scaron" xMin="85" yMin="-137" xMax="1044" yMax="1779">
      <component glyphName="S" x="0" y="0" flags="0x204"/>
      <component glyphName="caron" x="401" y="752" flags="0x4"/>
    </TTGlyph>
    <TTGlyph name="Scedilla" xMin="85" yMin="-490" xMax="1044" yMax="1429">
      <contour>
        <pt x="659" y="-335" on="1"/>
        <pt x="659" y="-373" on="0"/>
        <pt x="631" y="-431" on="0"/>
        <pt x="584" y="-470" on="0"/>
        <pt x="523" y="-490" on="0"/>
        <pt x="489" y="-490" on="1"/>
        <pt x="455" y="-490" on="0"/>
        <pt x="408" y="-468" on="0"/>
        <pt x="378" y="-438" on="0"/>
        <pt x="364" y="-406" on="0"/>
        <pt x="364" y="-396" on="1"/>
        <pt x="364" y="-381" on="0"/>
        <pt x="375" y="-381" on="1"/>
        <pt x="381" y="-381" on="0"/>
        <pt x="393" y="-392" on="0"/>
        <pt x="411" y="-405" on="0"/>
        <pt x="440" y="-416" on="0"/>
        <pt x="463" y="-416" on="1"/>
        <pt x="504" y="-416" on="0"/>
        <pt x="559" y="-368" on="0"/>
        <pt x="559" y="-328" on="1"/>
        <pt x="559" y="-312" on="0"/>
        <pt x="547" y="-289" on="0"/>
        <pt x="529" y="-275" on="0"/>
        <pt x="507" y="-268" on="0"/>
        <pt x="497" y="-268" on="1"/>
        <pt x="478" y="-268" on="0"/>
        <pt x="454" y="-275" on="0"/>
        <pt x="439" y="-282" on="0"/>
        <pt x="431" y="-289" on="0"/>
        <pt x="427" y="-289" on="1"/>
        <pt x="422" y="-289" on="0"/>
        <pt x="413" y="-280" on="0"/>
        <pt x="413" y="-274" on="1"/>
        <pt x="413" y="-268" on="0"/>
        <pt x="427" y="-249" on="0"/>
        <pt x="451" y="-217" on="0"/>
        <pt x="481" y="-171" on="0"/>
        <pt x="496" y="-136" on="1"/>
        <pt x="486" y="-136" on="0"/>
        <pt x="467" y="-137" on="0"/>
        <pt x="456" y="-137" on="1"/>
        <pt x="370" y="-137" on="0"/>
        <pt x="240" y="-95" on="0"/>
        <pt x="151" y="-38" on="0"/>
        <pt x="100" y="19" on="0"/>
        <pt x="93" y="35" on="1"/>
        <pt x="88" y="46" on="0"/>
        <pt x="85" y="61" on="0"/>
        <pt x="85" y="66" on="1"/>
        <pt x="85" y="77" on="0"/>
        <pt x="94" y="87" on="0"/>
        <pt x="105" y="104" on="1"/>
        <pt x="109" y="111" on="0"/>
        <pt x="123" y="118" on="0"/>
        <pt x="138" y="125" on="0"/>
        <pt x="152" y="135" on="0"/>
        <pt x="157" y="145" on="1"/>
        <pt x="173" y="178" on="0"/>
        <pt x="204" y="178" on="1"/>
        <pt x="221" y="178" on="0"/>
        <pt x="254" y="155" on="0"/>
        <pt x="294" y="121" on="0"/>
        <pt x="345" y="80" on="0"/>
        <pt x="415" y="46" on="0"/>
        <pt x="506" y="23" on="0"/>
        <pt x="567" y="23" on="1"/>
        <pt x="643" y="23" on="0"/>
        <pt x="747" y="53" on="0"/>
        <pt x="810" y="106" on="0"/>
        <pt x="838" y="178" on="0"/>
        <pt x="838" y="220" on="1"/>
        <pt x="838" y="272" on="0"/>
        <pt x="799" y="348" on="0"/>
        <pt x="730" y="406" on="0"/>
        <pt x="634" y="451" on="0"/>
        <pt x="519" y="495" on="0"/>
        <pt x="390" y="542" on="0"/>
        <pt x="323" y="573" on="1"/>
        <pt x="270" y="597" on="0"/>
        <pt x="182" y="656" on="0"/>
        <pt x="119" y="730" on="0"/>
        <pt x="85" y="823" on="0"/>
        <pt x="85" y="882" on="1"/>
        <pt x="85" y="953" on="0"/>
        <pt x="128" y="1090" on="0"/>
        <pt x="206" y="1211" on="0"/>
        <pt x="315" y="1313" on="0"/>
        <pt x="445" y="1388" on="0"/>
        <pt x="593" y="1429" on="0"/>
        <pt x="672" y="1429" on="1"/>
        <pt x="759" y="1429" on="0"/>
        <pt x="891" y="1386" on="0"/>
        <pt x="981" y="1329" on="0"/>
        <pt x="1031" y="1272" on="0"/>
        <pt x="1037" y="1257" on="1"/>
        <pt x="1044" y="1237" on="0"/>
        <pt x="1044" y="1228" on="1"/>
        <pt x="1044" y="1217" on="0"/>
        <pt x="1033" y="1207" on="0"/>
        <pt x="1027" y="1194" on="1"/>
        <pt x="1022" y="1183" on="0"/>
        <pt x="1007" y="1174" on="0"/>
        <pt x="992" y="1166" on="0"/>
        <pt x="978" y="1157" on="0"/>
        <pt x="974" y="1147" on="1"/>
        <pt x="967" y="1130" on="0"/>
        <pt x="940" y="1114" on="0"/>
        <pt x="924" y="1114" on="1"/>
        <pt x="908" y="1114" on="0"/>
        <pt x="877" y="1131" on="0"/>
        <pt x="840" y="1157" on="0"/>
        <pt x="793" y="1188" on="0"/>
        <pt x="725" y="1214" on="0"/>
        <pt x="633" y="1231" on="0"/>
        <pt x="571" y="1231" on="1"/>
        <pt x="481" y="1231" on="0"/>
        <pt x="338" y="1180" on="0"/>
        <pt x="278" y="1116" on="1"/>
        <pt x="238" y="1073" on="0"/>
        <pt x="200" y="982" on="0"/>
        <pt x="200" y="940" on="1"/>
        <pt x="200" y="902" on="0"/>
        <pt x="235" y="842" on="0"/>
        <pt x="295" y="793" on="0"/>
        <pt x="376" y="752" on="0"/>
        <pt x="469" y="713" on="0"/>
        <pt x="570" y="675" on="0"/>
        <pt x="620" y="653" on="1"/>
        <pt x="694" y="620" on="0"/>
        <pt x="812" y="541" on="0"/>
        <pt x="894" y="445" on="0"/>
        <pt x="938" y="333" on="0"/>
        <pt x="938" y="268" on="1"/>
        <pt x="938" y="192" on="0"/>
        <pt x="889" y="56" on="0"/>
        <pt x="789" y="-52" on="0"/>
        <pt x="637" y="-123" on="0"/>
        <pt x="534" y="-133" on="1"/>
        <pt x="512" y="-213" on="1"/>
        <pt x="519" y="-211" on="0"/>
        <pt x="532" y="-211" on="0"/>
        <pt x="538" y="-211" on="1"/>
        <pt x="601" y="-211" on="0"/>
        <pt x="659" y="-281" on="0"/>
      </contour>
    </TTGlyph>
    <TTGlyph name="Scircumflex" xMin="85" yMin="-137" xMax="1044" yMax="1779">
      <component glyphName="S" x="0" y="0" flags="0x204"/>
      <component glyphName="circumflex" x="393" y="752" flags="0x4"/>
    </TTGlyph>
    <TTGlyph name="T" xMin="25" yMin="-130" xMax="1218" yMax="1443">
      <contour>
        <pt x="1209" y="1362" on="1"/>
        <pt x="1207" y="1351" on="0"/>
        <pt x="1194" y="1337" on="0"/>
        <pt x="1180" y="1323" on="0"/>
        <pt x="1167" y="1309" on="0"/>
        <pt x="1166" y="1298" on="1"/>
        <pt x="1163" y="1275" on="0"/>
        <pt x="1121" y="1246" on="0"/>
        <pt x="1093" y="1246" on="1"/>
        <pt x="1069" y="1246" on="0"/>
        <pt x="957" y="1252" on="0"/>
        <pt x="885" y="1252" on="1"/>
        <pt x="805" y="1252" on="0"/>
        <pt x="637" y="1241" on="0"/>
        <pt x="477" y="1215" on="0"/>
        <pt x="335" y="1173" on="0"/>
        <pt x="229" y="1111" on="0"/>
        <pt x="167" y="1028" on="0"/>
        <pt x="167" y="974" on="1"/>
        <pt x="167" y="925" on="0"/>
        <pt x="202" y="832" on="0"/>
        <pt x="249" y="755" on="0"/>
        <pt x="298" y="697" on="0"/>
        <pt x="312" y="684" on="1"/>
        <pt x="322" y="675" on="0"/>
        <pt x="322" y="665" on="1"/>
        <pt x="322" y="645" on="0"/>
        <pt x="271" y="645" on="1"/>
        <pt x="258" y="645" on="0"/>
        <pt x="211" y="655" on="0"/>
        <pt x="157" y="679" on="0"/>
        <pt x="100" y="721" on="0"/>
        <pt x="54" y="785" on="0"/>
        <pt x="25" y="873" on="0"/>
        <pt x="25" y="933" on="1"/>
        <pt x="25" y="1019" on="0"/>
        <pt x="112" y="1180" on="0"/>
        <pt x="261" y="1309" on="0"/>
        <pt x="461" y="1396" on="0"/>
        <pt x="574" y="1410" on="1"/>
        <pt x="627" y="1419" on="0"/>
        <pt x="738" y="1431" on="0"/>
        <pt x="846" y="1439" on="0"/>
        <pt x="947" y="1443" on="0"/>
        <pt x="990" y="1443" on="1"/>
        <pt x="1070" y="1443" on="0"/>
        <pt x="1162" y="1432" on="0"/>
        <pt x="1207" y="1416" on="0"/>
        <pt x="1218" y="1397" on="0"/>
        <pt x="1218" y="1389" on="1"/>
        <pt x="1218" y="1383" on="0"/>
        <pt x="1211" y="1371" on="0"/>
      </contour>
      <contour>
        <pt x="768" y="1188" on="1"/>
        <pt x="768" y="1181" on="0"/>
        <pt x="764" y="1079" on="0"/>
        <pt x="757" y="921" on="0"/>
        <pt x="748" y="721" on="0"/>
        <pt x="739" y="510" on="0"/>
        <pt x="730" y="304" on="0"/>
        <pt x="723" y="132" on="0"/>
        <pt x="719" y="11" on="0"/>
        <pt x="719" y="-9" on="1"/>
        <pt x="719" y="-20" on="0"/>
        <pt x="714" y="-43" on="0"/>
        <pt x="700" y="-64" on="0"/>
        <pt x="675" y="-80" on="0"/>
        <pt x="654" y="-84" on="1"/>
        <pt x="636" y="-87" on="0"/>
        <pt x="607" y="-102" on="0"/>
        <pt x="584" y="-118" on="0"/>
        <pt x="566" y="-130" on="0"/>
        <pt x="558" y="-130" on="1"/>
        <pt x="553" y="-130" on="0"/>
        <pt x="549" y="-121" on="0"/>
        <pt x="547" y="-108" on="0"/>
        <pt x="547" y="-95" on="0"/>
        <pt x="547" y="-90" on="1"/>
        <pt x="548" y="-28" on="0"/>
        <pt x="553" y="118" on="1"/>
        <pt x="555" y="180" on="0"/>
        <pt x="562" y="353" on="0"/>
        <pt x="573" y="586" on="0"/>
        <pt x="587" y="883" on="0"/>
        <pt x="596" y="1069" on="1"/>
        <pt x="598" y="1114" on="0"/>
        <pt x="626" y="1174" on="0"/>
        <pt x="662" y="1182" on="1"/>
        <pt x="680" y="1186" on="0"/>
        <pt x="709" y="1205" on="0"/>
        <pt x="733" y="1225" on="0"/>
        <pt x="751" y="1241" on="0"/>
        <pt x="757" y="1241" on="1"/>
        <pt x="766" y="1241" on="0"/>
        <pt x="768" y="1210" on="0"/>
      </contour>
    </TTGlyph>
    <TTGlyph name="Tbar" xMin="25" yMin="-130" xMax="1218" yMax="1443">
      <contour>
        <pt x="768" y="1188" on="1"/>
        <pt x="768" y="1180" on="0"/>
        <pt x="764" y="1076" on="0"/>
        <pt x="756" y="913" on="0"/>
        <pt x="747" y="708" on="0"/>
        <pt x="743" y="601" on="1"/>
        <pt x="824" y="608" on="0"/>
        <pt x="941" y="617" on="0"/>
        <pt x="958" y="617" on="1"/>
        <pt x="969" y="617" on="0"/>
        <pt x="984" y="605" on="0"/>
        <pt x="984" y="597" on="1"/>
        <pt x="984" y="593" on="0"/>
        <pt x="983" y="591" on="1"/>
        <pt x="980" y="583" on="0"/>
        <pt x="980" y="575" on="1"/>
        <pt x="980" y="561" on="0"/>
        <pt x="977" y="548" on="0"/>
        <pt x="977" y="533" on="1"/>
        <pt x="977" y="517" on="1"/>
        <pt x="977" y="509" on="0"/>
        <pt x="951" y="492" on="0"/>
        <pt x="894" y="478" on="0"/>
        <pt x="803" y="467" on="0"/>
        <pt x="737" y="466" on="1"/>
        <pt x="733" y="380" on="0"/>
        <pt x="727" y="223" on="0"/>
        <pt x="722" y="96" on="0"/>
        <pt x="719" y="7" on="0"/>
        <pt x="719" y="-9" on="1"/>
        <pt x="719" y="-20" on="0"/>
        <pt x="714" y="-43" on="0"/>
        <pt x="700" y="-64" on="0"/>
        <pt x="675" y="-80" on="0"/>
        <pt x="654" y="-84" on="1"/>
        <pt x="636" y="-87" on="0"/>
        <pt x="607" y="-102" on="0"/>
        <pt x="584" y="-118" on="0"/>
        <pt x="566" y="-130" on="0"/>
        <pt x="558" y="-130" on="1"/>
        <pt x="553" y="-130" on="0"/>
        <pt x="549" y="-121" on="0"/>
        <pt x="547" y="-108" on="0"/>
        <pt x="547" y="-95" on="0"/>
        <pt x="547" y="-90" on="1"/>
        <pt x="547" y="-56" on="0"/>
        <pt x="549" y="15" on="1"/>
        <pt x="550" y="76" on="0"/>
        <pt x="559" y="292" on="0"/>
        <pt x="567" y="465" on="1"/>
        <pt x="523" y="466" on="0"/>
        <pt x="442" y="468" on="0"/>
        <pt x="378" y="471" on="0"/>
        <pt x="338" y="474" on="0"/>
        <pt x="335" y="476" on="1"/>
        <pt x="330" y="480" on="0"/>
        <pt x="327" y="495" on="0"/>
        <pt x="327" y="506" on="1"/>
        <pt x="327" y="514" on="0"/>
        <pt x="328" y="520" on="0"/>
        <pt x="331" y="525" on="0"/>
        <pt x="336" y="534" on="0"/>
        <pt x="339" y="545" on="1"/>
        <pt x="342" y="555" on="0"/>
        <pt x="355" y="566" on="0"/>
        <pt x="372" y="568" on="1"/>
        <pt x="420" y="572" on="0"/>
        <pt x="521" y="581" on="0"/>
        <pt x="572" y="586" on="1"/>
        <pt x="577" y="687" on="0"/>
        <pt x="588" y="926" on="0"/>
        <pt x="596" y="1069" on="1"/>
        <pt x="598" y="1114" on="0"/>
        <pt x="626" y="1174" on="0"/>
        <pt x="662" y="1182" on="1"/>
        <pt x="680" y="1186" on="0"/>
        <pt x="709" y="1205" on="0"/>
        <pt x="733" y="1225" on="0"/>
        <pt x="751" y="1241" on="0"/>
        <pt x="757" y="1241" on="1"/>
        <pt x="766" y="1241" on="0"/>
        <pt x="768" y="1210" on="0"/>
      </contour>
      <contour>
        <pt x="1209" y="1362" on="1"/>
        <pt x="1207" y="1351" on="0"/>
        <pt x="1194" y="1337" on="0"/>
        <pt x="1180" y="1323" on="0"/>
        <pt x="1167" y="1309" on="0"/>
        <pt x="1166" y="1298" on="1"/>
        <pt x="1163" y="1275" on="0"/>
        <pt x="1121" y="1246" on="0"/>
        <pt x="1093" y="1246" on="1"/>
        <pt x="1069" y="1246" on="0"/>
        <pt x="957" y="1252" on="0"/>
        <pt x="885" y="1252" on="1"/>
        <pt x="805" y="1252" on="0"/>
        <pt x="637" y="1241" on="0"/>
        <pt x="477" y="1215" on="0"/>
        <pt x="335" y="1173" on="0"/>
        <pt x="229" y="1111" on="0"/>
        <pt x="167" y="1028" on="0"/>
        <pt x="167" y="974" on="1"/>
        <pt x="167" y="925" on="0"/>
        <pt x="202" y="832" on="0"/>
        <pt x="249" y="755" on="0"/>
        <pt x="298" y="697" on="0"/>
        <pt x="312" y="684" on="1"/>
        <pt x="322" y="675" on="0"/>
        <pt x="322" y="665" on="1"/>
        <pt x="322" y="645" on="0"/>
        <pt x="271" y="645" on="1"/>
        <pt x="258" y="645" on="0"/>
        <pt x="211" y="655" on="0"/>
        <pt x="157" y="679" on="0"/>
        <pt x="100" y="721" on="0"/>
        <pt x="54" y="785" on="0"/>
        <pt x="25" y="873" on="0"/>
        <pt x="25" y="933" on="1"/>
        <pt x="25" y="1019" on="0"/>
        <pt x="112" y="1180" on="0"/>
        <pt x="261" y="1309" on="0"/>
        <pt x="461" y="1396" on="0"/>
        <pt x="574" y="1410" on="1"/>
        <pt x="627" y="1419" on="0"/>
        <pt x="738" y="1431" on="0"/>
        <pt x="846" y="1439" on="0"/>
        <pt x="947" y="1443" on="0"/>
        <pt x="990" y="1443" on="1"/>
        <pt x="1070" y="1443" on="0"/>
        <pt x="1162" y="1432" on="0"/>
        <pt x="1207" y="1416" on="0"/>
        <pt x="1218" y="1397" on="0"/>
        <pt x="1218" y="1389" on="1"/>
        <pt x="1218" y="1383" on="0"/>
        <pt x="1211" y="1371" on="0"/>
      </contour>
    </TTGlyph>
    <TTGlyph name="Tcaron" xMin="25" yMin="-130" xMax="1218" yMax="1786">
      <component glyphName="T" x="0" y="0" flags="0x204"/>
      <component glyphName="caron" x="467" y="759" flags="0x4"/>
    </TTGlyph>
    <TTGlyph name="Tcommaaccent" xMin="25" yMin="-572" xMax="1218" yMax="1443">
      <component glyphName="T" x="0" y="0" flags="0x204"/>
      <component glyphName="commaaccent" x="364" y="-99" flags="0x4"/>
    </TTGlyph>
    <TTGlyph name="Thorn" xMin="39" yMin="-125" xMax="1236" yMax="1408">
      <contour>
        <pt x="632" y="1061" on="1"/>
        <pt x="618" y="1061" on="0"/>
        <pt x="592" y="1060" on="0"/>
        <pt x="578" y="1059" on="1"/>
        <pt x="557" y="922" on="0"/>
        <pt x="528" y="662" on="0"/>
        <pt x="511" y="443" on="0"/>
        <pt x="504" y="282" on="0"/>
        <pt x="504" y="246" on="1"/>
        <pt x="504" y="196" on="0"/>
        <pt x="503" y="92" on="0"/>
        <pt x="503" y="1" on="0"/>
        <pt x="502" y="-69" on="0"/>
        <pt x="502" y="-84" on="1"/>
        <pt x="502" y="-88" on="0"/>
        <pt x="502" y="-102" on="0"/>
        <pt x="498" y="-115" on="0"/>
        <pt x="489" y="-125" on="0"/>
        <pt x="481" y="-125" on="1"/>
        <pt x="468" y="-125" on="0"/>
        <pt x="446" y="-115" on="0"/>
        <pt x="426" y="-102" on="0"/>
        <pt x="407" y="-92" on="0"/>
        <pt x="398" y="-92" on="1"/>
        <pt x="387" y="-92" on="0"/>
        <pt x="373" y="-106" on="0"/>
        <pt x="363" y="-106" on="1"/>
        <pt x="351" y="-106" on="0"/>
        <pt x="337" y="-94" on="0"/>
        <pt x="331" y="-76" on="0"/>
        <pt x="330" y="-56" on="0"/>
        <pt x="330" y="-48" on="1"/>
        <pt x="330" y="-29" on="0"/>
        <pt x="331" y="53" on="0"/>
        <pt x="334" y="156" on="0"/>
        <pt x="338" y="269" on="0"/>
        <pt x="340" y="319" on="1"/>
        <pt x="344" y="416" on="0"/>
        <pt x="359" y="612" on="0"/>
        <pt x="378" y="795" on="0"/>
        <pt x="399" y="959" on="0"/>
        <pt x="408" y="1025" on="1"/>
        <pt x="364" y="1009" on="0"/>
        <pt x="287" y="962" on="0"/>
        <pt x="230" y="897" on="0"/>
        <pt x="197" y="813" on="0"/>
        <pt x="197" y="760" on="1"/>
        <pt x="197" y="716" on="0"/>
        <pt x="219" y="636" on="0"/>
        <pt x="249" y="570" on="0"/>
        <pt x="279" y="523" on="0"/>
        <pt x="288" y="512" on="1"/>
        <pt x="293" y="506" on="0"/>
        <pt x="301" y="490" on="0"/>
        <pt x="301" y="484" on="1"/>
        <pt x="301" y="476" on="0"/>
        <pt x="288" y="464" on="0"/>
        <pt x="271" y="464" on="1"/>
        <pt x="247" y="464" on="0"/>
        <pt x="168" y="497" on="0"/>
        <pt x="93" y="565" on="0"/>
        <pt x="39" y="671" on="0"/>
        <pt x="39" y="743" on="1"/>
        <pt x="39" y="801" on="0"/>
        <pt x="92" y="929" on="0"/>
        <pt x="193" y="1048" on="0"/>
        <pt x="339" y="1149" on="0"/>
        <pt x="433" y="1181" on="1"/>
        <pt x="439" y="1209" on="1"/>
        <pt x="446" y="1253" on="0"/>
        <pt x="461" y="1315" on="0"/>
        <pt x="470" y="1326" on="1"/>
        <pt x="477" y="1335" on="0"/>
        <pt x="487" y="1342" on="1"/>
        <pt x="495" y="1348" on="0"/>
        <pt x="519" y="1359" on="0"/>
        <pt x="534" y="1359" on="1"/>
        <pt x="544" y="1381" on="0"/>
        <pt x="580" y="1408" on="0"/>
        <pt x="603" y="1408" on="1"/>
        <pt x="611" y="1408" on="0"/>
        <pt x="637" y="1395" on="0"/>
        <pt x="637" y="1381" on="1"/>
        <pt x="637" y="1371" on="0"/>
        <pt x="635" y="1354" on="0"/>
        <pt x="632" y="1340" on="1"/>
        <pt x="625" y="1310" on="0"/>
        <pt x="612" y="1249" on="0"/>
        <pt x="606" y="1218" on="1"/>
        <pt x="627" y="1220" on="0"/>
        <pt x="669" y="1222" on="0"/>
        <pt x="691" y="1222" on="1"/>
        <pt x="827" y="1222" on="0"/>
        <pt x="1031" y="1135" on="0"/>
        <pt x="1167" y="991" on="0"/>
        <pt x="1236" y="803" on="0"/>
        <pt x="1236" y="701" on="1"/>
        <pt x="1236" y="576" on="0"/>
        <pt x="1151" y="374" on="0"/>
        <pt x="991" y="232" on="0"/>
        <pt x="761" y="155" on="0"/>
        <pt x="616" y="155" on="1"/>
        <pt x="605" y="155" on="0"/>
        <pt x="580" y="154" on="0"/>
        <pt x="559" y="159" on="0"/>
        <pt x="546" y="170" on="0"/>
        <pt x="546" y="182" on="1"/>
        <pt x="546" y="193" on="0"/>
        <pt x="558" y="213" on="0"/>
        <pt x="569" y="214" on="1"/>
        <pt x="698" y="224" on="0"/>
        <pt x="874" y="298" on="0"/>
        <pt x="981" y="413" on="0"/>
        <pt x="1028" y="564" on="0"/>
        <pt x="1028" y="651" on="1"/>
        <pt x="1028" y="761" on="0"/>
        <pt x="966" y="917" on="0"/>
        <pt x="858" y="1016" on="0"/>
        <pt x="714" y="1061" on="0"/>
      </contour>
    </TTGlyph>
</ttFont>
